<svg xmlns="http://www.w3.org/2000/svg" viewBox="0 0 100 125"><path d="M65.145 93.256H35.9c-.22 0-.44-.05-.638-.146a35.192 35.192 0 0 1-18.498-21.916 1.47 1.47 0 0 1 1.412-1.877h64.692a1.472 1.472 0 0 1 1.412 1.877A35.195 35.195 0 0 1 65.783 93.11c-.2.096-.417.146-.638.146zm-28.903-2.94h28.563a32.266 32.266 0 0 0 16.048-18.06h-60.66a32.257 32.257 0 0 0 16.05 18.06z"/><path d="M65.816 84.847a1.47 1.47 0 0 1-.887-2.643 32.453 32.453 0 0 0 9.618-11.712 1.47 1.47 0 0 1 2.647 1.28A35.39 35.39 0 0 1 66.7 84.548c-.263.2-.575.297-.884.297zM24.84 71.59a1.47 1.47 0 0 1-1.04-.432L12.756 60.116a1.47 1.47 0 1 1 2.08-2.078l11.04 11.042a1.47 1.47 0 0 1-1.038 2.51zM32.84 71.59a1.47 1.47 0 0 1-1.04-.432L20.756 60.116a1.47 1.47 0 1 1 2.08-2.078l11.04 11.042a1.47 1.47 0 0 1-1.038 2.51zM40.18 57.492c-.298 0-.6-.09-.86-.28a7.494 7.494 0 0 1-3.09-6.05 7.5 7.5 0 0 1 3.053-6.026 1.47 1.47 0 0 1 1.74 2.37 4.493 4.493 0 0 0-1.853 3.655c0 1.45.7 2.82 1.875 3.672a1.47 1.47 0 0 1-.864 2.66zM57.472 57.492c-.3 0-.6-.09-.86-.28a7.494 7.494 0 0 1-3.09-6.05 7.5 7.5 0 0 1 3.052-6.026 1.47 1.47 0 0 1 1.74 2.37 4.493 4.493 0 0 0-1.854 3.655c0 1.45.702 2.82 1.876 3.672a1.47 1.47 0 0 1-.864 2.66z"/><path d="M40.73 47.325a1.47 1.47 0 0 1-.872-2.655 4.493 4.493 0 0 0 1.853-3.656c0-1.448-.7-2.82-1.874-3.67a1.47 1.47 0 0 1 1.725-2.382 7.496 7.496 0 0 1 3.09 6.052A7.5 7.5 0 0 1 41.6 47.04a1.46 1.46 0 0 1-.87.285zM31.394 57.492c-.3 0-.6-.09-.86-.28a7.494 7.494 0 0 1-3.09-6.05 7.5 7.5 0 0 1 3.052-6.026 1.47 1.47 0 0 1 1.74 2.37 4.493 4.493 0 0 0-1.852 3.655c0 1.45.7 2.82 1.875 3.672a1.47 1.47 0 0 1-.864 2.66z"/><path d="M31.942 47.325a1.47 1.47 0 0 1-.872-2.655 4.493 4.493 0 0 0 1.854-3.656c0-1.448-.7-2.82-1.875-3.67a1.47 1.47 0 0 1 1.724-2.382 7.496 7.496 0 0 1 3.09 6.052 7.5 7.5 0 0 1-3.053 6.025 1.46 1.46 0 0 1-.868.285zM65.69 57.492c-.3 0-.6-.09-.86-.28a7.494 7.494 0 0 1-3.09-6.05 7.503 7.503 0 0 1 3.054-6.026 1.47 1.47 0 0 1 1.74 2.37 4.494 4.494 0 0 0-1.855 3.655c0 1.45.7 2.82 1.875 3.672a1.47 1.47 0 0 1-.865 2.66z"/><path d="M66.24 47.325a1.47 1.47 0 0 1-.872-2.655 4.494 4.494 0 0 0 1.854-3.656c0-1.448-.7-2.82-1.877-3.67a1.47 1.47 0 0 1 1.725-2.382 7.492 7.492 0 0 1 3.092 6.052 7.503 7.503 0 0 1-3.055 6.025c-.26.192-.566.285-.868.285zM40.18 37.326c-.298 0-.6-.09-.86-.28a7.496 7.496 0 0 1-3.09-6.052c0-2.37 1.14-4.622 3.053-6.026a1.47 1.47 0 0 1 1.74 2.37 4.493 4.493 0 0 0-1.853 3.656c0 1.448.7 2.82 1.875 3.67a1.47 1.47 0 0 1-.864 2.662zM48.556 57.492c-.3 0-.6-.09-.86-.28a7.494 7.494 0 0 1-3.09-6.05 7.5 7.5 0 0 1 3.052-6.026 1.47 1.47 0 0 1 1.74 2.37 4.493 4.493 0 0 0-1.853 3.655c0 1.45.7 2.82 1.875 3.672a1.47 1.47 0 0 1-.864 2.66z"/><path d="M49.104 47.325a1.47 1.47 0 0 1-.872-2.655 4.493 4.493 0 0 0 1.854-3.656c0-1.448-.7-2.82-1.875-3.67a1.47 1.47 0 0 1 1.726-2.382 7.496 7.496 0 0 1 3.09 6.052 7.5 7.5 0 0 1-3.053 6.025 1.46 1.46 0 0 1-.87.285z"/><path d="M48.556 37.326c-.3 0-.6-.09-.86-.28a7.496 7.496 0 0 1-3.09-6.052c0-2.37 1.14-4.622 3.052-6.026a1.47 1.47 0 0 1 1.74 2.37 4.493 4.493 0 0 0-1.853 3.656c0 1.448.7 2.82 1.875 3.67a1.47 1.47 0 0 1-.864 2.662zM40.73 27.16a1.47 1.47 0 0 1-.873-2.656 4.493 4.493 0 0 0 1.854-3.656c0-1.448-.7-2.82-1.874-3.67a1.47 1.47 0 0 1 1.725-2.382 7.496 7.496 0 0 1 3.09 6.052c0 2.37-1.14 4.622-3.052 6.026-.26.192-.567.285-.87.285zM56.5 37.326c-.3 0-.602-.09-.862-.28a7.492 7.492 0 0 1-3.092-6.05c0-2.37 1.142-4.622 3.055-6.027a1.47 1.47 0 0 1 1.74 2.37 4.493 4.493 0 0 0-1.853 3.655c0 1.448.7 2.82 1.877 3.67a1.47 1.47 0 0 1-.865 2.66z"/><path d="M57.046 27.16a1.47 1.47 0 0 1-.872-2.656 4.493 4.493 0 0 0 1.855-3.656c0-1.448-.702-2.82-1.878-3.67a1.47 1.47 0 0 1 1.725-2.382 7.492 7.492 0 0 1 3.092 6.052c0 2.37-1.143 4.62-3.056 6.026a1.464 1.464 0 0 1-.868.285z"/><text y="115" font-size="5" font-weight="bold" font-family="'Helvetica Neue', Helvetica, Arial-Unicode, Arial, Sans-serif">Created by Oriane Juster</text><text y="120" font-size="5" font-weight="bold" font-family="'Helvetica Neue', Helvetica, Arial-Unicode, Arial, Sans-serif">from the Noun Project</text></svg>