<svg width="84" height="70" viewBox="0 0 84 70" xmlns="http://www.w3.org/2000/svg"><title>Untitled 4</title><path d="M13.04 35.5a.4.4 0 0 1-.4.4h-.728v.73a.4.4 0 0 1-.8 0v-.73h-.73a.4.4 0 0 1 0-.8h.73v-.73a.4.4 0 0 1 .8 0v.73h.73c.22 0 .4.18.4.4zm6.376-.4h-.73v-.73a.4.4 0 0 0-.8 0v.73h-.728a.4.4 0 0 0 0 .8h.73v.73a.4.4 0 0 0 .8 0v-.73h.728a.4.4 0 0 0 0-.8zm-.73 11.316v9.033a.4.4 0 0 1-.4.4h-4.14a.4.4 0 0 1-.4-.4V46.415c0-.22.18-.4.4-.4h4.14c.222 0 .4.18.4.4zm-.8 7.93h-3.34v.703h3.34v-.705zm0-.802v-6.728h-3.34v6.728h3.34zm65.92-22.185V69a.4.4 0 0 1-.4.4H50.28a.4.4 0 0 1-.4-.4V42.3H34.12V69a.4.4 0 0 1-.4.4H.595a.4.4 0 0 1-.4-.4V31.36c0-.222.18-.4.4-.4h.483l.6-1.508-.718-2.694a.402.402 0 0 1 .04-.302l.752-1.317a.4.4 0 0 1 .348-.203h.483l1.404-3.512c.12-.305.62-.306.74 0l1.406 3.512h.483a.4.4 0 0 1 .347.202l.753 1.316c.052.09.066.2.04.302l-.72 2.694.602 1.507h.317l1.134-1.134c-.258-.36-.616-1.016-.616-1.854 0-2.146 2.43-2.98 2.53-3.015a.408.408 0 0 1 .255 0c.103.035 2.532.87 2.532 3.015 0 .84-.358 1.493-.616 1.854l1.134 1.133h.42l1.136-1.134c-.258-.36-.616-1.016-.616-1.854 0-2.146 2.43-2.98 2.53-3.015a.408.408 0 0 1 .255 0c.102.035 2.53.87 2.53 3.015 0 .84-.357 1.493-.615 1.854l1.135 1.133h.64l.286-8.986h-.34a.4.4 0 0 1-.4-.4v-1.506c0-.22.18-.4.4-.4h.353v-.704h-.354a.4.4 0 0 1-.4-.4v-2.26c0-.22.18-.4.4-.4h.353V14.8c0-.22.18-.4.4-.4h.352v-1.105c0-.22.18-.4.4-.4h.292l-.688-4.812.002-.024c0-.012-.007-.022-.007-.033V6.522c0-.22.18-.4.4-.4h1.244l2.155-5.026a.4.4 0 0 1 .733 0l2.154 5.026h1.242c.22 0 .4.18.4.4v1.505c0 .01-.007.02-.008.033 0 .008.003.016.002.024l-.688 4.812h.292c.22 0 .4.18.4.4V14.4h.187l1.134-1.133c-.258-.36-.616-1.015-.616-1.854 0-2.146 2.43-2.98 2.53-3.015a.408.408 0 0 1 .255 0c.102.035 2.53.87 2.53 3.015 0 .84-.357 1.493-.615 1.854L37.65 14.4h1.173l1.135-1.133c-.258-.36-.616-1.015-.616-1.854 0-2.146 2.43-2.98 2.532-3.015a.408.408 0 0 1 .254 0c.103.035 2.532.87 2.532 3.015 0 .84-.358 1.493-.616 1.854l1.133 1.134h1.175l1.135-1.133c-.258-.36-.616-1.015-.616-1.854 0-2.146 2.43-2.98 2.533-3.015a.408.408 0 0 1 .254 0c.103.035 2.53.87 2.53 3.015 0 .84-.357 1.493-.615 1.854l1.134 1.134h.94v-1.104c0-.22.18-.4.4-.4h.292l-.688-4.812.002-.024c0-.01-.007-.02-.007-.032V6.523c0-.22.18-.4.4-.4h1.243l2.154-5.026c.125-.295.61-.295.734 0l2.155 5.026h1.243c.22 0 .4.18.4.4v1.505c0 .01-.006.02-.007.033 0 .01.003.017.002.025l-.688 4.812h.292c.22 0 .4.18.4.4V15.908h.352c.22 0 .4.18.4.4v2.26a.4.4 0 0 1-.4.4h-.352v.703h.352c.22 0 .4.18.4.4v1.507a.4.4 0 0 1-.4.4h-.34l.286 8.985h.64l1.136-1.133c-.258-.362-.616-1.017-.616-1.855 0-2.146 2.43-2.98 2.532-3.015a.408.408 0 0 1 .254 0c.103.035 2.53.87 2.53 3.015 0 .84-.357 1.493-.615 1.854l1.135 1.132h.422l1.135-1.133c-.258-.362-.616-1.017-.616-1.855 0-2.146 2.43-2.98 2.532-3.015a.408.408 0 0 1 .254 0c.103.035 2.53.87 2.53 3.015 0 .84-.357 1.493-.615 1.854l1.134 1.132h.32l.6-1.507-.718-2.694a.402.402 0 0 1 .04-.3l.752-1.318a.4.4 0 0 1 .348-.202h.483l1.405-3.512a.4.4 0 0 1 .742 0l1.404 3.512h.482a.4.4 0 0 1 .348.202L83 26.46c.05.09.065.198.038.3l-.72 2.695.604 1.507h.482c.22-.003.4.177.4.397zm-.802 16.962h-5.348l-.047.704h5.394v-.704zm0-9.787H82.3v1.752l.7 1.225c.002.005 0 .01.004.015v-2.992zm-3.012 4.282l-.352-.353-.353.353v3.198h.704v-3.198h.002zm.8-.166v3.365h1.268l-.533-1.333a.403.403 0 0 1-.016-.252l.712-2.664-.557-.973h-4.052l-.558.973.71 2.664a.396.396 0 0 1-.015.252l-.533 1.333h1.266V42.65a.4.4 0 0 1 .118-.282l.753-.752a.4.4 0 0 1 .565 0l.752.752c.078.075.12.177.12.283zm-4.516 3.366h.082l.602-1.507-.685-2.567v4.073zm3.997-6.728h-1.265l-.282.705h1.83l-.283-.705zm1.225-.753h-.665l.583 1.458h.082v-1.458zm-1.545-.048l-.312-.78-.31.78h.623zm-1.505.048h-.666v1.458h.082l.584-1.458zm-1.467 0h-.704v2.992c.002-.005.002-.01.005-.015l.7-1.225v-1.752zm-1.457 8.986h7.48v-.704H75.524v.705zm.58 1.506h.704l.047-.704h-.704l-.047.704zm6.9-3.01v-4.073l-.684 2.566.602 1.506h.082zm0-12.75h-20.66l.143 4.47h16.282l.5-1.254a.4.4 0 0 1 .743 0l.502 1.253H83.003v-4.47zm-20.492 5.27l.023.704h12.942v-.705H62.51zm.05 1.505l.81 25.548h10.827l.95-14.255h-.024a.4.4 0 0 1-.4-.4v-1.506c0-.22.18-.4.4-.4h.178l.048-.704h-.225a.4.4 0 0 1-.4-.4v-1.506c0-.22.18-.4.4-.4h.353v-5.975H62.56zm.857 27.054h10.68l.046-.705H63.395l.022.704zm11.554-1.08l-.07 1.08h.702l1.05-15.76h-.703l-.98 14.678v.003zm8.034-15.482v-.705h-7.48v.705h7.48zm-4.278-25.595h1.83l-.282-.704h-1.266l-.282.704zm.602-1.505h.625l-.312-.78-.312.78zm-2.27 3.278l.71 2.664a.396.396 0 0 1-.015.252l-.533 1.333h1.268v-3.364c0-.106.043-.208.117-.283l.753-.753a.4.4 0 0 1 .566 0l.753.753a.405.405 0 0 1 .117.283v3.363h1.267l-.532-1.334a.403.403 0 0 1-.016-.252l.71-2.664-.556-.973h-4.052l-.556.973zm2.583.698l-.352.354v3.197h.705V27.76l-.352-.354zm-8.82 3.55h4.09l-.823-.82a.402.402 0 0 1 0-.564c.006-.007.636-.66.636-1.602 0-1.33-1.42-2.024-1.857-2.206-.438.182-1.858.875-1.858 2.206 0 .953.63 1.594.636 1.6a.405.405 0 0 1 .117.283.405.405 0 0 1-.116.283l-.825.82zm-6.776 0h4.09l-.822-.82a.402.402 0 0 1 0-.564c.006-.007.636-.66.636-1.602 0-1.33-1.42-2.024-1.857-2.206-.437.182-1.857.875-1.857 2.206 0 .953.63 1.594.636 1.6a.405.405 0 0 1 .116.283.405.405 0 0 1-.117.283l-.826.82zm-1.748.802l.022.705h20.685v-.705H62.296zM22.074 21.173h39.851v-.705H22.074v.705zm39.85-3.01v-1.46h-39.85v1.46h39.851zm-.812-9.74h-6.606l.64 4.47h.758V9.528c0-.222.18-.4.4-.4h3.01c.222 0 .4.18.4.4v3.362h.76l.638-4.47zM56.704 9.93v2.962h2.21V9.93h-2.21zm-2.26 4.467h6.73v-.705H54.443v.705zm1.713-8.28h3.304l-.3-.705h-2.7l-.303.705zm.645-1.506h2.013l-.302-.704h-1.408l-.303.705zm.646-1.505h.722l-.36-.842-.362.842zm-3.003 4.517h6.728v-.704h-6.728v.704zm-6.963 6.775h4.09l-.822-.822a.402.402 0 0 1 0-.564c.006-.006.636-.658.636-1.6 0-1.34-1.42-2.026-1.856-2.206-.438.182-1.86.874-1.86 2.206 0 .94.63 1.594.638 1.6a.402.402 0 0 1 0 .565l-.826.822zm-7.528 0h4.092l-.823-.822a.402.402 0 0 1 0-.564c.006-.006.636-.658.636-1.6 0-1.33-1.42-2.024-1.86-2.206-.437.182-1.857.875-1.857 2.206 0 .94.63 1.594.637 1.6a.402.402 0 0 1 0 .565l-.826.822zm-7.528 0h4.092l-.823-.822a.402.402 0 0 1 0-.564c.006-.006.636-.658.636-1.6 0-1.33-1.42-2.024-1.857-2.206-.438.182-1.857.875-1.857 2.206 0 .94.63 1.594.636 1.6a.402.402 0 0 1 0 .565l-.826.822zm-3.576-4.87v3.364h.76l.638-4.468h-6.606l.64 4.47h.758V9.527c0-.22.18-.4.4-.4h3.01c.22 0 .4.18.4.4zm-3.01.402v2.962h2.21V9.93h-2.21zm-2.26 4.467h6.728v-.705H23.58v.705zm1.712-8.28h3.304l-.302-.705h-2.7l-.302.705zm.646-1.506h2.013l-.3-.704h-1.41l-.302.705zm.645-1.505h.722l-.36-.842-.362.842zM23.58 7.622h6.728v-.704H23.58v.704zm-.753 8.28h38.346V15.2H22.827v.705zm0 3.06v.705h38.346v-.704H22.827zM15.865 30.96h4.09l-.822-.822a.402.402 0 0 1 0-.564c.006-.007.636-.66.636-1.602 0-1.34-1.42-2.026-1.858-2.206-.438.182-1.858.874-1.858 2.206 0 .953.63 1.594.636 1.6a.405.405 0 0 1 .117.283.405.405 0 0 1-.117.283l-.825.82zm-6.775 0h4.09l-.822-.822a.402.402 0 0 1 0-.564c.006-.007.636-.66.636-1.602 0-1.34-1.42-2.026-1.857-2.206-.438.182-1.858.874-1.858 2.206 0 .953.628 1.594.635 1.6a.405.405 0 0 1 .117.283.405.405 0 0 1-.117.283l-.825.82zm-5.645-6.023h1.83l-.283-.704H3.726l-.28.704zm.602-1.505h.625l-.313-.78-.313.78zm-2.27 3.278l.71 2.664a.396.396 0 0 1-.015.252L1.94 30.96h1.266v-3.364c0-.106.043-.208.117-.283l.753-.753a.4.4 0 0 1 .566 0l.753.753a.405.405 0 0 1 .117.283v3.363H6.78l-.533-1.334a.403.403 0 0 1-.016-.252l.712-2.664-.557-.973H2.333l-.556.973zm2.582.698l-.354.354v3.197h.705V27.76l-.35-.354zM1.35 31.76H.995v.705H21.68l.023-.705H1.35zm6.5 16.562h-.704l.047.704h.704l-.047-.704zm.627 1.505H.997v.705h7.48v-.705zm-7.48-.8H6.39l-.046-.705H.996v.704zm0-3.01h.08l.603-1.508-.685-2.567v4.073zm1.49-1.586a.396.396 0 0 1-.015.253l-.533 1.333h1.266v-3.364c0-.106.043-.208.117-.283l.752-.753a.4.4 0 0 1 .565 0l.753.752a.4.4 0 0 1 .118.282v3.364H6.78l-.533-1.333a.403.403 0 0 1-.016-.252l.71-2.663-.557-.973H2.33l-.557.973.715 2.664zm2.505-5.142H3.727l-.282.705h1.83l-.283-.705zm2.65 6.728h.08v-4.073L7.04 44.51l.603 1.506zm-2.93-3.2l-.353-.352-.353.353v3.198h.704v-3.198h.002zm3.765 4H.997v.705h7.48v-.704zm-.753-8.28H7.02v1.75l.7 1.226c.002.005 0 .01.004.015v-2.992zm-1.506 0h-.666l.583 1.457h.082v-1.458zm-1.546-.05l-.312-.78-.312.78h.624zm-1.505.05h-.665v1.457h.082l.583-1.458zm-1.466 0H.997v2.99c.002-.004.002-.01.005-.014l.7-1.225v-1.752zM.997 67.093h6.6l-1.05-15.76H.995v15.76zm7.402 0H9.1l-.07-1.08v-.002l-.98-14.68h-.704l1.052 15.762zm1.506 0h10.68l.02-.705H9.858l.047.704zm10.726-1.506l.81-25.547H8.525v5.976h.353c.22 0 .4.18.4.4v1.506a.4.4 0 0 1-.4.4h-.225l.047.704h.177c.22 0 .4.18.4.4v1.506a.4.4 0 0 1-.4.4h-.024l.95 14.255H20.63zm.836-26.348l.022-.705H8.524v.705h12.942zm.048-1.506l.142-4.47H.996v4.47h2.492l.5-1.253c.12-.304.62-.305.743 0l.5 1.254h16.283zM7.696 68.6l-.047-.705H.995v.705h6.7zm1.506 0l-.047-.705H8.45l.048.705h.704zm11.333 0l.022-.705h-10.6l.047.705h10.53zm2.997 0v-.705h-2.175l-.022.705H23.53zm4.73-3.716h-3.93v.704h4.093v-.704h-.164zm-2.284-1.342a.54.54 0 0 0-1.08 0v.54h1.08v-.54zm1.883-3.575c0-.817-.664-1.482-1.48-1.482-.818 0-1.482.665-1.482 1.482 0 .272.08.523.207.742a2.27 2.27 0 0 1 2.55 0c.128-.22.206-.47.206-.743zm-1.48 1.152c-.24 0-.465.062-.666.164.2.102.424.164.665.164.24 0 .463-.063.664-.164a1.464 1.464 0 0 0-.665-.165zm-1.276.74a1.47 1.47 0 0 0-.177.445 1.34 1.34 0 0 1 .51-.103c.74 0 1.342.602 1.342 1.34v.542h1.08v-1.48c0-.273-.078-.525-.206-.744a2.273 2.273 0 0 1-2.55 0zm3.322 4.53h-4.093v2.21h4.093v-2.21zm2.634 1.505h-1.834v.705h1.834v-.705zm0-.8V31.36c0-.222.18-.4.4-.4h21.078c.22 0 .4.18.4.4v35.735h1.834V64.483c0-.22.18-.4.4-.4h.164v-1.48c0-.493.16-.946.425-1.32a2.26 2.26 0 0 1-.424-1.316 2.285 2.285 0 0 1 2.283-2.283 2.285 2.285 0 0 1 2.28 2.283c0 .49-.16.944-.424 1.317.266.373.425.826.425 1.318v1.48h.165c.22 0 .4.18.4.4V67.094h2.15l-1.433-45.12H22.814l-1.432 45.12h2.15V64.483c0-.22.18-.4.4-.4h.163v-1.48c0-.493.16-.946.425-1.32a2.26 2.26 0 0 1-.425-1.316 2.285 2.285 0 0 1 2.282-2.283 2.285 2.285 0 0 1 2.283 2.283c0 .49-.16.944-.425 1.317.266.373.425.826.425 1.318v1.48h.164c.22 0 .4.18.4.4V67.094h1.836zm24.514-1.507h4.093v-.704h-4.092v.704zm3.528-5.62c0-.818-.664-1.483-1.48-1.483-.818 0-1.483.665-1.483 1.482 0 .272.078.523.206.742a2.277 2.277 0 0 1 2.55 0c.128-.22.206-.47.206-.743zm-1.48 1.15c-.24 0-.465.064-.666.166.2.102.425.164.665.164.24 0 .465-.063.666-.164a1.464 1.464 0 0 0-.665-.165zm-1.276.74c-.128.22-.207.472-.207.744v1.48h1.08v-.54a1.34 1.34 0 0 1 1.852-1.238 1.47 1.47 0 0 0-.176-.446 2.27 2.27 0 0 1-1.275.39c-.47 0-.91-.143-1.274-.39zm2.215 1.144a.54.54 0 0 0-.54.54v.54h1.082v-.54a.54.54 0 0 0-.54-.54zM52.14 31.76H31.86v.705H52.14v-.705zm-20.28 1.506v4.47H52.14v-4.47H31.86zm0 5.974H52.14v-.705H31.86v.705zm18.822 2.66v26.7h1.457V40.04H31.86V68.6h1.458V41.9c0-.22.18-.4.4-.4H50.28a.4.4 0 0 1 .402.4zm2.257 26.7h1.833v-.705H52.94v.705zm6.727-2.21h-4.093v2.21h4.093v-2.21zm2.998 2.21l-.022-.705h-2.175v.705h2.198zm11.33 0l.048-.705h-10.6l.022.705h10.53zm1.506 0l.048-.705h-.704l-.046.705h.703zm7.504-.705H76.35l-.046.705h6.7v-.705zm0-.8V51.332h-5.55l-1.05 15.76h6.6zM71.36 35.9h.728v.73a.4.4 0 0 0 .8 0v-.73h.73a.4.4 0 0 0 0-.8h-.73v-.73a.4.4 0 0 0-.8 0v.73h-.73a.4.4 0 0 0 0 .8zm-6.776 0h.73v.73a.4.4 0 0 0 .8 0v-.73h.728a.4.4 0 0 0 0-.8h-.73v-.73a.4.4 0 0 0-.8 0v.73h-.728a.4.4 0 0 0 0 .8zm.728 19.55V46.415c0-.22.18-.4.4-.4h4.14c.222 0 .4.18.4.4v9.033a.4.4 0 0 1-.4.4h-4.14a.4.4 0 0 1-.4-.4zm4.14-1.105h-3.34v.704h3.34v-.705zm-3.34-.8h3.34v-6.73h-3.34v6.73zm-21.1-25.974h-6.023a.4.4 0 0 0 0 .8h6.02a.4.4 0 0 0 0-.8zm-13.552.9a.493.493 0 0 0 .5-.497v-.002c0-.13-.05-.26-.142-.34-.18-.2-.54-.2-.71-.01-.09.09-.15.22-.15.35 0 .13.05.26.15.36.092.09.222.14.352.14zm2.26-1a.5.5 0 0 0-.5.5v.002c0 .28.22.498.5.498.27 0 .498-.22.5-.498v-.002c0-.27-.23-.5-.5-.5zm1.91.14c-.1.1-.15.23-.15.36 0 .13.05.26.14.36.1.09.23.14.36.14.12 0 .25-.05.36-.15a.5.5 0 0 0-.01-.7c-.19-.19-.54-.17-.7-.01zm12.04.01a.51.51 0 0 0-.15.35c0 .13.05.26.15.36a.506.506 0 0 0 .71-.01c.09-.09.14-.218.14-.347v-.002a.5.5 0 0 0-.14-.35c-.19-.19-.53-.19-.71 0zm2.61-.15c-.27 0-.5.23-.5.5v.002a.5.5 0 0 0 1 0v-.002a.5.5 0 0 0-.5-.5zm1.9.15a.5.5 0 0 0-.14.35v.002c0 .13.05.258.15.358.1.09.22.14.35.14a.5.5 0 0 0 .35-.14c.09-.1.15-.22.15-.36 0-.13-.06-.27-.14-.35a.525.525 0 0 0-.72 0zm-20.72-2.26h21.08a.4.4 0 0 0 0-.8H31.46a.4.4 0 0 0 0 .8z" fill="#000" fill-rule="evenodd"/></svg>