<svg xmlns="http://www.w3.org/2000/svg" viewBox="0 0 90 112.5"><path d="M23.307 38.646L21.37 26.218s.18-.946.65-1.218h.105l19.968-9.16L74.467 15H42.145l-20.228 9.647s-.913.292-.833.992c.02.162.068.38.134.826l-.134-.857.743 4.466a.48.48 0 0 0 .09.225l6.518 42.792 23.536.83-22.95-1.672-5.713-33.604zM22 31.593l.526 3.102L22 31.59v.003z"/><path d="M51.945 73.916L65.22 67.08l.49-.254 8.757-51.297-9.8 50.046zM73.11 15.53s-13.04 6.653-15.952 6.88c-8.29.648-31.59 1.877-31.59 1.877l32.217-.938 15.326-7.82z"/><path d="M57.055 26l-5.11 48.066L57.68 26z"/><path d="M57.422 26.876l.258-1.34c-.18.686-.258 1.34-.258 1.34zM48.4 17.406c1.695.178 8.602 4.587 8.602 4.587s-4.967-4.127-7.756-4.84l19.016-2.198-20.06 2.05s.364.036.354.036c-.058 0-.13.004-.2.01l-3.024-.864 2.332.965c-4.017.802-16.207 5.78-16.207 5.78S46.705 17.23 48.4 17.407z"/><path fill-rule="evenodd" clip-rule="evenodd" d="M37.314 32.07c.452.17.94.282 1.347.527 1.545.927 2.343 2.33 2.424 4.12.025.56-.032 1.126-.1 1.682-.082.688-.457 1.224-1.035 1.597-.47.304-.962.58-1.452.854-.39.22-.642.523-.64.98.003 2.04-.033 4.08.04 6.116.083 2.357.265 4.71.405 7.064.033.543.062 1.085.108 1.626.028.32-.067.51-.417.506-.688-.01-1.378-.01-2.066-.03-.348-.01-.408-.243-.386-.546.088-1.195.16-2.39.247-3.586.132-1.792.296-3.583.406-5.376.116-1.905.178-3.814.278-5.722.028-.513-.155-.88-.63-1.074-1.512-.624-2.262-1.824-2.567-3.367-.02-.106-.078-.207-.12-.31v-1.013c.063-.21.133-.417.188-.628.445-1.718 1.445-2.916 3.19-3.42h.784zM46.2 56.925c-.485.085-.966.21-1.454.242-.325.02-.46-.214-.453-.563.062-3.484.104-6.97.162-10.453.067-4.027.143-8.055.214-12.082 0-.075 0-.15.002-.225.02-.92.042-.938 1.03-.813.04 1.144.093 2.298.11 3.453.097 5.808.18 11.615.276 17.42.008.484.072.966.11 1.447v1.575zM42.057 33.013h1.15c.015.165.036.31.04.455.08 4.814.156 9.627.236 14.44.047 2.81.105 5.618.133 8.43.002.25-.155.697-.296.722-.453.08-.94.04-1.396-.047-.083-.017-.122-.47-.118-.718.078-4.813.184-9.627.244-14.44.037-2.92.007-5.842.007-8.842z"/><text y="105" font-size="5" font-weight="bold" font-family="'Helvetica Neue', Helvetica, Arial-Unicode, Arial, Sans-serif">Created by Paulo Sá Ferreira</text><text y="110" font-size="5" font-weight="bold" font-family="'Helvetica Neue', Helvetica, Arial-Unicode, Arial, Sans-serif">from the Noun Project</text></svg>