<svg width="60" height="107" viewBox="0 0 60 107" xmlns="http://www.w3.org/2000/svg"><title>Untitled 5</title><path d="M15.28 3a.96.96 0 0 0-.968.97c0 .54.428 1 .97 1 .54 0 .968-.46.968-1a.96.96 0 0 0-.97-.97zm3.907 0a.96.96 0 0 0-.968.97c0 .54.426 1 .967 1 .542 0 1-.46 1-1 0-.542-.458-.97-1-.97zM7.437 6.938c-.54 0-.968.458-.968 1 0 .54.426.968.967.968.542 0 1-.427 1-.968 0-.542-.458-1-1-1zm3.938 0c-.54 0-1 .458-1 1 0 .54.46.968 1 .968a.96.96 0 0 0 .97-.968c0-.542-.43-1-.97-1zm3.906 0c-.54 0-.968.458-.968 1 0 .54.428.968.97.968a.96.96 0 0 0 .968-.968c0-.542-.428-1-.97-1zm3.907 0c-.54 0-.968.458-.968 1 0 .54.426.968.967.968.542 0 1-.427 1-.968 0-.542-.458-1-1-1zm3.938 0c-.54 0-1 .458-1 1 0 .54.46.968 1 .968a.96.96 0 0 0 .97-.968c0-.542-.43-1-.97-1zM7.437 10.844c-.54 0-.968.46-.968 1s.426.97.967.97c.542 0 1-.43 1-.97s-.458-1-1-1zm3.938 0c-.54 0-1 .46-1 1s.46.97 1 .97a.96.96 0 0 0 .97-.97c0-.54-.43-1-.97-1zm3.906 0c-.54 0-.968.46-.968 1s.428.97.97.97a.96.96 0 0 0 .968-.97c0-.54-.428-1-.97-1zm3.907 0c-.54 0-.968.46-.968 1s.426.97.967.97c.542 0 1-.43 1-.97s-.458-1-1-1zm3.938 0c-.54 0-1 .46-1 1s.46.97 1 .97a.96.96 0 0 0 .97-.97c0-.54-.43-1-.97-1zm3.906 0c-.54 0-.968.46-.968 1s.428.97.97.97a.96.96 0 0 0 .968-.97c0-.54-.428-1-.97-1zm-19.593 3.97a.96.96 0 0 0-.968.967c0 .542.426.97.967.97.542 0 1-.428 1-.97 0-.54-.458-.967-1-.967zm3.938 0c-.54 0-1 .426-1 .967 0 .542.46.97 1 .97a.96.96 0 0 0 .97-.97.96.96 0 0 0-.97-.967zm3.906 0a.96.96 0 0 0-.968.967c0 .542.428.97.97.97a.96.96 0 0 0 .968-.97.96.96 0 0 0-.97-.967zm3.907 0a.96.96 0 0 0-.968.967c0 .542.426.97.967.97.542 0 1-.428 1-.97 0-.54-.458-.967-1-.967zm3.938 0c-.54 0-1 .426-1 .967 0 .542.46.97 1 .97a.96.96 0 0 0 .97-.97.96.96 0 0 0-.97-.967zm3.906 0a.96.96 0 0 0-.968.967c0 .542.428.97.97.97a.96.96 0 0 0 .968-.97.96.96 0 0 0-.97-.967zm3.94 3.842c-.542 0-.97.46-.97 1s.428.97.97.97a.96.96 0 0 0 .967-.97c0-.54-.427-1-.968-1zm-27.47.032c-.54 0-.97.458-.97 1 0 .54.43.968.97.968s1-.427 1-.968c0-.542-.46-1-1-1zm3.937 0c-.54 0-.968.458-.968 1 0 .54.426.968.967.968.542 0 1-.427 1-.968 0-.542-.458-1-1-1zm3.938 0c-.54 0-1 .458-1 1 0 .54.46.968 1 .968a.96.96 0 0 0 .97-.968c0-.542-.43-1-.97-1zm3.906 0c-.54 0-.968.458-.968 1 0 .54.428.968.97.968a.96.96 0 0 0 .968-.968c0-.542-.428-1-.97-1zm3.907 0c-.54 0-.968.458-.968 1 0 .54.426.968.967.968.542 0 1-.427 1-.968 0-.542-.458-1-1-1zm3.938 0c-.54 0-1 .458-1 1 0 .54.46.968 1 .968a.96.96 0 0 0 .97-.968c0-.542-.43-1-.97-1zm3.906 0c-.54 0-.968.458-.968 1 0 .54.428.968.97.968a.96.96 0 0 0 .968-.968c0-.542-.428-1-.97-1zm7.876 0c-.54 0-1 .458-1 1 0 .54.46.968 1 .968a.96.96 0 0 0 .97-.968c0-.542-.43-1-.97-1zm3.875 0c-.54 0-.968.458-.968 1 0 .54.428.968.97.968.54 0 1-.427 1-.968 0-.542-.46-1-1-1zm3.94 0c-.542 0-.97.458-.97 1 0 .54.428.968.97.968.54 0 1-.427 1-.968 0-.542-.46-1-1-1zm3.936 0c-.54 0-1 .458-1 1 0 .54.46.968 1 .968a.96.96 0 0 0 .97-.968c0-.542-.43-1-.97-1zM30.97 22.594c-.542 0-.97.46-.97 1s.428.97.97.97a.96.96 0 0 0 .967-.97c0-.54-.427-1-.968-1zm-23.533.03c-.54 0-.968.46-.968 1 0 .542.426.97.967.97.542 0 1-.428 1-.97 0-.54-.458-1-1-1zm3.938 0c-.54 0-1 .46-1 1 0 .542.46.97 1 .97a.96.96 0 0 0 .97-.97c0-.54-.43-1-.97-1zm3.906 0c-.54 0-.968.46-.968 1 0 .542.428.97.97.97a.96.96 0 0 0 .968-.97c0-.54-.428-1-.97-1zm3.907 0c-.54 0-.968.46-.968 1 0 .542.426.97.967.97.542 0 1-.428 1-.97 0-.54-.458-1-1-1zm3.938 0c-.54 0-1 .46-1 1 0 .542.46.97 1 .97a.96.96 0 0 0 .97-.97c0-.54-.43-1-.97-1zm3.906 0c-.54 0-.968.46-.968 1 0 .542.428.97.97.97a.96.96 0 0 0 .968-.97c0-.54-.428-1-.97-1zm7.876.032c-.54 0-1 .428-1 .97 0 .54.46.968 1 .968a.96.96 0 0 0 .97-.97.96.96 0 0 0-.97-.968zm3.875 0a.96.96 0 0 0-.968.97c0 .54.428.968.97.968.54 0 1-.428 1-.97 0-.54-.46-.968-1-.968zm3.94 0a.96.96 0 0 0-.97.97c0 .54.428.968.97.968.54 0 1-.428 1-.97 0-.54-.46-.968-1-.968zm3.936 0c-.54 0-1 .428-1 .97 0 .54.46.968 1 .968a.96.96 0 0 0 .97-.97.96.96 0 0 0-.97-.968zm3.906 0a.96.96 0 0 0-.968.97c0 .54.427.968.968.968a.96.96 0 0 0 .97-.97.96.96 0 0 0-.97-.968zM30.97 26.53a.96.96 0 0 0-.97.97c0 .54.428.97.97.97a.96.96 0 0 0 .967-.97.96.96 0 0 0-.968-.97zm-19.595.033c-.54 0-1 .427-1 .968 0 .542.46.97 1 .97a.96.96 0 0 0 .97-.97.96.96 0 0 0-.97-.967zm3.906 0a.96.96 0 0 0-.968.968c0 .542.428.97.97.97a.96.96 0 0 0 .968-.97.96.96 0 0 0-.97-.967zm3.907 0a.96.96 0 0 0-.968.968c0 .542.426.97.967.97.542 0 1-.428 1-.97 0-.54-.458-.967-1-.967zm3.938 0c-.54 0-1 .427-1 .968 0 .542.46.97 1 .97a.96.96 0 0 0 .97-.97.96.96 0 0 0-.97-.967zm3.906 0a.96.96 0 0 0-.968.968c0 .542.428.97.97.97a.96.96 0 0 0 .968-.97.96.96 0 0 0-.97-.967zm7.876 0c-.54 0-1 .427-1 .968 0 .542.46 1 1 1s.97-.458.97-1a.96.96 0 0 0-.97-.967zm3.875 0a.96.96 0 0 0-.968.968c0 .542.428 1 .97 1 .54 0 1-.458 1-1 0-.54-.46-.967-1-.967zm3.94 0a.96.96 0 0 0-.97.968c0 .542.428 1 .97 1 .54 0 1-.458 1-1 0-.54-.46-.967-1-.967zm3.936 0c-.54 0-1 .427-1 .968 0 .542.46 1 1 1s.97-.458.97-1a.96.96 0 0 0-.97-.967zm3.906 0a.96.96 0 0 0-.968.968c0 .542.427 1 .968 1 .542 0 .97-.458.97-1a.96.96 0 0 0-.97-.967zM30.97 30.47a.96.96 0 0 0-.97.968c0 .54.428 1 .97 1 .54 0 .967-.46.967-1a.96.96 0 0 0-.968-.97zm-19.595.03c-.54 0-1 .428-1 .97 0 .54.46 1 1 1s.97-.46.97-1a.96.96 0 0 0-.97-.97zm3.906 0a.96.96 0 0 0-.968.97c0 .54.428 1 .97 1 .54 0 .968-.46.968-1a.96.96 0 0 0-.97-.97zm3.907 0a.96.96 0 0 0-.968.97c0 .54.426 1 .967 1 .542 0 1-.46 1-1 0-.542-.458-.97-1-.97zm3.938 0c-.54 0-1 .428-1 .97 0 .54.46 1 1 1s.97-.46.97-1a.96.96 0 0 0-.97-.97zm3.906 0a.96.96 0 0 0-.968.97c0 .54.428 1 .97 1 .54 0 .968-.46.968-1a.96.96 0 0 0-.97-.97zm7.876 0c-.54 0-1 .428-1 .97 0 .54.46 1 1 1s.97-.46.97-1a.96.96 0 0 0-.97-.97zm3.875 0a.96.96 0 0 0-.968.97c0 .54.428 1 .97 1 .54 0 1-.46 1-1 0-.542-.46-.97-1-.97zm3.94 0a.96.96 0 0 0-.97.97c0 .54.428 1 .97 1 .54 0 1-.46 1-1 0-.542-.46-.97-1-.97zm3.936 0c-.54 0-1 .428-1 .97 0 .54.46 1 1 1s.97-.46.97-1a.96.96 0 0 0-.97-.97zm3.906 0a.96.96 0 0 0-.968.97c0 .54.427 1 .968 1 .542 0 .97-.46.97-1a.96.96 0 0 0-.97-.97zM30.97 34.344a.96.96 0 0 0-.97.97c0 .54.428.967.97.967a.96.96 0 0 0 .967-.967.96.96 0 0 0-.968-.97zm-19.595.03c-.54 0-1 .43-1 .97s.46.97 1 .97a.96.96 0 0 0 .97-.97.96.96 0 0 0-.97-.97zm3.906 0a.96.96 0 0 0-.968.97c0 .54.428.97.97.97a.96.96 0 0 0 .968-.97.96.96 0 0 0-.97-.97zm3.907 0a.96.96 0 0 0-.968.97c0 .54.426.97.967.97.542 0 1-.43 1-.97s-.458-.97-1-.97zm3.938 0c-.54 0-1 .43-1 .97s.46.97 1 .97a.96.96 0 0 0 .97-.97.96.96 0 0 0-.97-.97zm3.906 0a.96.96 0 0 0-.968.97c0 .54.428.97.97.97a.96.96 0 0 0 .968-.97.96.96 0 0 0-.97-.97zm7.876 0c-.54 0-1 .43-1 .97s.46.97 1 .97a.96.96 0 0 0 .97-.97.96.96 0 0 0-.97-.97zm3.875 0a.96.96 0 0 0-.968.97c0 .54.428.97.97.97.54 0 1-.43 1-.97s-.46-.97-1-.97zm3.94 0a.96.96 0 0 0-.97.97c0 .54.428.97.97.97.54 0 1-.43 1-.97s-.46-.97-1-.97zm3.936 0c-.54 0-1 .43-1 .97s.46.97 1 .97a.96.96 0 0 0 .97-.97.96.96 0 0 0-.97-.97zm3.906 0a.96.96 0 0 0-.968.97c0 .54.427.97.968.97a.96.96 0 0 0 .97-.97.96.96 0 0 0-.97-.97zm3.938 0c-.54 0-1 .43-1 .97s.46.97 1 .97a.96.96 0 0 0 .97-.97.96.96 0 0 0-.97-.97zm-23.53 3.907a.96.96 0 0 0-.97.97c0 .54.428.97.97.97a.96.96 0 0 0 .967-.97.96.96 0 0 0-.968-.97zm-23.533.033a.96.96 0 0 0-.968.968c0 .542.426 1 .967 1 .542 0 1-.458 1-1 0-.54-.458-.967-1-.967zm3.938 0c-.54 0-1 .427-1 .968 0 .542.46 1 1 1s.97-.458.97-1a.96.96 0 0 0-.97-.967zm3.906 0a.96.96 0 0 0-.968.968c0 .542.428 1 .97 1 .54 0 .968-.458.968-1a.96.96 0 0 0-.97-.967zm3.907 0a.96.96 0 0 0-.968.968c0 .542.426 1 .967 1 .542 0 1-.458 1-1 0-.54-.458-.967-1-.967zm3.938 0c-.54 0-1 .427-1 .968 0 .542.46 1 1 1s.97-.458.97-1a.96.96 0 0 0-.97-.967zm3.906 0a.96.96 0 0 0-.968.968c0 .542.428 1 .97 1 .54 0 .968-.458.968-1a.96.96 0 0 0-.97-.967zm7.876 0c-.54 0-1 .427-1 .968 0 .542.46 1 1 1s.97-.458.97-1a.96.96 0 0 0-.97-.967zm3.875 0a.96.96 0 0 0-.968.968c0 .542.428 1 .97 1 .54 0 1-.458 1-1 0-.54-.46-.967-1-.967zm3.94 0a.96.96 0 0 0-.97.968c0 .542.428 1 .97 1 .54 0 1-.458 1-1 0-.54-.46-.967-1-.967zm3.936 0c-.54 0-1 .427-1 .968 0 .542.46 1 1 1s.97-.458.97-1a.96.96 0 0 0-.97-.967zm3.906 0a.96.96 0 0 0-.968.968c0 .542.427 1 .968 1 .542 0 .97-.458.97-1a.96.96 0 0 0-.97-.967zm3.938 0c-.54 0-1 .427-1 .968 0 .542.46 1 1 1s.97-.458.97-1a.96.96 0 0 0-.97-.967zm-23.53 3.875a.96.96 0 0 0-.97.968c0 .54.428 1 .97 1 .54 0 .967-.46.967-1a.96.96 0 0 0-.968-.968zm-19.595.03c-.54 0-1 .428-1 .97 0 .54.46 1 1 1s.97-.46.97-1a.96.96 0 0 0-.97-.97zm3.906 0a.96.96 0 0 0-.968.97c0 .54.428 1 .97 1 .54 0 .968-.46.968-1a.96.96 0 0 0-.97-.97zm3.907 0a.96.96 0 0 0-.968.97c0 .54.426 1 .967 1 .542 0 1-.46 1-1 0-.542-.458-.97-1-.97zm3.938 0c-.54 0-1 .428-1 .97 0 .54.46 1 1 1s.97-.46.97-1a.96.96 0 0 0-.97-.97zm3.906 0a.96.96 0 0 0-.968.97c0 .54.428 1 .97 1 .54 0 .968-.46.968-1a.96.96 0 0 0-.97-.97zm7.876 0c-.54 0-1 .46-1 1 0 .542.46.97 1 .97a.96.96 0 0 0 .97-.97c0-.54-.43-1-.97-1zm3.875 0c-.54 0-.968.46-.968 1 0 .542.428.97.97.97.54 0 1-.428 1-.97 0-.54-.46-1-1-1zm3.94 0c-.542 0-.97.46-.97 1 0 .542.428.97.97.97.54 0 1-.428 1-.97 0-.54-.46-1-1-1zm3.936 0c-.54 0-1 .46-1 1 0 .542.46.97 1 .97a.96.96 0 0 0 .97-.97c0-.54-.43-1-.97-1zm3.906 0c-.54 0-.968.46-.968 1 0 .542.427.97.968.97a.96.96 0 0 0 .97-.97c0-.54-.428-1-.97-1zm3.938 0c-.54 0-1 .46-1 1 0 .542.46.97 1 .97a.96.96 0 0 0 .97-.97c0-.54-.43-1-.97-1zm-23.53 3.907c-.542 0-.97.46-.97 1s.428.97.97.97a.96.96 0 0 0 .967-.97c0-.54-.427-1-.968-1zm-19.595.03c-.54 0-1 .46-1 1 0 .542.46.97 1 .97a.96.96 0 0 0 .97-.97c0-.54-.43-1-.97-1zm3.906 0c-.54 0-.968.46-.968 1 0 .542.428.97.97.97a.96.96 0 0 0 .968-.97c0-.54-.428-1-.97-1zm3.907 0c-.54 0-.968.46-.968 1 0 .542.426.97.967.97.542 0 1-.428 1-.97 0-.54-.458-1-1-1zm3.938 0c-.54 0-1 .46-1 1 0 .542.46.97 1 .97a.96.96 0 0 0 .97-.97c0-.54-.43-1-.97-1zm3.906 0c-.54 0-.968.46-.968 1 0 .542.428.97.97.97a.96.96 0 0 0 .968-.97c0-.54-.428-1-.97-1zm7.876 0c-.54 0-1 .46-1 1 0 .542.46.97 1 .97a.96.96 0 0 0 .97-.97c0-.54-.43-1-.97-1zm3.875 0c-.54 0-.968.46-.968 1 0 .542.428.97.97.97.54 0 1-.428 1-.97 0-.54-.46-1-1-1zm-7.81 3.876A.96.96 0 0 0 30 51c0 .54.428.97.97.97a.96.96 0 0 0 .967-.97.96.96 0 0 0-.968-.97zm-15.69.033a.96.96 0 0 0-.968.968c0 .542.428.97.97.97a.96.96 0 0 0 .968-.97.96.96 0 0 0-.97-.967zm3.907 0a.96.96 0 0 0-.968.968c0 .542.426.97.967.97.542 0 1-.428 1-.97 0-.54-.458-.967-1-.967zm3.938 0c-.54 0-1 .427-1 .968 0 .542.46.97 1 .97a.96.96 0 0 0 .97-.97.96.96 0 0 0-.97-.967zm3.906 0a.96.96 0 0 0-.968.968c0 .542.428.97.97.97a.96.96 0 0 0 .968-.97.96.96 0 0 0-.97-.967zm7.876 0c-.54 0-1 .427-1 .968 0 .542.46 1 1 1s.97-.458.97-1a.96.96 0 0 0-.97-.967zM30.97 53.97a.96.96 0 0 0-.97.968c0 .54.428 1 .97 1 .54 0 .967-.46.967-1a.96.96 0 0 0-.968-.97zM15.28 54a.96.96 0 0 0-.968.97c0 .54.428 1 .97 1 .54 0 .968-.46.968-1a.96.96 0 0 0-.97-.97zm3.907 0a.96.96 0 0 0-.968.97c0 .54.426 1 .967 1 .542 0 1-.46 1-1 0-.542-.458-.97-1-.97zm7.844 0a.96.96 0 0 0-.968.97c0 .54.428 1 .97 1 .54 0 .968-.46.968-1a.96.96 0 0 0-.97-.97zm7.876 0c-.54 0-1 .428-1 .97 0 .54.46 1 1 1s.97-.46.97-1a.96.96 0 0 0-.97-.97zM15.28 57.906c-.54 0-.968.46-.968 1s.428.97.97.97a.96.96 0 0 0 .968-.97c0-.54-.428-1-.97-1zm3.907 0c-.54 0-.968.46-.968 1s.426.97.967.97c.542 0 1-.43 1-.97s-.458-1-1-1zm15.72 0c-.542 0-1 .46-1 1s.458.97 1 .97a.96.96 0 0 0 .968-.97c0-.54-.428-1-.97-1zm-15.72 3.938c-.54 0-.968.46-.968 1s.426.97.967.97c.542 0 1-.43 1-.97s-.458-1-1-1zm15.72.03c-.542 0-1 .43-1 .97s.458.97 1 .97a.96.96 0 0 0 .968-.97.96.96 0 0 0-.97-.97zm3.874 0a.96.96 0 0 0-.968.97c0 .54.428.97.97.97.54 0 1-.43 1-.97s-.46-.97-1-.97zm-23.5 3.876a.96.96 0 0 0-.968.97c0 .54.428.968.97.968a.96.96 0 0 0 .968-.97.96.96 0 0 0-.97-.968zm-3.905 3.938c-.54 0-1 .427-1 .968 0 .54.46 1 1 1s.97-.46.97-1a.96.96 0 0 0-.97-.968zm3.906 0a.96.96 0 0 0-.968.968c0 .54.428 1 .97 1 .54 0 .968-.46.968-1a.96.96 0 0 0-.97-.968zm-3.905 3.906c-.54 0-1 .427-1 .97 0 .54.46 1 1 1s.97-.46.97-1a.96.96 0 0 0-.97-.97zm3.906 0a.96.96 0 0 0-.968.97c0 .54.428 1 .97 1 .54 0 .968-.46.968-1a.96.96 0 0 0-.97-.97zM7.438 77.53c-.54 0-.968.46-.968 1 0 .542.426.97.967.97.542 0 1-.428 1-.97 0-.54-.458-1-1-1zm3.938 0c-.54 0-1 .46-1 1 0 .542.46.97 1 .97a.96.96 0 0 0 .97-.97c0-.54-.43-1-.97-1zm3.906 0c-.54 0-.968.46-.968 1 0 .542.428.97.97.97a.96.96 0 0 0 .968-.97c0-.54-.428-1-.97-1zm3.907 0c-.54 0-.968.46-.968 1 0 .542.426.97.967.97.542 0 1-.428 1-.97 0-.54-.458-1-1-1zm-11.75 3.876a.96.96 0 0 0-.968.97c0 .54.426 1 .967 1 .542 0 1-.46 1-1 0-.542-.458-.97-1-.97zm3.938 0c-.54 0-1 .428-1 .97 0 .54.46 1 1 1s.97-.46.97-1a.96.96 0 0 0-.97-.97zm3.906 0a.96.96 0 0 0-.968.97c0 .54.428 1 .97 1 .54 0 .968-.46.968-1a.96.96 0 0 0-.97-.97zm3.907 0a.96.96 0 0 0-.968.97c0 .54.426 1 .967 1 .542 0 1-.46 1-1 0-.542-.458-.97-1-.97zm-11.75 3.938a.96.96 0 0 0-.968.97c0 .54.426 1 .967 1 .542 0 1-.46 1-1 0-.543-.458-.97-1-.97zm3.938 0c-.54 0-1 .427-1 .97 0 .54.46 1 1 1s.97-.46.97-1a.96.96 0 0 0-.97-.97zm3.906 0a.96.96 0 0 0-.968.97c0 .54.428 1 .97 1 .54 0 .968-.46.968-1a.96.96 0 0 0-.97-.97zm3.907 0a.96.96 0 0 0-.968.97c0 .54.426 1 .967 1 .542 0 1-.46 1-1 0-.543-.458-.97-1-.97zm-7.812 3.906c-.54 0-1 .46-1 1s.46.97 1 .97a.96.96 0 0 0 .97-.97c0-.54-.43-1-.97-1zm3.906 0c-.54 0-.968.46-.968 1s.428.97.97.97a.96.96 0 0 0 .968-.97c0-.54-.428-1-.97-1zm3.907 0c-.54 0-.968.46-.968 1s.426.97.967.97c.542 0 1-.43 1-.97s-.458-1-1-1zm3.938 0c-.54 0-1 .46-1 1s.46.97 1 .97a.96.96 0 0 0 .97-.97c0-.54-.43-1-.97-1zm-3.938 3.938c-.54 0-.968.458-.968 1 0 .54.426.968.967.968.542 0 1-.427 1-.968 0-.542-.458-1-1-1zm3.938 0c-.54 0-1 .458-1 1 0 .54.46.968 1 .968a.96.96 0 0 0 .97-.968c0-.542-.43-1-.97-1zm3.906 0c-.54 0-.968.458-.968 1 0 .54.428.968.97.968a.96.96 0 0 0 .968-.968c0-.542-.428-1-.97-1zm3.94 3.875a.96.96 0 0 0-.97.968c0 .542.428 1 .97 1 .54 0 .967-.458.967-1a.96.96 0 0 0-.968-.967zm-15.69.03a.96.96 0 0 0-.968.97c0 .54.428 1 .97 1 .54 0 .968-.46.968-1a.96.96 0 0 0-.97-.97zm7.845 0c-.54 0-1 .428-1 .97 0 .54.46 1 1 1s.97-.46.97-1a.96.96 0 0 0-.97-.97zm3.906 0a.96.96 0 0 0-.968.97c0 .54.428 1 .97 1 .54 0 .968-.46.968-1a.96.96 0 0 0-.97-.97zM30.97 101c-.542 0-.97.46-.97 1s.428.97.97.97a.96.96 0 0 0 .967-.97c0-.54-.427-1-.968-1zm-3.94.03c-.54 0-.968.46-.968 1 0 .542.428.97.97.97a.96.96 0 0 0 .968-.97c0-.54-.428-1-.97-1z" fill="#000" fill-rule="evenodd"/></svg>