<svg xmlns="http://www.w3.org/2000/svg" xmlns:xlink="http://www.w3.org/1999/xlink" version="1.1" x="0px" y="0px" viewBox="0 0 100 125" enable-background="new 0 0 100 100" xml:space="preserve"><g><g><path fill="#000000" d="M65.145,93.256H35.901c-0.221,0-0.44-0.05-0.639-0.146c-8.995-4.344-15.737-12.332-18.498-21.916    c-0.128-0.444-0.04-0.922,0.238-1.291c0.277-0.369,0.712-0.586,1.174-0.586h64.692c0.462,0,0.896,0.217,1.175,0.586    c0.277,0.369,0.365,0.847,0.237,1.291c-2.762,9.585-9.504,17.573-18.497,21.916C65.584,93.206,65.366,93.256,65.145,93.256z     M36.242,90.316h28.563c7.501-3.719,13.256-10.22,16.048-18.061h-60.66C22.984,80.096,28.739,86.597,36.242,90.316z"/></g><g><path fill="#000000" d="M65.816,84.847c-0.445,0-0.885-0.201-1.174-0.584c-0.489-0.647-0.36-1.569,0.287-2.059    c4.075-3.077,7.4-7.127,9.618-11.712c0.354-0.732,1.234-1.035,1.963-0.684c0.731,0.354,1.037,1.232,0.684,1.963    c-2.419,5.003-6.048,9.422-10.493,12.778C66.437,84.75,66.125,84.847,65.816,84.847z"/></g></g><g><path fill="#000000" d="M24.839,71.589c-0.376,0-0.752-0.144-1.04-0.431L12.757,60.116c-0.574-0.573-0.574-1.505,0-2.078   c0.574-0.574,1.505-0.574,2.079,0L25.878,69.08c0.574,0.573,0.574,1.505,0,2.078C25.591,71.445,25.215,71.589,24.839,71.589z"/></g><g><path fill="#000000" d="M32.839,71.589c-0.376,0-0.752-0.144-1.04-0.431L20.757,60.116c-0.574-0.573-0.574-1.505,0-2.078   c0.574-0.574,1.505-0.574,2.079,0L33.878,69.08c0.574,0.573,0.574,1.505,0,2.078C33.591,71.445,33.215,71.589,32.839,71.589z"/></g><g><path fill="#000000" d="M40.181,57.492c-0.299,0-0.601-0.091-0.861-0.279c-1.935-1.402-3.09-3.664-3.09-6.052   c0-2.369,1.141-4.622,3.053-6.025c0.654-0.48,1.574-0.339,2.055,0.314c0.48,0.654,0.34,1.574-0.314,2.055   c-1.178,0.865-1.854,2.197-1.854,3.656c0,1.448,0.701,2.82,1.875,3.671c0.657,0.477,0.805,1.396,0.328,2.053   C41.084,57.282,40.636,57.492,40.181,57.492z"/></g><g><path fill="#000000" d="M57.472,57.492c-0.299,0-0.601-0.091-0.861-0.279c-1.935-1.402-3.09-3.664-3.09-6.052   c0-2.369,1.141-4.622,3.053-6.025c0.654-0.48,1.574-0.339,2.055,0.314c0.48,0.654,0.34,1.574-0.314,2.055   c-1.178,0.865-1.854,2.197-1.854,3.656c0,1.448,0.701,2.82,1.875,3.671c0.657,0.477,0.805,1.396,0.328,2.053   C58.375,57.282,57.927,57.492,57.472,57.492z"/></g><g><path fill="#000000" d="M40.729,47.325c-0.452,0-0.897-0.207-1.186-0.6c-0.48-0.654-0.34-1.574,0.314-2.055   c1.178-0.865,1.854-2.197,1.854-3.656c0-1.448-0.701-2.82-1.875-3.671c-0.657-0.477-0.805-1.396-0.328-2.053   s1.395-0.805,2.053-0.328c1.935,1.402,3.09,3.665,3.09,6.052c0,2.369-1.141,4.622-3.053,6.025   C41.337,47.232,41.031,47.325,40.729,47.325z"/></g><g><path fill="#000000" d="M31.394,57.492c-0.299,0-0.601-0.091-0.861-0.279c-1.935-1.402-3.09-3.664-3.09-6.052   c0-2.369,1.141-4.622,3.053-6.025c0.654-0.48,1.575-0.339,2.055,0.314c0.48,0.654,0.34,1.574-0.314,2.055   c-1.178,0.865-1.854,2.197-1.854,3.656c0,1.448,0.701,2.82,1.875,3.671c0.657,0.477,0.805,1.396,0.328,2.053   C32.297,57.282,31.849,57.492,31.394,57.492z"/></g><g><path fill="#000000" d="M31.942,47.325c-0.452,0-0.897-0.207-1.186-0.6c-0.48-0.654-0.34-1.574,0.314-2.055   c1.178-0.865,1.854-2.197,1.854-3.656c0-1.448-0.701-2.82-1.875-3.671c-0.657-0.477-0.805-1.396-0.328-2.053   s1.395-0.805,2.053-0.328c1.935,1.402,3.09,3.665,3.09,6.052c0,2.369-1.141,4.622-3.053,6.025   C32.55,47.232,32.244,47.325,31.942,47.325z"/></g><g><path fill="#000000" d="M65.69,57.492c-0.299,0-0.601-0.091-0.861-0.279c-1.935-1.402-3.09-3.664-3.09-6.052   c0-2.368,1.142-4.621,3.055-6.025c0.657-0.48,1.575-0.339,2.055,0.314c0.48,0.654,0.34,1.574-0.314,2.055   c-1.179,0.866-1.855,2.198-1.855,3.656c0,1.448,0.701,2.82,1.875,3.671c0.657,0.477,0.805,1.396,0.328,2.053   C66.594,57.282,66.146,57.492,65.69,57.492z"/></g><g><path fill="#000000" d="M66.239,47.325c-0.452,0-0.897-0.207-1.186-0.6c-0.48-0.654-0.34-1.574,0.314-2.055   c1.179-0.866,1.855-2.198,1.855-3.656c0-1.448-0.701-2.82-1.877-3.67c-0.657-0.476-0.805-1.395-0.328-2.053   c0.476-0.659,1.395-0.805,2.053-0.329c1.936,1.401,3.092,3.664,3.092,6.052c0,2.368-1.142,4.621-3.055,6.025   C66.846,47.232,66.541,47.325,66.239,47.325z"/></g><g><path fill="#000000" d="M40.181,37.326c-0.299,0-0.601-0.091-0.861-0.28c-1.935-1.402-3.09-3.665-3.09-6.052   c0-2.37,1.141-4.622,3.053-6.026c0.654-0.479,1.574-0.338,2.055,0.315c0.48,0.654,0.34,1.575-0.314,2.055   c-1.178,0.865-1.854,2.197-1.854,3.656c0,1.448,0.701,2.82,1.875,3.671c0.657,0.477,0.805,1.396,0.328,2.053   C41.084,37.115,40.636,37.326,40.181,37.326z"/></g><g><path fill="#000000" d="M48.556,57.492c-0.299,0-0.601-0.091-0.861-0.279c-1.935-1.402-3.09-3.664-3.09-6.052   c0-2.369,1.141-4.622,3.053-6.025c0.654-0.48,1.574-0.339,2.055,0.314c0.48,0.654,0.34,1.574-0.314,2.055   c-1.178,0.865-1.854,2.197-1.854,3.656c0,1.448,0.701,2.82,1.875,3.671c0.657,0.477,0.805,1.396,0.328,2.053   C49.459,57.282,49.011,57.492,48.556,57.492z"/></g><g><path fill="#000000" d="M49.104,47.325c-0.452,0-0.897-0.207-1.186-0.6c-0.48-0.654-0.34-1.574,0.314-2.055   c1.178-0.865,1.854-2.197,1.854-3.656c0-1.448-0.701-2.82-1.875-3.671c-0.657-0.477-0.805-1.396-0.328-2.053   s1.394-0.805,2.053-0.328c1.935,1.402,3.09,3.665,3.09,6.052c0,2.369-1.141,4.622-3.053,6.025   C49.712,47.232,49.406,47.325,49.104,47.325z"/></g><g><path fill="#000000" d="M48.556,37.326c-0.299,0-0.601-0.091-0.861-0.28c-1.935-1.402-3.09-3.665-3.09-6.052   c0-2.37,1.141-4.622,3.053-6.026c0.654-0.479,1.574-0.338,2.055,0.315c0.48,0.654,0.34,1.575-0.314,2.055   c-1.178,0.865-1.854,2.197-1.854,3.656c0,1.448,0.701,2.82,1.875,3.671c0.657,0.477,0.805,1.396,0.328,2.053   C49.459,37.115,49.011,37.326,48.556,37.326z"/></g><g><path fill="#000000" d="M40.729,27.159c-0.452,0-0.897-0.208-1.186-0.6c-0.48-0.654-0.34-1.575,0.314-2.055   c1.178-0.865,1.854-2.197,1.854-3.656c0-1.448-0.701-2.82-1.875-3.671c-0.657-0.477-0.805-1.396-0.328-2.053   c0.477-0.657,1.395-0.805,2.053-0.328c1.935,1.402,3.09,3.665,3.09,6.052c0,2.37-1.141,4.622-3.053,6.026   C41.337,27.066,41.031,27.159,40.729,27.159z"/></g><g><path fill="#000000" d="M56.499,37.326c-0.299,0-0.601-0.091-0.861-0.279c-1.936-1.401-3.092-3.664-3.092-6.052   c0-2.369,1.142-4.621,3.055-6.026c0.656-0.479,1.575-0.338,2.055,0.315c0.48,0.654,0.34,1.575-0.314,2.055   c-1.179,0.865-1.855,2.198-1.855,3.656c0,1.448,0.701,2.82,1.877,3.67c0.657,0.476,0.805,1.395,0.328,2.053   C57.403,37.115,56.954,37.326,56.499,37.326z"/></g><g><path fill="#000000" d="M57.046,27.159c-0.452,0-0.897-0.208-1.186-0.6c-0.48-0.654-0.34-1.575,0.314-2.055   c1.179-0.865,1.855-2.198,1.855-3.656c0-1.448-0.701-2.82-1.877-3.67c-0.657-0.476-0.805-1.395-0.328-2.053   c0.476-0.659,1.395-0.805,2.053-0.329c1.936,1.401,3.092,3.664,3.092,6.052c0,2.369-1.142,4.621-3.055,6.026   C57.652,27.066,57.348,27.159,57.046,27.159z"/></g><text x="0" y="115" fill="#000000" font-size="5px" font-weight="bold" font-family="'Helvetica Neue', Helvetica, Arial-Unicode, Arial, Sans-serif">Created by Oriane Juster</text><text x="0" y="120" fill="#000000" font-size="5px" font-weight="bold" font-family="'Helvetica Neue', Helvetica, Arial-Unicode, Arial, Sans-serif">from the Noun Project</text></svg>