<?xml version="1.0" encoding="UTF-8" standalone="no"?>
<svg width="73px" height="80px" viewBox="0 0 73 80" version="1.1" xmlns="http://www.w3.org/2000/svg" xmlns:xlink="http://www.w3.org/1999/xlink">
    <!-- Generator: Sketch 3.6.1 (26313) - http://www.bohemiancoding.com/sketch -->
    <title>Untitled 3</title>
    <desc>Created with Sketch.</desc>
    <defs></defs>
    <g id="Page-1" stroke="none" stroke-width="1" fill="none" fill-rule="evenodd">
        <g id="bowl_thai" fill="#000000">
            <g id="Group" transform="translate(4.000000, 55.000000)">
                <path d="M49.145,24.256 L19.901,24.256 C19.68,24.256 19.461,24.206 19.262,24.11 C10.267,19.766 3.525,11.778 0.764,2.194 C0.636,1.75 0.724,1.272 1.002,0.903 C1.279,0.534 1.714,0.317 2.176,0.317 L66.868,0.317 C67.33,0.317 67.764,0.534 68.043,0.903 C68.32,1.272 68.408,1.75 68.28,2.194 C65.518,11.779 58.776,19.767 49.783,24.11 C49.584,24.206 49.366,24.256 49.145,24.256 L49.145,24.256 Z M20.242,21.316 L48.805,21.316 C56.306,17.597 62.061,11.096 64.853,3.255 L4.193,3.255 C6.984,11.096 12.739,17.597 20.242,21.316 L20.242,21.316 Z" id="Shape"></path>
                <path d="M49.816,15.847 C49.371,15.847 48.931,15.646 48.642,15.263 C48.153,14.616 48.282,13.694 48.929,13.204 C53.004,10.127 56.329,6.077 58.547,1.492 C58.901,0.76 59.781,0.457 60.51,0.808 C61.241,1.162 61.547,2.04 61.194,2.771 C58.775,7.774 55.146,12.193 50.701,15.549 C50.437,15.75 50.125,15.847 49.816,15.847 L49.816,15.847 Z" id="Shape"></path>
            </g>
            <path d="M12.839,57.589 C12.463,57.589 12.087,57.445 11.799,57.158 L0.757,46.116 C0.183,45.543 0.183,44.611 0.757,44.038 C1.331,43.464 2.262,43.464 2.836,44.038 L13.878,55.08 C14.452,55.653 14.452,56.585 13.878,57.158 C13.591,57.445 13.215,57.589 12.839,57.589 L12.839,57.589 Z" id="Shape"></path>
            <path d="M20.839,57.589 C20.463,57.589 20.087,57.445 19.799,57.158 L8.757,46.116 C8.183,45.543 8.183,44.611 8.757,44.038 C9.331,43.464 10.262,43.464 10.836,44.038 L21.878,55.08 C22.452,55.653 22.452,56.585 21.878,57.158 C21.591,57.445 21.215,57.589 20.839,57.589 L20.839,57.589 Z" id="Shape"></path>
            <path d="M28.181,43.492 C27.882,43.492 27.58,43.401 27.32,43.213 C25.385,41.811 24.23,39.549 24.23,37.161 C24.23,34.792 25.371,32.539 27.283,31.136 C27.937,30.656 28.857,30.797 29.338,31.45 C29.818,32.104 29.678,33.024 29.024,33.505 C27.846,34.37 27.17,35.702 27.17,37.161 C27.17,38.609 27.871,39.981 29.045,40.832 C29.702,41.309 29.85,42.228 29.373,42.885 C29.084,43.282 28.636,43.492 28.181,43.492 L28.181,43.492 Z" id="Shape"></path>
            <path d="M45.472,43.492 C45.173,43.492 44.871,43.401 44.611,43.213 C42.676,41.811 41.521,39.549 41.521,37.161 C41.521,34.792 42.662,32.539 44.574,31.136 C45.228,30.656 46.148,30.797 46.629,31.45 C47.109,32.104 46.969,33.024 46.315,33.505 C45.137,34.37 44.461,35.702 44.461,37.161 C44.461,38.609 45.162,39.981 46.336,40.832 C46.993,41.309 47.141,42.228 46.664,42.885 C46.375,43.282 45.927,43.492 45.472,43.492 L45.472,43.492 Z" id="Shape"></path>
            <path d="M28.729,33.325 C28.277,33.325 27.832,33.118 27.543,32.725 C27.063,32.071 27.203,31.151 27.857,30.67 C29.035,29.805 29.711,28.473 29.711,27.014 C29.711,25.566 29.01,24.194 27.836,23.343 C27.179,22.866 27.031,21.947 27.508,21.29 C27.985,20.633 28.903,20.485 29.561,20.962 C31.496,22.364 32.651,24.627 32.651,27.014 C32.651,29.383 31.51,31.636 29.598,33.039 C29.337,33.232 29.031,33.325 28.729,33.325 L28.729,33.325 Z" id="Shape"></path>
            <path d="M19.394,43.492 C19.095,43.492 18.793,43.401 18.533,43.213 C16.598,41.811 15.443,39.549 15.443,37.161 C15.443,34.792 16.584,32.539 18.496,31.136 C19.15,30.656 20.071,30.797 20.551,31.45 C21.031,32.104 20.891,33.024 20.237,33.505 C19.059,34.37 18.383,35.702 18.383,37.161 C18.383,38.609 19.084,39.981 20.258,40.832 C20.915,41.309 21.063,42.228 20.586,42.885 C20.297,43.282 19.849,43.492 19.394,43.492 L19.394,43.492 Z" id="Shape"></path>
            <path d="M19.942,33.325 C19.49,33.325 19.045,33.118 18.756,32.725 C18.276,32.071 18.416,31.151 19.07,30.67 C20.248,29.805 20.924,28.473 20.924,27.014 C20.924,25.566 20.223,24.194 19.049,23.343 C18.392,22.866 18.244,21.947 18.721,21.29 C19.198,20.633 20.116,20.485 20.774,20.962 C22.709,22.364 23.864,24.627 23.864,27.014 C23.864,29.383 22.723,31.636 20.811,33.039 C20.55,33.232 20.244,33.325 19.942,33.325 L19.942,33.325 Z" id="Shape"></path>
            <path d="M53.69,43.492 C53.391,43.492 53.089,43.401 52.829,43.213 C50.894,41.811 49.739,39.549 49.739,37.161 C49.739,34.793 50.881,32.54 52.794,31.136 C53.451,30.656 54.369,30.797 54.849,31.45 C55.329,32.104 55.189,33.024 54.535,33.505 C53.356,34.371 52.68,35.703 52.68,37.161 C52.68,38.609 53.381,39.981 54.555,40.832 C55.212,41.309 55.36,42.228 54.883,42.885 C54.594,43.282 54.146,43.492 53.69,43.492 L53.69,43.492 Z" id="Shape"></path>
            <path d="M54.239,33.325 C53.787,33.325 53.342,33.118 53.053,32.725 C52.573,32.071 52.713,31.151 53.367,30.67 C54.546,29.804 55.222,28.472 55.222,27.014 C55.222,25.566 54.521,24.194 53.345,23.344 C52.688,22.868 52.54,21.949 53.017,21.291 C53.493,20.632 54.412,20.486 55.07,20.962 C57.006,22.363 58.162,24.626 58.162,27.014 C58.162,29.382 57.02,31.635 55.107,33.039 C54.846,33.232 54.541,33.325 54.239,33.325 L54.239,33.325 Z" id="Shape"></path>
            <path d="M28.181,23.326 C27.882,23.326 27.58,23.235 27.32,23.046 C25.385,21.644 24.23,19.381 24.23,16.994 C24.23,14.624 25.371,12.372 27.283,10.968 C27.937,10.489 28.857,10.63 29.338,11.283 C29.818,11.937 29.678,12.858 29.024,13.338 C27.846,14.203 27.17,15.535 27.17,16.994 C27.17,18.442 27.871,19.814 29.045,20.665 C29.702,21.142 29.85,22.061 29.373,22.718 C29.084,23.115 28.636,23.326 28.181,23.326 L28.181,23.326 Z" id="Shape"></path>
            <path d="M36.556,43.492 C36.257,43.492 35.955,43.401 35.695,43.213 C33.76,41.811 32.605,39.549 32.605,37.161 C32.605,34.792 33.746,32.539 35.658,31.136 C36.312,30.656 37.232,30.797 37.713,31.45 C38.193,32.104 38.053,33.024 37.399,33.505 C36.221,34.37 35.545,35.702 35.545,37.161 C35.545,38.609 36.246,39.981 37.42,40.832 C38.077,41.309 38.225,42.228 37.748,42.885 C37.459,43.282 37.011,43.492 36.556,43.492 L36.556,43.492 Z" id="Shape"></path>
            <path d="M37.104,33.325 C36.652,33.325 36.207,33.118 35.918,32.725 C35.438,32.071 35.578,31.151 36.232,30.67 C37.41,29.805 38.086,28.473 38.086,27.014 C38.086,25.566 37.385,24.194 36.211,23.343 C35.554,22.866 35.406,21.947 35.883,21.29 C36.36,20.633 37.277,20.485 37.936,20.962 C39.871,22.364 41.026,24.627 41.026,27.014 C41.026,29.383 39.885,31.636 37.973,33.039 C37.712,33.232 37.406,33.325 37.104,33.325 L37.104,33.325 Z" id="Shape"></path>
            <path d="M36.556,23.326 C36.257,23.326 35.955,23.235 35.695,23.046 C33.76,21.644 32.605,19.381 32.605,16.994 C32.605,14.624 33.746,12.372 35.658,10.968 C36.312,10.489 37.232,10.63 37.713,11.283 C38.193,11.937 38.053,12.858 37.399,13.338 C36.221,14.203 35.545,15.535 35.545,16.994 C35.545,18.442 36.246,19.814 37.42,20.665 C38.077,21.142 38.225,22.061 37.748,22.718 C37.459,23.115 37.011,23.326 36.556,23.326 L36.556,23.326 Z" id="Shape"></path>
            <path d="M28.729,13.159 C28.277,13.159 27.832,12.951 27.543,12.559 C27.063,11.905 27.203,10.984 27.857,10.504 C29.035,9.639 29.711,8.307 29.711,6.848 C29.711,5.4 29.01,4.028 27.836,3.177 C27.179,2.7 27.031,1.781 27.508,1.124 C27.985,0.467 28.903,0.319 29.561,0.796 C31.496,2.198 32.651,4.461 32.651,6.848 C32.651,9.218 31.51,11.47 29.598,12.874 C29.337,13.066 29.031,13.159 28.729,13.159 L28.729,13.159 Z" id="Shape"></path>
            <path d="M44.499,23.326 C44.2,23.326 43.898,23.235 43.638,23.047 C41.702,21.646 40.546,19.383 40.546,16.995 C40.546,14.626 41.688,12.374 43.601,10.969 C44.257,10.49 45.176,10.631 45.656,11.284 C46.136,11.938 45.996,12.859 45.342,13.339 C44.163,14.204 43.487,15.537 43.487,16.995 C43.487,18.443 44.188,19.815 45.364,20.665 C46.021,21.141 46.169,22.06 45.692,22.718 C45.403,23.115 44.954,23.326 44.499,23.326 L44.499,23.326 Z" id="Shape"></path>
            <path d="M45.046,13.159 C44.594,13.159 44.149,12.951 43.86,12.559 C43.38,11.905 43.52,10.984 44.174,10.504 C45.353,9.639 46.029,8.306 46.029,6.848 C46.029,5.4 45.328,4.028 44.152,3.178 C43.495,2.702 43.347,1.783 43.824,1.125 C44.3,0.466 45.219,0.32 45.877,0.796 C47.813,2.197 48.969,4.46 48.969,6.848 C48.969,9.217 47.827,11.469 45.914,12.874 C45.652,13.066 45.348,13.159 45.046,13.159 L45.046,13.159 Z" id="Shape"></path>
        </g>
    </g>
</svg>