<?xml version="1.0" encoding="UTF-8" standalone="no"?>
<svg width="84px" height="70px" viewBox="0 0 84 70" version="1.1" xmlns="http://www.w3.org/2000/svg" xmlns:xlink="http://www.w3.org/1999/xlink">
    <!-- Generator: Sketch 3.6.1 (26313) - http://www.bohemiancoding.com/sketch -->
    <title>Untitled 4</title>
    <desc>Created with Sketch.</desc>
    <defs></defs>
    <g id="Page-1" stroke="none" stroke-width="1" fill="none" fill-rule="evenodd">
        <g id="castle_thai" fill="#000000">
            <path d="M13.041,35.5 C13.041,35.721 12.861,35.9 12.641,35.9 L11.912,35.9 L11.912,36.629 C11.912,36.85 11.732,37.029 11.512,37.029 C11.292,37.029 11.112,36.849 11.112,36.629 L11.112,35.9 L10.383,35.9 C10.162,35.9 9.983,35.72 9.983,35.5 C9.983,35.28 10.163,35.1 10.383,35.1 L11.112,35.1 L11.112,34.371 C11.112,34.15 11.292,33.971 11.512,33.971 C11.732,33.971 11.912,34.151 11.912,34.371 L11.912,35.1 L12.641,35.1 C12.861,35.1 13.041,35.279 13.041,35.5 L13.041,35.5 Z M19.416,35.1 L18.687,35.1 L18.687,34.371 C18.687,34.15 18.507,33.971 18.287,33.971 C18.067,33.971 17.887,34.151 17.887,34.371 L17.887,35.1 L17.158,35.1 C16.937,35.1 16.758,35.28 16.758,35.5 C16.758,35.72 16.938,35.9 17.158,35.9 L17.887,35.9 L17.887,36.629 C17.887,36.85 18.067,37.029 18.287,37.029 C18.507,37.029 18.687,36.849 18.687,36.629 L18.687,35.9 L19.416,35.9 C19.637,35.9 19.816,35.72 19.816,35.5 C19.816,35.28 19.637,35.1 19.416,35.1 L19.416,35.1 Z M18.687,46.416 L18.687,53.944 L18.687,55.449 C18.687,55.67 18.507,55.849 18.287,55.849 L14.146,55.849 C13.925,55.849 13.746,55.669 13.746,55.449 L13.746,53.944 L13.746,46.416 C13.746,46.195 13.926,46.016 14.146,46.016 L18.287,46.016 C18.508,46.016 18.687,46.195 18.687,46.416 L18.687,46.416 Z M17.887,54.345 L14.547,54.345 L14.547,55.049 L17.887,55.049 L17.887,54.345 L17.887,54.345 Z M17.887,53.544 L17.887,46.816 L14.547,46.816 L14.547,53.544 L17.887,53.544 L17.887,53.544 Z M83.805,31.359 L83.805,32.865 L83.805,38.135 L83.805,46.416 L83.805,47.922 L83.805,49.427 L83.805,50.933 L83.805,67.495 L83.805,69 C83.805,69.221 83.625,69.4 83.405,69.4 L74.37,69.4 L63.078,69.4 L60.82,69.4 L60.067,69.4 L55.173,69.4 L52.538,69.4 L50.28,69.4 C50.059,69.4 49.88,69.22 49.88,69 L49.88,42.3 L34.119,42.3 L34.119,69 C34.119,69.221 33.939,69.4 33.719,69.4 L31.461,69.4 L28.826,69.4 L23.932,69.4 L23.18,69.4 L20.922,69.4 L9.63,69.4 L0.596,69.4 C0.375,69.4 0.196,69.22 0.196,69 L0.196,67.494 L0.196,50.933 L0.196,49.427 L0.196,47.922 L0.196,46.416 L0.196,38.135 L0.196,32.865 L0.196,31.359 C0.196,31.138 0.376,30.959 0.596,30.959 L1.079,30.959 L1.681,29.452 L0.962,26.758 C0.935,26.655 0.949,26.547 1.001,26.456 L1.754,25.139 C1.825,25.014 1.958,24.937 2.102,24.937 L2.585,24.937 L3.989,21.425 C4.109,21.12 4.609,21.119 4.731,21.425 L6.136,24.937 L6.619,24.937 C6.763,24.937 6.895,25.014 6.967,25.139 L7.72,26.456 C7.772,26.547 7.786,26.655 7.759,26.758 L7.04,29.452 L7.642,30.959 L7.959,30.959 L9.094,29.826 C8.836,29.465 8.478,28.81 8.478,27.972 C8.478,25.826 10.907,24.993 11.009,24.957 C11.091,24.93 11.179,24.93 11.263,24.957 C11.366,24.992 13.795,25.826 13.795,27.972 C13.795,28.811 13.437,29.465 13.179,29.826 L14.314,30.959 L14.735,30.959 L15.87,29.826 C15.612,29.465 15.254,28.81 15.254,27.972 C15.254,25.826 17.683,24.993 17.785,24.957 C17.867,24.93 17.955,24.93 18.039,24.957 C18.142,24.992 20.571,25.826 20.571,27.972 C20.571,28.811 20.213,29.465 19.955,29.826 L21.09,30.959 L21.731,30.959 L22.016,21.974 L21.676,21.974 C21.455,21.974 21.276,21.794 21.276,21.574 L21.276,20.068 C21.276,19.847 21.456,19.668 21.676,19.668 L22.029,19.668 L22.029,18.964 L21.676,18.964 C21.455,18.964 21.276,18.784 21.276,18.564 L21.276,16.305 C21.276,16.084 21.456,15.905 21.676,15.905 L22.029,15.905 L22.029,14.8 C22.029,14.579 22.209,14.4 22.429,14.4 L22.782,14.4 L22.782,13.295 C22.782,13.074 22.962,12.895 23.182,12.895 L23.474,12.895 L22.786,8.083 C22.785,8.075 22.788,8.067 22.788,8.059 C22.787,8.048 22.781,8.038 22.781,8.027 L22.781,6.522 C22.781,6.301 22.961,6.122 23.181,6.122 L24.424,6.122 L26.579,1.096 C26.641,0.949 26.786,0.853 26.946,0.853 C27.106,0.853 27.251,0.949 27.313,1.096 L29.467,6.122 L30.709,6.122 C30.93,6.122 31.109,6.302 31.109,6.522 L31.109,8.027 C31.109,8.038 31.103,8.048 31.102,8.06 C31.101,8.068 31.105,8.076 31.104,8.084 L30.416,12.896 L30.708,12.896 C30.929,12.896 31.108,13.076 31.108,13.296 L31.108,14.401 L31.295,14.401 L32.429,13.267 C32.172,12.907 31.814,12.252 31.814,11.413 C31.814,9.267 34.243,8.434 34.345,8.398 C34.427,8.371 34.515,8.371 34.599,8.398 C34.702,8.433 37.131,9.267 37.131,11.413 C37.131,12.252 36.773,12.906 36.515,13.267 L37.649,14.401 L38.823,14.401 L39.958,13.267 C39.7,12.907 39.342,12.252 39.342,11.413 C39.342,9.267 41.772,8.434 41.874,8.398 C41.958,8.371 42.044,8.371 42.128,8.398 C42.231,8.433 44.66,9.267 44.66,11.413 C44.66,12.252 44.302,12.906 44.044,13.267 L45.177,14.401 L46.352,14.401 L47.487,13.267 C47.229,12.907 46.871,12.252 46.871,11.413 C46.871,9.267 49.301,8.434 49.403,8.398 C49.487,8.371 49.575,8.371 49.657,8.398 C49.76,8.433 52.188,9.267 52.188,11.413 C52.188,12.252 51.83,12.906 51.572,13.267 L52.706,14.401 L53.646,14.401 L53.646,13.296 C53.646,13.075 53.826,12.896 54.046,12.896 L54.338,12.896 L53.65,8.084 C53.649,8.076 53.652,8.068 53.652,8.06 C53.651,8.049 53.645,8.039 53.645,8.028 L53.645,6.523 C53.645,6.302 53.825,6.123 54.045,6.123 L55.288,6.123 L57.442,1.097 C57.567,0.802 58.051,0.802 58.176,1.097 L60.331,6.123 L61.573,6.123 C61.794,6.123 61.973,6.303 61.973,6.523 L61.973,8.028 C61.973,8.039 61.967,8.049 61.966,8.061 C61.965,8.069 61.969,8.077 61.968,8.085 L61.28,12.897 L61.572,12.897 C61.793,12.897 61.972,13.077 61.972,13.297 L61.972,14.803 L61.972,15.908 L62.324,15.908 C62.545,15.908 62.724,16.088 62.724,16.308 L62.724,18.567 C62.724,18.788 62.544,18.967 62.324,18.967 L61.972,18.967 L61.972,19.671 L62.324,19.671 C62.545,19.671 62.724,19.851 62.724,20.071 L62.724,21.577 C62.724,21.798 62.544,21.977 62.324,21.977 L61.985,21.977 L62.27,30.962 L62.911,30.962 L64.046,29.829 C63.788,29.468 63.43,28.813 63.43,27.975 C63.43,25.829 65.86,24.996 65.962,24.96 C66.046,24.933 66.134,24.933 66.216,24.96 C66.319,24.995 68.747,25.829 68.747,27.975 C68.747,28.814 68.389,29.468 68.131,29.829 L69.265,30.962 L69.687,30.962 L70.822,29.829 C70.564,29.468 70.206,28.813 70.206,27.975 C70.206,25.829 72.636,24.996 72.738,24.96 C72.822,24.933 72.91,24.933 72.992,24.96 C73.095,24.995 75.523,25.829 75.523,27.975 C75.523,28.814 75.165,29.468 74.907,29.829 L76.041,30.962 L76.359,30.962 L76.961,29.455 L76.242,26.761 C76.215,26.658 76.229,26.55 76.281,26.459 L77.034,25.142 C77.105,25.017 77.238,24.94 77.382,24.94 L77.865,24.94 L79.27,21.428 C79.331,21.276 79.478,21.176 79.641,21.176 C79.805,21.176 79.952,21.276 80.012,21.428 L81.416,24.94 L81.898,24.94 C82.042,24.94 82.174,25.017 82.246,25.142 L82.999,26.459 C83.051,26.55 83.065,26.658 83.038,26.761 L82.319,29.455 L82.922,30.962 L83.404,30.962 C83.625,30.959 83.805,31.139 83.805,31.359 L83.805,31.359 Z M83.004,48.322 L77.656,48.322 L77.609,49.026 L83.004,49.026 L83.004,48.322 L83.004,48.322 Z M83.004,38.535 L82.299,38.535 L82.299,40.287 L82.999,41.512 C83.002,41.517 83.001,41.522 83.004,41.527 L83.004,38.535 L83.004,38.535 Z M79.992,42.817 L79.64,42.464 L79.287,42.817 L79.287,46.015 L79.991,46.015 L79.991,42.817 L79.992,42.817 Z M80.793,42.651 L80.793,46.015 L81.498,46.015 L82.06,46.015 L81.527,44.682 C81.495,44.602 81.489,44.514 81.511,44.43 L82.222,41.766 L81.665,40.793 L81.164,40.793 L81.144,40.793 L78.133,40.793 L77.612,40.793 L77.055,41.766 L77.766,44.43 C77.788,44.514 77.783,44.602 77.75,44.682 L77.217,46.015 L77.779,46.015 L78.484,46.015 L78.484,42.651 C78.484,42.545 78.527,42.443 78.602,42.368 L79.355,41.616 C79.511,41.46 79.764,41.46 79.92,41.616 L80.672,42.368 C80.75,42.443 80.793,42.545 80.793,42.651 L80.793,42.651 Z M76.276,46.016 L76.358,46.016 L76.96,44.509 L76.275,41.943 L76.275,46.016 L76.276,46.016 Z M80.273,39.288 L79.008,39.288 L78.726,39.993 L80.555,39.993 L80.273,39.288 L80.273,39.288 Z M81.498,38.535 L80.833,38.535 L81.416,39.993 L81.498,39.993 L81.498,38.535 L81.498,38.535 Z M79.953,38.487 L79.641,37.707 L79.329,38.487 L79.953,38.487 L79.953,38.487 Z M78.448,38.535 L77.782,38.535 L77.782,39.993 L77.864,39.993 L78.448,38.535 L78.448,38.535 Z M76.981,38.535 L76.276,38.535 L76.276,39.64 L76.276,41.527 C76.278,41.522 76.278,41.517 76.281,41.512 L76.981,40.287 L76.981,38.535 L76.981,38.535 Z M75.523,47.521 L83.003,47.521 L83.003,46.816 L82.67,46.816 L82.65,46.816 L81.897,46.816 L80.391,46.816 L78.886,46.816 L77.38,46.816 L76.627,46.816 L76.25,46.816 L75.876,46.816 L75.523,46.816 L75.523,47.521 L75.523,47.521 Z M76.103,49.026 L76.807,49.026 L76.854,48.322 L76.15,48.322 L76.103,49.026 L76.103,49.026 Z M83.004,46.016 L83.004,41.943 L82.319,44.509 L82.922,46.016 L83.004,46.016 L83.004,46.016 Z M83.004,33.266 L62.344,33.266 L62.486,37.735 L75.876,37.735 L77.382,37.735 L78.768,37.735 L79.269,36.482 C79.33,36.33 79.477,36.23 79.64,36.23 C79.804,36.23 79.951,36.33 80.011,36.482 L80.512,37.735 L81.898,37.735 L83.003,37.735 L83.003,33.266 L83.004,33.266 Z M62.511,38.535 L62.533,39.24 L75.475,39.24 L75.475,38.535 L62.511,38.535 L62.511,38.535 Z M62.559,40.041 L63.37,65.588 L74.197,65.588 L75.147,51.333 L75.123,51.333 C74.902,51.333 74.723,51.153 74.723,50.933 L74.723,49.427 C74.723,49.206 74.903,49.027 75.123,49.027 L75.301,49.027 L75.348,48.323 L75.123,48.323 C74.902,48.323 74.723,48.143 74.723,47.923 L74.723,46.417 C74.723,46.196 74.903,46.017 75.123,46.017 L75.476,46.017 L75.476,40.042 L62.559,40.042 L62.559,40.041 Z M63.417,67.094 L74.096,67.094 L74.143,66.389 L63.395,66.389 L63.417,67.094 L63.417,67.094 Z M74.971,66.015 L74.899,67.094 L75.602,67.094 L76.653,51.333 L75.949,51.333 L74.97,66.012 C74.97,66.013 74.971,66.014 74.971,66.015 L74.971,66.015 Z M83.004,50.532 L83.004,49.827 L75.524,49.827 L75.524,50.532 L83.004,50.532 L83.004,50.532 Z M78.726,24.937 L80.555,24.937 L80.274,24.233 L79.008,24.233 L78.726,24.937 L78.726,24.937 Z M79.328,23.432 L79.953,23.432 L79.641,22.651 L79.328,23.432 L79.328,23.432 Z M77.058,26.71 L77.769,29.374 C77.791,29.458 77.786,29.546 77.753,29.626 L77.22,30.959 L78.488,30.959 L78.488,27.596 C78.488,27.49 78.531,27.388 78.605,27.313 L79.358,26.56 C79.514,26.404 79.768,26.404 79.924,26.56 L80.677,27.313 C80.751,27.388 80.794,27.49 80.794,27.596 L80.794,30.959 L82.061,30.959 L81.528,29.626 C81.496,29.546 81.49,29.458 81.512,29.374 L82.223,26.71 L81.666,25.737 L81.165,25.737 L81.145,25.737 L78.134,25.737 L77.613,25.737 L77.058,26.71 L77.058,26.71 Z M79.641,27.408 L79.288,27.762 L79.288,30.959 L79.993,30.959 L79.993,27.762 L79.641,27.408 L79.641,27.408 Z M70.819,30.959 L74.91,30.959 L74.087,30.138 C73.932,29.983 73.933,29.73 74.086,29.574 C74.093,29.567 74.723,28.914 74.723,27.972 C74.723,26.641 73.304,25.948 72.866,25.766 C72.428,25.948 71.008,26.641 71.008,27.972 C71.008,28.925 71.637,29.566 71.644,29.572 C71.718,29.647 71.761,29.749 71.761,29.855 C71.761,29.961 71.718,30.063 71.644,30.138 L70.819,30.959 L70.819,30.959 Z M64.044,30.959 L68.135,30.959 L67.312,30.138 C67.157,29.983 67.158,29.73 67.311,29.574 C67.318,29.567 67.948,28.914 67.948,27.972 C67.948,26.641 66.529,25.948 66.091,25.766 C65.653,25.948 64.233,26.641 64.233,27.972 C64.233,28.925 64.862,29.566 64.869,29.572 C64.943,29.647 64.986,29.749 64.986,29.855 C64.986,29.961 64.943,30.063 64.869,30.138 L64.044,30.959 L64.044,30.959 Z M62.296,31.76 L62.318,32.465 L83.003,32.465 L83.003,31.76 L82.67,31.76 L82.65,31.76 L80.392,31.76 L78.886,31.76 L76.627,31.76 L75.894,31.76 L75.874,31.76 L69.852,31.76 L69.12,31.76 L69.1,31.76 L63.078,31.76 L62.296,31.76 L62.296,31.76 Z M22.074,21.173 L22.427,21.173 L61.573,21.173 L61.925,21.173 L61.925,20.468 L61.573,20.468 L22.427,20.468 L22.074,20.468 L22.074,21.173 L22.074,21.173 Z M61.925,18.162 L61.925,16.704 L61.573,16.704 L22.427,16.704 L22.074,16.704 L22.074,18.162 L22.427,18.162 L61.573,18.162 L61.925,18.162 L61.925,18.162 Z M61.112,8.423 L54.506,8.423 L55.145,12.892 L55.904,12.892 L55.904,9.529 C55.904,9.308 56.084,9.129 56.304,9.129 L59.315,9.129 C59.536,9.129 59.715,9.309 59.715,9.529 L59.715,12.892 L60.474,12.892 L61.112,8.423 L61.112,8.423 Z M56.704,9.929 L56.704,12.892 L58.914,12.892 L58.914,9.929 L56.704,9.929 L56.704,9.929 Z M54.445,14.397 L61.173,14.397 L61.173,13.692 L60.82,13.692 L59.314,13.692 L56.303,13.692 L54.797,13.692 L54.444,13.692 L54.444,14.397 L54.445,14.397 Z M56.157,6.117 L59.461,6.117 L59.159,5.412 L56.46,5.412 L56.157,6.117 L56.157,6.117 Z M56.802,4.611 L58.815,4.611 L58.513,3.906 L57.105,3.906 L56.802,4.611 L56.802,4.611 Z M57.448,3.105 L58.17,3.105 L57.809,2.263 L57.448,3.105 L57.448,3.105 Z M54.445,7.622 L61.173,7.622 L61.173,6.918 L60.087,6.918 L60.067,6.918 L55.55,6.918 L54.445,6.918 L54.445,7.622 L54.445,7.622 Z M47.482,14.397 L51.573,14.397 L50.75,13.575 C50.595,13.42 50.596,13.167 50.749,13.011 C50.756,13.004 51.386,12.352 51.386,11.41 C51.386,10.071 49.967,9.384 49.53,9.204 C49.092,9.386 47.671,10.078 47.671,11.41 C47.671,12.351 48.301,13.004 48.308,13.011 C48.461,13.167 48.462,13.42 48.307,13.575 L47.482,14.397 L47.482,14.397 Z M39.954,14.397 L44.046,14.397 L43.223,13.575 C43.068,13.42 43.069,13.167 43.222,13.011 C43.229,13.004 43.859,12.352 43.859,11.41 C43.859,10.079 42.439,9.386 42.001,9.204 C41.563,9.386 40.143,10.079 40.143,11.41 C40.143,12.351 40.773,13.004 40.78,13.011 C40.933,13.167 40.934,13.42 40.779,13.575 L39.954,14.397 L39.954,14.397 Z M32.426,14.397 L36.518,14.397 L35.695,13.575 C35.54,13.42 35.541,13.167 35.694,13.011 C35.701,13.004 36.331,12.352 36.331,11.41 C36.331,10.079 34.911,9.386 34.473,9.204 C34.035,9.386 32.616,10.079 32.616,11.41 C32.616,12.351 33.245,13.004 33.252,13.011 C33.405,13.167 33.406,13.42 33.251,13.575 L32.426,14.397 L32.426,14.397 Z M28.85,9.528 L28.85,12.891 L29.609,12.891 L30.248,8.422 L23.642,8.422 L24.281,12.891 L25.04,12.891 L25.04,9.528 C25.04,9.307 25.22,9.128 25.44,9.128 L28.451,9.128 C28.67,9.128 28.85,9.308 28.85,9.528 L28.85,9.528 Z M25.839,9.929 L25.839,12.892 L28.049,12.892 L28.049,9.929 L25.839,9.929 L25.839,9.929 Z M23.58,14.397 L30.308,14.397 L30.308,13.692 L29.955,13.692 L28.449,13.692 L25.438,13.692 L23.932,13.692 L23.58,13.692 L23.58,14.397 L23.58,14.397 Z M25.292,6.117 L28.596,6.117 L28.294,5.412 L25.595,5.412 L25.292,6.117 L25.292,6.117 Z M25.938,4.611 L27.951,4.611 L27.649,3.906 L26.24,3.906 L25.938,4.611 L25.938,4.611 Z M26.583,3.105 L27.305,3.105 L26.944,2.263 L26.583,3.105 L26.583,3.105 Z M23.58,7.622 L30.308,7.622 L30.308,6.918 L29.222,6.918 L29.202,6.918 L24.685,6.918 L23.58,6.918 L23.58,7.622 L23.58,7.622 Z M22.827,15.903 L61.173,15.903 L61.173,15.198 L54.045,15.198 L52.559,15.198 L52.539,15.198 L46.517,15.198 L45.03,15.198 L45.01,15.198 L38.988,15.198 L37.503,15.198 L37.483,15.198 L31.461,15.198 L30.708,15.198 L23.18,15.198 L22.827,15.198 L22.827,15.903 L22.827,15.903 Z M22.827,18.963 L22.827,19.667 L61.173,19.667 L61.173,18.963 L22.827,18.963 L22.827,18.963 Z M15.865,30.959 L19.956,30.959 L19.133,30.138 C18.978,29.983 18.979,29.73 19.132,29.574 C19.139,29.567 19.769,28.914 19.769,27.972 C19.769,26.633 18.35,25.946 17.912,25.766 C17.474,25.948 16.054,26.64 16.054,27.972 C16.054,28.925 16.683,29.566 16.69,29.572 C16.764,29.647 16.807,29.749 16.807,29.855 C16.807,29.961 16.764,30.063 16.69,30.138 L15.865,30.959 L15.865,30.959 Z M9.09,30.959 L13.181,30.959 L12.358,30.138 C12.203,29.983 12.204,29.73 12.357,29.574 C12.364,29.567 12.994,28.914 12.994,27.972 C12.994,26.633 11.575,25.946 11.137,25.766 C10.699,25.948 9.279,26.64 9.279,27.972 C9.279,28.925 9.908,29.566 9.915,29.572 C9.989,29.647 10.032,29.749 10.032,29.855 C10.032,29.961 9.989,30.063 9.915,30.138 L9.09,30.959 L9.09,30.959 Z M3.445,24.937 L5.274,24.937 L4.992,24.233 L3.726,24.233 L3.445,24.937 L3.445,24.937 Z M4.047,23.432 L4.672,23.432 L4.359,22.651 L4.047,23.432 L4.047,23.432 Z M1.777,26.71 L2.488,29.374 C2.51,29.458 2.505,29.546 2.472,29.626 L1.939,30.959 L3.206,30.959 L3.206,27.596 C3.206,27.49 3.249,27.388 3.323,27.313 L4.076,26.56 C4.232,26.404 4.486,26.404 4.642,26.56 L5.395,27.313 C5.469,27.388 5.512,27.49 5.512,27.596 L5.512,30.959 L6.78,30.959 L6.247,29.626 C6.215,29.546 6.209,29.458 6.231,29.374 L6.942,26.71 L6.385,25.737 L5.864,25.737 L2.853,25.737 L2.332,25.737 L1.777,26.71 L1.777,26.71 Z M4.359,27.408 L4.006,27.762 L4.006,30.959 L4.711,30.959 L4.711,27.762 L4.359,27.408 L4.359,27.408 Z M1.349,31.76 L0.996,31.76 L0.996,32.465 L21.681,32.465 L21.703,31.76 L20.921,31.76 L14.899,31.76 L14.146,31.76 L8.124,31.76 L7.371,31.76 L5.112,31.76 L3.606,31.76 L1.349,31.76 L1.349,31.76 Z M7.85,48.322 L7.146,48.322 L7.193,49.026 L7.897,49.026 L7.85,48.322 L7.85,48.322 Z M8.477,49.827 L0.997,49.827 L0.997,50.532 L8.477,50.532 L8.477,49.827 L8.477,49.827 Z M0.996,49.026 L6.391,49.026 L6.344,48.322 L0.996,48.322 L0.996,49.026 L0.996,49.026 Z M0.996,46.016 L1.078,46.016 L1.68,44.509 L0.995,41.943 L0.995,46.016 L0.996,46.016 Z M2.488,44.431 C2.51,44.515 2.505,44.603 2.472,44.683 L1.939,46.016 L2.501,46.016 L3.206,46.016 L3.206,42.652 C3.206,42.546 3.249,42.444 3.323,42.369 L4.075,41.617 C4.231,41.461 4.484,41.461 4.64,41.617 L5.393,42.369 C5.468,42.444 5.511,42.546 5.511,42.652 L5.511,46.016 L6.216,46.016 L6.778,46.016 L6.245,44.683 C6.213,44.603 6.207,44.515 6.229,44.431 L6.94,41.767 L6.383,40.794 L5.862,40.794 L2.851,40.794 L2.33,40.794 L1.773,41.767 L2.488,44.431 L2.488,44.431 Z M4.992,39.288 L3.727,39.288 L3.445,39.993 L5.274,39.993 L4.992,39.288 L4.992,39.288 Z M7.641,46.016 L7.723,46.016 L7.723,41.943 L7.038,44.509 L7.641,46.016 L7.641,46.016 Z M4.712,42.817 L4.359,42.464 L4.007,42.817 L4.007,46.015 L4.711,46.015 L4.711,42.817 L4.712,42.817 Z M8.477,46.816 L8.124,46.816 L7.75,46.816 L7.371,46.816 L6.618,46.816 L5.112,46.816 L3.607,46.816 L2.101,46.816 L1.349,46.816 L0.996,46.816 L0.996,47.521 L8.476,47.521 L8.476,46.816 L8.477,46.816 Z M7.724,38.535 L7.019,38.535 L7.019,40.287 L7.719,41.512 C7.722,41.517 7.721,41.522 7.724,41.527 L7.724,39.64 L7.724,38.535 L7.724,38.535 Z M6.218,38.535 L5.552,38.535 L6.135,39.993 L6.217,39.993 L6.217,38.535 L6.218,38.535 Z M4.672,38.487 L4.36,37.707 L4.048,38.487 L4.672,38.487 L4.672,38.487 Z M3.167,38.535 L2.502,38.535 L2.502,39.993 L2.584,39.993 L3.167,38.535 L3.167,38.535 Z M1.701,38.535 L0.996,38.535 L0.996,41.527 C0.998,41.522 0.998,41.517 1.001,41.512 L1.701,40.287 L1.701,38.535 L1.701,38.535 Z M0.996,67.094 L7.596,67.094 L6.545,51.333 L0.996,51.333 L0.996,67.094 L0.996,67.094 Z M8.398,67.094 L9.101,67.094 L9.029,66.015 L9.029,66.012 L8.05,51.333 L7.346,51.333 L8.398,67.094 L8.398,67.094 Z M9.904,67.094 L20.583,67.094 L20.605,66.389 L9.857,66.389 L9.904,67.094 L9.904,67.094 Z M20.63,65.588 L21.441,40.041 L8.524,40.041 L8.524,46.016 L8.877,46.016 C9.098,46.016 9.277,46.196 9.277,46.416 L9.277,47.922 C9.277,48.143 9.097,48.322 8.877,48.322 L8.652,48.322 L8.699,49.026 L8.877,49.026 C9.098,49.026 9.277,49.206 9.277,49.426 L9.277,50.932 C9.277,51.153 9.097,51.332 8.877,51.332 L8.853,51.332 L9.803,65.587 L20.63,65.587 L20.63,65.588 Z M21.466,39.24 L21.488,38.535 L8.524,38.535 L8.524,39.24 L21.466,39.24 L21.466,39.24 Z M21.514,37.734 L21.656,33.265 L0.996,33.265 L0.996,37.734 L2.101,37.734 L3.487,37.734 L3.988,36.481 C4.108,36.176 4.608,36.175 4.73,36.481 L5.231,37.734 L6.617,37.734 L8.123,37.734 L21.514,37.734 L21.514,37.734 Z M7.696,68.6 L7.649,67.895 L0.996,67.895 L0.996,68.6 L7.696,68.6 L7.696,68.6 Z M9.202,68.6 L9.155,67.895 L8.451,67.895 L8.498,68.6 L9.202,68.6 L9.202,68.6 Z M20.535,68.6 L20.557,67.895 L9.957,67.895 L10.004,68.6 L20.535,68.6 L20.535,68.6 Z M23.532,68.6 L23.532,67.895 L21.357,67.895 L21.335,68.6 L22.779,68.6 L23.532,68.6 L23.532,68.6 Z M28.262,64.884 L26.379,64.884 L24.497,64.884 L24.333,64.884 L24.333,65.588 L28.426,65.588 L28.426,64.884 L28.262,64.884 L28.262,64.884 Z M25.978,63.542 C25.978,63.244 25.736,63.002 25.438,63.002 C25.139,63.002 24.897,63.244 24.897,63.542 L24.897,64.083 L25.978,64.083 L25.978,63.542 L25.978,63.542 Z M27.861,59.967 C27.861,59.15 27.196,58.485 26.379,58.485 C25.562,58.485 24.898,59.15 24.898,59.967 C24.898,60.239 24.977,60.49 25.105,60.709 C25.469,60.463 25.908,60.318 26.38,60.318 C26.852,60.318 27.291,60.462 27.656,60.709 C27.783,60.49 27.861,60.239 27.861,59.967 L27.861,59.967 Z M26.379,61.119 C26.139,61.119 25.915,61.182 25.714,61.284 C25.915,61.386 26.138,61.448 26.379,61.448 C26.62,61.448 26.843,61.385 27.044,61.284 C26.843,61.182 26.619,61.119 26.379,61.119 L26.379,61.119 Z M25.104,61.859 C25.024,61.996 24.96,62.144 24.927,62.305 C25.085,62.24 25.257,62.202 25.438,62.202 C26.177,62.202 26.779,62.804 26.779,63.543 L26.779,64.084 L27.861,64.084 L27.861,62.603 C27.861,62.331 27.782,62.079 27.654,61.86 C27.289,62.106 26.851,62.25 26.379,62.25 C25.907,62.249 25.468,62.105 25.104,61.859 L25.104,61.859 Z M28.426,66.389 L24.333,66.389 L24.333,68.6 L28.426,68.6 L28.426,66.389 L28.426,66.389 Z M31.06,67.895 L29.226,67.895 L29.226,68.6 L31.06,68.6 L31.06,67.895 L31.06,67.895 Z M31.06,67.094 L31.06,39.641 L31.06,38.135 L31.06,32.865 L31.06,31.359 C31.06,31.138 31.24,30.959 31.46,30.959 L52.538,30.959 C52.759,30.959 52.938,31.139 52.938,31.359 L52.938,32.865 L52.938,38.135 L52.938,39.641 L52.938,67.094 L54.772,67.094 L54.772,65.989 L54.772,64.484 C54.772,64.263 54.952,64.084 55.172,64.084 L55.336,64.084 L55.336,62.603 C55.336,62.111 55.496,61.658 55.761,61.285 C55.495,60.912 55.336,60.459 55.336,59.968 C55.336,58.709 56.36,57.685 57.619,57.685 C58.877,57.685 59.901,58.709 59.901,59.968 C59.901,60.459 59.741,60.912 59.476,61.285 C59.742,61.658 59.901,62.111 59.901,62.603 L59.901,63.543 L59.901,64.084 L60.065,64.084 C60.286,64.084 60.465,64.264 60.465,64.484 L60.465,65.989 L60.465,67.094 L62.614,67.094 L61.182,21.974 L22.814,21.974 L21.382,67.094 L23.531,67.094 L23.531,65.989 L23.531,64.484 C23.531,64.263 23.711,64.084 23.931,64.084 L24.095,64.084 L24.095,63.543 L24.095,62.603 C24.095,62.111 24.255,61.658 24.52,61.285 C24.254,60.912 24.095,60.459 24.095,59.968 C24.095,58.709 25.119,57.685 26.377,57.685 C27.636,57.685 28.66,58.709 28.66,59.968 C28.66,60.459 28.5,60.912 28.235,61.285 C28.501,61.658 28.66,62.111 28.66,62.603 L28.66,64.084 L28.824,64.084 C29.045,64.084 29.224,64.264 29.224,64.484 L29.224,65.989 L29.224,67.094 L31.06,67.094 L31.06,67.094 Z M55.574,65.588 L59.667,65.588 L59.667,64.884 L59.503,64.884 L57.621,64.884 L55.738,64.884 L55.574,64.884 L55.574,65.588 L55.574,65.588 Z M59.102,59.967 C59.102,59.15 58.438,58.485 57.621,58.485 C56.804,58.485 56.139,59.15 56.139,59.967 C56.139,60.239 56.218,60.49 56.346,60.709 C56.711,60.463 57.15,60.318 57.622,60.318 C58.094,60.318 58.533,60.462 58.897,60.709 C59.024,60.49 59.102,60.239 59.102,59.967 L59.102,59.967 Z M57.621,61.119 C57.381,61.119 57.157,61.182 56.956,61.284 C57.157,61.386 57.381,61.448 57.621,61.448 C57.861,61.448 58.085,61.385 58.286,61.284 C58.085,61.182 57.861,61.119 57.621,61.119 L57.621,61.119 Z M56.346,61.859 C56.218,62.078 56.139,62.33 56.139,62.602 L56.139,64.083 L57.221,64.083 L57.221,63.542 C57.221,62.803 57.823,62.201 58.562,62.201 C58.743,62.201 58.915,62.239 59.073,62.304 C59.04,62.143 58.976,61.995 58.896,61.858 C58.532,62.104 58.093,62.248 57.621,62.248 C57.149,62.249 56.71,62.105 56.346,61.859 L56.346,61.859 Z M58.561,63.002 C58.263,63.002 58.021,63.244 58.021,63.542 L58.021,64.083 L59.102,64.083 L59.102,63.542 C59.102,63.244 58.86,63.002 58.561,63.002 L58.561,63.002 Z M52.139,31.76 L31.861,31.76 L31.861,32.465 L52.138,32.465 L52.138,31.76 L52.139,31.76 Z M31.861,33.266 L31.861,37.735 L52.138,37.735 L52.138,33.266 L31.861,33.266 L31.861,33.266 Z M31.861,39.24 L52.138,39.24 L52.138,38.535 L31.861,38.535 L31.861,39.24 L31.861,39.24 Z M50.682,41.899 L50.682,68.599 L52.139,68.599 L52.139,67.494 L52.139,40.041 L31.861,40.041 L31.861,67.494 L31.861,68.6 L33.318,68.6 L33.318,41.9 C33.318,41.679 33.498,41.5 33.718,41.5 L50.28,41.5 C50.502,41.499 50.682,41.679 50.682,41.899 L50.682,41.899 Z M52.939,68.6 L54.773,68.6 L54.773,67.895 L52.939,67.895 L52.939,68.6 L52.939,68.6 Z M59.667,66.389 L55.574,66.389 L55.574,68.6 L59.667,68.6 L59.667,66.389 L59.667,66.389 Z M62.665,68.6 L62.643,67.895 L60.468,67.895 L60.468,68.6 L61.221,68.6 L62.665,68.6 L62.665,68.6 Z M73.996,68.6 L74.043,67.895 L63.443,67.895 L63.465,68.6 L73.996,68.6 L73.996,68.6 Z M75.501,68.6 L75.548,67.895 L74.844,67.895 L74.798,68.6 L75.501,68.6 L75.501,68.6 Z M83.004,67.895 L76.351,67.895 L76.304,68.6 L83.004,68.6 L83.004,67.895 L83.004,67.895 Z M83.004,67.094 L83.004,51.333 L77.455,51.333 L76.404,67.094 L83.004,67.094 L83.004,67.094 Z M71.359,35.9 L72.088,35.9 L72.088,36.629 C72.088,36.85 72.268,37.029 72.488,37.029 C72.708,37.029 72.888,36.849 72.888,36.629 L72.888,35.9 L73.617,35.9 C73.838,35.9 74.017,35.72 74.017,35.5 C74.017,35.28 73.837,35.1 73.617,35.1 L72.888,35.1 L72.888,34.371 C72.888,34.15 72.708,33.971 72.488,33.971 C72.268,33.971 72.088,34.151 72.088,34.371 L72.088,35.1 L71.359,35.1 C71.138,35.1 70.959,35.28 70.959,35.5 C70.959,35.72 71.139,35.9 71.359,35.9 L71.359,35.9 Z M64.584,35.9 L65.313,35.9 L65.313,36.629 C65.313,36.85 65.493,37.029 65.713,37.029 C65.933,37.029 66.113,36.849 66.113,36.629 L66.113,35.9 L66.842,35.9 C67.063,35.9 67.242,35.72 67.242,35.5 C67.242,35.28 67.062,35.1 66.842,35.1 L66.113,35.1 L66.113,34.371 C66.113,34.15 65.933,33.971 65.713,33.971 C65.493,33.971 65.313,34.151 65.313,34.371 L65.313,35.1 L64.584,35.1 C64.363,35.1 64.184,35.28 64.184,35.5 C64.184,35.72 64.363,35.9 64.584,35.9 L64.584,35.9 Z M65.312,55.449 L65.312,53.944 L65.312,46.416 C65.312,46.195 65.492,46.016 65.712,46.016 L69.853,46.016 C70.074,46.016 70.253,46.196 70.253,46.416 L70.253,53.944 L70.253,55.449 C70.253,55.67 70.073,55.849 69.853,55.849 L65.712,55.849 C65.492,55.85 65.312,55.67 65.312,55.449 L65.312,55.449 Z M69.453,54.345 L66.113,54.345 L66.113,55.049 L69.453,55.049 L69.453,54.345 L69.453,54.345 Z M66.113,53.544 L69.453,53.544 L69.453,46.816 L66.113,46.816 L66.113,53.544 L66.113,53.544 Z M45.011,27.571 L38.989,27.571 C38.768,27.571 38.589,27.751 38.589,27.971 C38.589,28.191 38.769,28.371 38.989,28.371 L45.011,28.371 C45.232,28.371 45.411,28.191 45.411,27.971 C45.411,27.751 45.231,27.571 45.011,27.571 L45.011,27.571 Z M31.46,28.47 C31.59,28.47 31.72,28.42 31.819,28.32 C31.909,28.231 31.959,28.102 31.959,27.973 L31.959,27.971 C31.959,27.841 31.909,27.711 31.818,27.631 C31.638,27.431 31.279,27.431 31.108,27.621 C31.018,27.711 30.959,27.841 30.959,27.971 C30.959,28.101 31.009,28.231 31.108,28.331 C31.2,28.42 31.33,28.47 31.46,28.47 L31.46,28.47 Z M33.72,27.47 C33.44,27.47 33.22,27.7 33.22,27.97 L33.22,27.972 C33.221,28.251 33.44,28.47 33.72,28.47 C33.99,28.47 34.218,28.251 34.22,27.972 L34.22,27.97 C34.22,27.7 33.99,27.47 33.72,27.47 L33.72,27.47 Z M35.63,27.609 C35.53,27.71 35.48,27.839 35.48,27.969 L35.48,27.971 C35.481,28.1 35.531,28.229 35.62,28.329 C35.72,28.419 35.849,28.469 35.979,28.469 C36.099,28.469 36.229,28.419 36.339,28.319 C36.429,28.229 36.479,28.099 36.479,27.969 C36.479,27.839 36.429,27.709 36.33,27.619 C36.14,27.43 35.79,27.45 35.63,27.609 L35.63,27.609 Z M47.67,27.62 C47.58,27.71 47.52,27.84 47.52,27.97 C47.52,28.1 47.57,28.23 47.67,28.33 C47.77,28.42 47.899,28.47 48.02,28.47 C48.15,28.47 48.281,28.42 48.38,28.32 C48.469,28.231 48.519,28.102 48.519,27.973 L48.519,27.971 C48.519,27.841 48.469,27.711 48.379,27.621 C48.189,27.43 47.85,27.43 47.67,27.62 L47.67,27.62 Z M50.28,27.47 C50.009,27.47 49.78,27.7 49.78,27.97 L49.78,27.972 C49.781,28.251 50.01,28.47 50.28,28.47 C50.558,28.47 50.778,28.251 50.78,27.972 L50.78,27.97 C50.78,27.7 50.56,27.47 50.28,27.47 L50.28,27.47 Z M52.18,27.62 C52.09,27.71 52.04,27.84 52.04,27.97 L52.04,27.972 C52.041,28.101 52.09,28.23 52.189,28.33 C52.29,28.42 52.41,28.47 52.54,28.47 C52.67,28.47 52.8,28.42 52.89,28.33 C52.98,28.229 53.04,28.109 53.04,27.97 C53.04,27.84 52.979,27.7 52.899,27.62 C52.71,27.43 52.37,27.43 52.18,27.62 L52.18,27.62 Z M31.461,25.361 L52.539,25.361 C52.76,25.361 52.939,25.181 52.939,24.961 C52.939,24.741 52.759,24.561 52.539,24.561 L31.461,24.561 C31.24,24.561 31.061,24.741 31.061,24.961 C31.061,25.181 31.24,25.361 31.461,25.361 L31.461,25.361 Z" id="Shape"></path>
        </g>
    </g>
</svg>