<svg xmlns="http://www.w3.org/2000/svg" xmlns:xlink="http://www.w3.org/1999/xlink" version="1.1" x="0px" y="0px" viewBox="0 0 100 125" enable-background="new 0 0 100 100" xml:space="preserve"><path d="M21.041,60.5c0,0.221-0.18,0.4-0.4,0.4h-0.729v0.729c0,0.221-0.18,0.4-0.4,0.4s-0.4-0.18-0.4-0.4V60.9h-0.729  c-0.221,0-0.4-0.18-0.4-0.4s0.18-0.4,0.4-0.4h0.729v-0.729c0-0.221,0.18-0.4,0.4-0.4s0.4,0.18,0.4,0.4V60.1h0.729  C20.861,60.1,21.041,60.279,21.041,60.5z M27.416,60.1h-0.729v-0.729c0-0.221-0.18-0.4-0.4-0.4s-0.4,0.18-0.4,0.4V60.1h-0.729  c-0.221,0-0.4,0.18-0.4,0.4s0.18,0.4,0.4,0.4h0.729v0.729c0,0.221,0.18,0.4,0.4,0.4s0.4-0.18,0.4-0.4V60.9h0.729  c0.221,0,0.4-0.18,0.4-0.4S27.637,60.1,27.416,60.1z M26.687,71.416v7.528v1.505c0,0.221-0.18,0.4-0.4,0.4h-4.141  c-0.221,0-0.4-0.18-0.4-0.4v-1.505v-7.528c0-0.221,0.18-0.4,0.4-0.4h4.141C26.508,71.016,26.687,71.195,26.687,71.416z   M25.887,79.345h-3.34v0.704h3.34V79.345z M25.887,78.544v-6.728h-3.34v6.728H25.887z M91.805,56.359v1.506v5.27v8.281v1.506v1.505  v1.506v16.562V94c0,0.221-0.18,0.4-0.4,0.4H82.37H71.078H68.82h-0.753h-4.894h-2.635h-2.258c-0.221,0-0.4-0.18-0.4-0.4V67.3H42.119  V94c0,0.221-0.18,0.4-0.4,0.4h-2.258h-2.635h-4.894H31.18h-2.258H17.63H8.596c-0.221,0-0.4-0.18-0.4-0.4v-1.506V75.933v-1.506  v-1.505v-1.506v-8.281v-5.27v-1.506c0-0.221,0.18-0.4,0.4-0.4h0.483l0.602-1.507l-0.719-2.694c-0.027-0.103-0.013-0.211,0.039-0.302  l0.753-1.317c0.071-0.125,0.204-0.202,0.348-0.202h0.483l1.404-3.512c0.12-0.305,0.62-0.306,0.742,0l1.405,3.512h0.483  c0.144,0,0.276,0.077,0.348,0.202l0.753,1.317c0.052,0.091,0.066,0.199,0.039,0.302l-0.719,2.694l0.602,1.507h0.317l1.135-1.133  c-0.258-0.361-0.616-1.016-0.616-1.854c0-2.146,2.429-2.979,2.531-3.015c0.082-0.027,0.17-0.027,0.254,0  c0.103,0.035,2.532,0.869,2.532,3.015c0,0.839-0.358,1.493-0.616,1.854l1.135,1.133h0.421l1.135-1.133  c-0.258-0.361-0.616-1.016-0.616-1.854c0-2.146,2.429-2.979,2.531-3.015c0.082-0.027,0.17-0.027,0.254,0  c0.103,0.035,2.532,0.869,2.532,3.015c0,0.839-0.358,1.493-0.616,1.854l1.135,1.133h0.641l0.285-8.985h-0.34  c-0.221,0-0.4-0.18-0.4-0.4v-1.506c0-0.221,0.18-0.4,0.4-0.4h0.353v-0.704h-0.353c-0.221,0-0.4-0.18-0.4-0.4v-2.259  c0-0.221,0.18-0.4,0.4-0.4h0.353v-1.105c0-0.221,0.18-0.4,0.4-0.4h0.353v-1.105c0-0.221,0.18-0.4,0.4-0.4h0.292l-0.688-4.812  c-0.001-0.008,0.002-0.016,0.002-0.024c-0.001-0.011-0.007-0.021-0.007-0.032v-1.505c0-0.221,0.18-0.4,0.4-0.4h1.243l2.155-5.026  c0.062-0.147,0.207-0.243,0.367-0.243s0.305,0.096,0.367,0.243l2.154,5.026h1.242c0.221,0,0.4,0.18,0.4,0.4v1.505  c0,0.011-0.006,0.021-0.007,0.033c-0.001,0.008,0.003,0.016,0.002,0.024l-0.688,4.812h0.292c0.221,0,0.4,0.18,0.4,0.4v1.105h0.187  l1.134-1.134c-0.257-0.36-0.615-1.015-0.615-1.854c0-2.146,2.429-2.979,2.531-3.015c0.082-0.027,0.17-0.027,0.254,0  c0.103,0.035,2.532,0.869,2.532,3.015c0,0.839-0.358,1.493-0.616,1.854l1.134,1.134h1.174l1.135-1.134  c-0.258-0.36-0.616-1.015-0.616-1.854c0-2.146,2.43-2.979,2.532-3.015c0.084-0.027,0.17-0.027,0.254,0  c0.103,0.035,2.532,0.869,2.532,3.015c0,0.839-0.358,1.493-0.616,1.854l1.133,1.134h1.175l1.135-1.134  c-0.258-0.36-0.616-1.015-0.616-1.854c0-2.146,2.43-2.979,2.532-3.015c0.084-0.027,0.172-0.027,0.254,0  c0.103,0.035,2.531,0.869,2.531,3.015c0,0.839-0.358,1.493-0.616,1.854l1.134,1.134h0.94v-1.105c0-0.221,0.18-0.4,0.4-0.4h0.292  l-0.688-4.812c-0.001-0.008,0.002-0.016,0.002-0.024c-0.001-0.011-0.007-0.021-0.007-0.032v-1.505c0-0.221,0.18-0.4,0.4-0.4h1.243  l2.154-5.026c0.125-0.295,0.609-0.295,0.734,0l2.155,5.026h1.242c0.221,0,0.4,0.18,0.4,0.4v1.505c0,0.011-0.006,0.021-0.007,0.033  c-0.001,0.008,0.003,0.016,0.002,0.024l-0.688,4.812h0.292c0.221,0,0.4,0.18,0.4,0.4v1.506v1.105h0.352c0.221,0,0.4,0.18,0.4,0.4  v2.259c0,0.221-0.18,0.4-0.4,0.4h-0.352v0.704h0.352c0.221,0,0.4,0.18,0.4,0.4v1.506c0,0.221-0.18,0.4-0.4,0.4h-0.339l0.285,8.985  h0.641l1.135-1.133c-0.258-0.361-0.616-1.016-0.616-1.854c0-2.146,2.43-2.979,2.532-3.015c0.084-0.027,0.172-0.027,0.254,0  c0.103,0.035,2.531,0.869,2.531,3.015c0,0.839-0.358,1.493-0.616,1.854l1.134,1.133h0.422l1.135-1.133  c-0.258-0.361-0.616-1.016-0.616-1.854c0-2.146,2.43-2.979,2.532-3.015c0.084-0.027,0.172-0.027,0.254,0  c0.103,0.035,2.531,0.869,2.531,3.015c0,0.839-0.358,1.493-0.616,1.854l1.134,1.133h0.318l0.602-1.507l-0.719-2.694  c-0.027-0.103-0.013-0.211,0.039-0.302l0.753-1.317c0.071-0.125,0.204-0.202,0.348-0.202h0.483l1.405-3.512  c0.061-0.152,0.208-0.252,0.371-0.252c0.164,0,0.311,0.1,0.371,0.252l1.404,3.512h0.482c0.144,0,0.276,0.077,0.348,0.202  l0.753,1.317c0.052,0.091,0.066,0.199,0.039,0.302l-0.719,2.694l0.603,1.507h0.482C91.625,55.959,91.805,56.139,91.805,56.359z   M91.004,73.322h-5.348l-0.047,0.704h5.395V73.322z M91.004,63.535h-0.705v1.752l0.7,1.225c0.003,0.005,0.002,0.01,0.005,0.015  V63.535z M87.992,67.817l-0.352-0.353l-0.353,0.353v3.198h0.704V67.817z M88.793,67.651v3.364h0.705h0.562l-0.533-1.333  c-0.032-0.08-0.038-0.168-0.016-0.252l0.711-2.664l-0.557-0.973h-0.501h-0.02h-3.011h-0.521l-0.557,0.973l0.711,2.664  c0.022,0.084,0.017,0.172-0.016,0.252l-0.533,1.333h0.562h0.705v-3.364c0-0.106,0.043-0.208,0.118-0.283l0.753-0.752  c0.156-0.156,0.409-0.156,0.565,0l0.752,0.752C88.75,67.443,88.793,67.545,88.793,67.651z M84.276,71.016h0.082l0.602-1.507  l-0.685-2.566V71.016z M88.273,64.288h-1.265l-0.282,0.705h1.829L88.273,64.288z M89.498,63.535h-0.665l0.583,1.458h0.082V63.535z   M87.953,63.487l-0.312-0.78l-0.312,0.78H87.953z M86.448,63.535h-0.666v1.458h0.082L86.448,63.535z M84.981,63.535h-0.705v1.105  v1.887c0.002-0.005,0.002-0.01,0.005-0.015l0.7-1.225V63.535z M83.523,72.521h7.48v-0.705h-0.333h-0.02h-0.753h-1.506h-1.505h-1.506  h-0.753H84.25h-0.374h-0.353V72.521z M84.103,74.026h0.704l0.047-0.704H84.15L84.103,74.026z M91.004,71.016v-4.073l-0.685,2.566  l0.603,1.507H91.004z M91.004,58.266h-20.66l0.142,4.469h13.39h1.506h1.386l0.501-1.253c0.061-0.152,0.208-0.252,0.371-0.252  c0.164,0,0.311,0.1,0.371,0.252l0.501,1.253h1.386h1.105V58.266z M70.511,63.535l0.022,0.705h12.942v-0.705H70.511z M70.559,65.041  l0.811,25.547h10.827l0.95-14.255h-0.024c-0.221,0-0.4-0.18-0.4-0.4v-1.506c0-0.221,0.18-0.4,0.4-0.4h0.178l0.047-0.704h-0.225  c-0.221,0-0.4-0.18-0.4-0.4v-1.506c0-0.221,0.18-0.4,0.4-0.4h0.353v-5.975H70.559z M71.417,92.094h10.679l0.047-0.705H71.395  L71.417,92.094z M82.971,91.015l-0.072,1.079h0.703l1.051-15.761h-0.704L82.97,91.012C82.97,91.013,82.971,91.014,82.971,91.015z   M91.004,75.532v-0.705h-7.48v0.705H91.004z M86.726,49.937h1.829l-0.281-0.704h-1.266L86.726,49.937z M87.328,48.432h0.625  l-0.312-0.781L87.328,48.432z M85.058,51.71l0.711,2.664c0.022,0.084,0.017,0.172-0.016,0.252l-0.533,1.333h1.268v-3.363  c0-0.106,0.043-0.208,0.117-0.283l0.753-0.753c0.156-0.156,0.41-0.156,0.566,0l0.753,0.753c0.074,0.075,0.117,0.177,0.117,0.283  v3.363h1.267l-0.533-1.333c-0.032-0.08-0.038-0.168-0.016-0.252l0.711-2.664l-0.557-0.973h-0.501h-0.02h-3.011h-0.521L85.058,51.71z   M87.641,52.408l-0.353,0.354v3.197h0.705v-3.197L87.641,52.408z M78.819,55.959h4.091l-0.823-0.821  c-0.155-0.155-0.154-0.408-0.001-0.564c0.007-0.007,0.637-0.66,0.637-1.602c0-1.331-1.419-2.024-1.857-2.206  c-0.438,0.182-1.858,0.875-1.858,2.206c0,0.953,0.629,1.594,0.636,1.6c0.074,0.075,0.117,0.177,0.117,0.283  s-0.043,0.208-0.117,0.283L78.819,55.959z M72.044,55.959h4.091l-0.823-0.821c-0.155-0.155-0.154-0.408-0.001-0.564  c0.007-0.007,0.637-0.66,0.637-1.602c0-1.331-1.419-2.024-1.857-2.206c-0.438,0.182-1.858,0.875-1.858,2.206  c0,0.953,0.629,1.594,0.636,1.6c0.074,0.075,0.117,0.177,0.117,0.283s-0.043,0.208-0.117,0.283L72.044,55.959z M70.296,56.76  l0.022,0.705h20.685V56.76h-0.333h-0.02h-2.258h-1.506h-2.259h-0.733h-0.02h-6.022H77.12h-0.02h-6.022H70.296z M30.074,46.173h0.353  h39.146h0.352v-0.705h-0.352H30.427h-0.353V46.173z M69.925,43.162v-1.458h-0.352H30.427h-0.353v1.458h0.353h39.146H69.925z   M69.112,33.423h-6.606l0.639,4.469h0.759v-3.363c0-0.221,0.18-0.4,0.4-0.4h3.011c0.221,0,0.4,0.18,0.4,0.4v3.363h0.759  L69.112,33.423z M64.704,34.929v2.963h2.21v-2.963H64.704z M62.445,39.397h6.728v-0.705H68.82h-1.506h-3.011h-1.506h-0.353V39.397z   M64.157,31.117h3.304l-0.302-0.705h-2.699L64.157,31.117z M64.802,29.611h2.013l-0.302-0.705h-1.408L64.802,29.611z M65.448,28.105  h0.722l-0.361-0.842L65.448,28.105z M62.445,32.622h6.728v-0.704h-1.086h-0.02h-4.517h-1.105V32.622z M55.482,39.397h4.091  l-0.823-0.822c-0.155-0.155-0.154-0.408-0.001-0.564c0.007-0.007,0.637-0.659,0.637-1.601c0-1.339-1.419-2.026-1.856-2.206  c-0.438,0.182-1.859,0.874-1.859,2.206c0,0.941,0.63,1.594,0.637,1.601c0.153,0.156,0.154,0.409-0.001,0.564L55.482,39.397z   M47.954,39.397h4.092l-0.823-0.822c-0.155-0.155-0.154-0.408-0.001-0.564c0.007-0.007,0.637-0.659,0.637-1.601  c0-1.331-1.42-2.024-1.858-2.206c-0.438,0.182-1.858,0.875-1.858,2.206c0,0.941,0.63,1.594,0.637,1.601  c0.153,0.156,0.154,0.409-0.001,0.564L47.954,39.397z M40.426,39.397h4.092l-0.823-0.822c-0.155-0.155-0.154-0.408-0.001-0.564  c0.007-0.007,0.637-0.659,0.637-1.601c0-1.331-1.42-2.024-1.858-2.206c-0.438,0.182-1.857,0.875-1.857,2.206  c0,0.941,0.629,1.594,0.636,1.601c0.153,0.156,0.154,0.409-0.001,0.564L40.426,39.397z M36.85,34.528v3.363h0.759l0.639-4.469  h-6.606l0.639,4.469h0.759v-3.363c0-0.221,0.18-0.4,0.4-0.4h3.011C36.67,34.128,36.85,34.308,36.85,34.528z M33.839,34.929v2.963  h2.21v-2.963H33.839z M31.58,39.397h6.728v-0.705h-0.353h-1.506h-3.011h-1.506H31.58V39.397z M33.292,31.117h3.304l-0.302-0.705  h-2.699L33.292,31.117z M33.938,29.611h2.013l-0.302-0.705H34.24L33.938,29.611z M34.583,28.105h0.722l-0.361-0.842L34.583,28.105z   M31.58,32.622h6.728v-0.704h-1.086h-0.02h-4.517H31.58V32.622z M30.827,40.903h38.346v-0.705h-7.128h-1.486h-0.02h-6.022H53.03  c-0.006,0-0.013,0-0.02,0h-6.022h-1.485c-0.006,0-0.013,0-0.02,0h-6.022h-0.753H31.18h-0.353V40.903z M30.827,43.963v0.704h38.346  v-0.704H30.827z M23.865,55.959h4.091l-0.823-0.821c-0.155-0.155-0.154-0.408-0.001-0.564c0.007-0.007,0.637-0.66,0.637-1.602  c0-1.339-1.419-2.026-1.857-2.206c-0.438,0.182-1.858,0.874-1.858,2.206c0,0.953,0.629,1.594,0.636,1.6  c0.074,0.075,0.117,0.177,0.117,0.283s-0.043,0.208-0.117,0.283L23.865,55.959z M17.09,55.959h4.091l-0.823-0.821  c-0.155-0.155-0.154-0.408-0.001-0.564c0.007-0.007,0.637-0.66,0.637-1.602c0-1.339-1.419-2.026-1.857-2.206  c-0.438,0.182-1.858,0.874-1.858,2.206c0,0.953,0.629,1.594,0.636,1.6c0.074,0.075,0.117,0.177,0.117,0.283  s-0.043,0.208-0.117,0.283L17.09,55.959z M11.445,49.937h1.829l-0.282-0.704h-1.266L11.445,49.937z M12.047,48.432h0.625  l-0.313-0.781L12.047,48.432z M9.777,51.71l0.711,2.664c0.022,0.084,0.017,0.172-0.016,0.252l-0.533,1.333h1.267v-3.363  c0-0.106,0.043-0.208,0.117-0.283l0.753-0.753c0.156-0.156,0.41-0.156,0.566,0l0.753,0.753c0.074,0.075,0.117,0.177,0.117,0.283  v3.363h1.268l-0.533-1.333c-0.032-0.08-0.038-0.168-0.016-0.252l0.711-2.664l-0.557-0.973h-0.521h-3.011h-0.521L9.777,51.71z   M12.359,52.408l-0.353,0.354v3.197h0.705v-3.197L12.359,52.408z M9.349,56.76H8.996v0.705h20.685l0.022-0.705h-0.782h-6.022h-0.753  h-6.022h-0.753h-2.259h-1.506H9.349z M15.85,73.322h-0.704l0.047,0.704h0.704L15.85,73.322z M16.477,74.827h-7.48v0.705h7.48V74.827  z M8.996,74.026h5.395l-0.047-0.704H8.996V74.026z M8.996,71.016h0.082l0.602-1.507l-0.685-2.566V71.016z M10.488,69.431  c0.022,0.084,0.017,0.172-0.016,0.252l-0.533,1.333h0.562h0.705v-3.364c0-0.106,0.043-0.208,0.117-0.283l0.752-0.752  c0.156-0.156,0.409-0.156,0.565,0l0.753,0.752c0.075,0.075,0.118,0.177,0.118,0.283v3.364h0.705h0.562l-0.533-1.333  c-0.032-0.08-0.038-0.168-0.016-0.252l0.711-2.664l-0.557-0.973h-0.521h-3.011h-0.521l-0.557,0.973L10.488,69.431z M12.992,64.288  h-1.265l-0.282,0.705h1.829L12.992,64.288z M15.641,71.016h0.082v-4.073l-0.685,2.566L15.641,71.016z M12.712,67.817l-0.353-0.353  l-0.352,0.353v3.198h0.704V67.817z M16.477,71.816h-0.353H15.75h-0.379h-0.753h-1.506h-1.505h-1.506H9.349H8.996v0.705h7.48V71.816z   M15.724,63.535h-0.705v1.752l0.7,1.225c0.003,0.005,0.002,0.01,0.005,0.015v-1.887V63.535z M14.218,63.535h-0.666l0.583,1.458  h0.082V63.535z M12.672,63.487l-0.312-0.78l-0.312,0.78H12.672z M11.167,63.535h-0.665v1.458h0.082L11.167,63.535z M9.701,63.535  H8.996v2.992c0.002-0.005,0.002-0.01,0.005-0.015l0.7-1.225V63.535z M8.996,92.094h6.6l-1.051-15.761H8.996V92.094z M16.398,92.094  h0.703l-0.072-1.079c0-0.001,0-0.002,0-0.003l-0.979-14.679h-0.704L16.398,92.094z M17.904,92.094h10.679l0.022-0.705H17.857  L17.904,92.094z M28.63,90.588l0.811-25.547H16.524v5.975h0.353c0.221,0,0.4,0.18,0.4,0.4v1.506c0,0.221-0.18,0.4-0.4,0.4h-0.225  l0.047,0.704h0.178c0.221,0,0.4,0.18,0.4,0.4v1.506c0,0.221-0.18,0.4-0.4,0.4h-0.024l0.95,14.255H28.63z M29.466,64.24l0.022-0.705  H16.524v0.705H29.466z M29.514,62.734l0.142-4.469H8.996v4.469h1.105h1.386l0.501-1.253c0.12-0.305,0.62-0.306,0.742,0l0.501,1.253  h1.386h1.506H29.514z M15.696,93.6l-0.047-0.705H8.996V93.6H15.696z M17.202,93.6l-0.047-0.705h-0.704l0.047,0.705H17.202z   M28.535,93.6l0.022-0.705h-10.6l0.047,0.705H28.535z M31.532,93.6v-0.705h-2.175L29.335,93.6h1.444H31.532z M36.262,89.884h-1.883  h-1.882h-0.164v0.704h4.093v-0.704H36.262z M33.978,88.542c0-0.298-0.242-0.54-0.54-0.54c-0.299,0-0.541,0.242-0.541,0.54v0.541  h1.081V88.542z M35.861,84.967c0-0.817-0.665-1.482-1.482-1.482s-1.481,0.665-1.481,1.482c0,0.272,0.079,0.523,0.207,0.742  c0.364-0.246,0.803-0.391,1.275-0.391c0.472,0,0.911,0.144,1.276,0.391C35.783,85.49,35.861,85.239,35.861,84.967z M34.379,86.119  c-0.24,0-0.464,0.063-0.665,0.165c0.201,0.102,0.424,0.164,0.665,0.164s0.464-0.063,0.665-0.164  C34.843,86.182,34.619,86.119,34.379,86.119z M33.104,86.859c-0.08,0.137-0.144,0.285-0.177,0.446  c0.158-0.065,0.33-0.103,0.511-0.103c0.739,0,1.341,0.602,1.341,1.341v0.541h1.082v-1.481c0-0.272-0.079-0.524-0.207-0.743  c-0.365,0.246-0.803,0.39-1.275,0.39C33.907,87.249,33.468,87.105,33.104,86.859z M36.426,91.389h-4.093V93.6h4.093V91.389z   M39.06,92.895h-1.834V93.6h1.834V92.895z M39.06,92.094V64.641v-1.506v-5.27v-1.506c0-0.221,0.18-0.4,0.4-0.4h21.078  c0.221,0,0.4,0.18,0.4,0.4v1.506v5.27v1.506v27.453h1.834v-1.105v-1.505c0-0.221,0.18-0.4,0.4-0.4h0.164v-1.481  c0-0.492,0.16-0.945,0.425-1.318c-0.266-0.373-0.425-0.826-0.425-1.317c0-1.259,1.024-2.283,2.283-2.283  c1.258,0,2.282,1.024,2.282,2.283c0,0.491-0.16,0.944-0.425,1.317c0.266,0.373,0.425,0.826,0.425,1.318v0.94v0.541h0.164  c0.221,0,0.4,0.18,0.4,0.4v1.505v1.105h2.149l-1.432-45.12H30.814l-1.432,45.12h2.149v-1.105v-1.505c0-0.221,0.18-0.4,0.4-0.4h0.164  v-0.541v-0.94c0-0.492,0.16-0.945,0.425-1.318c-0.266-0.373-0.425-0.826-0.425-1.317c0-1.259,1.024-2.283,2.282-2.283  c1.259,0,2.283,1.024,2.283,2.283c0,0.491-0.16,0.944-0.425,1.317c0.266,0.373,0.425,0.826,0.425,1.318v1.481h0.164  c0.221,0,0.4,0.18,0.4,0.4v1.505v1.105H39.06z M63.574,90.588h4.093v-0.704h-0.164h-1.882h-1.883h-0.164V90.588z M67.102,84.967  c0-0.817-0.664-1.482-1.481-1.482s-1.482,0.665-1.482,1.482c0,0.272,0.079,0.523,0.207,0.742c0.365-0.246,0.804-0.391,1.276-0.391  c0.472,0,0.911,0.144,1.275,0.391C67.024,85.49,67.102,85.239,67.102,84.967z M65.621,86.119c-0.24,0-0.464,0.063-0.665,0.165  c0.201,0.102,0.425,0.164,0.665,0.164s0.464-0.063,0.665-0.164C66.085,86.182,65.861,86.119,65.621,86.119z M64.346,86.859  c-0.128,0.219-0.207,0.471-0.207,0.743v1.481h1.082v-0.541c0-0.739,0.602-1.341,1.341-1.341c0.181,0,0.353,0.038,0.511,0.103  c-0.033-0.161-0.097-0.309-0.177-0.446c-0.364,0.246-0.803,0.39-1.275,0.39C65.149,87.249,64.71,87.105,64.346,86.859z   M66.561,88.002c-0.298,0-0.54,0.242-0.54,0.54v0.541h1.081v-0.541C67.102,88.244,66.86,88.002,66.561,88.002z M60.139,56.76H39.861  v0.705h20.277V56.76z M39.861,58.266v4.469h20.277v-4.469H39.861z M39.861,64.24h20.277v-0.705H39.861V64.24z M58.682,66.899v26.7  h1.457v-1.105V65.041H39.861v27.453V93.6h1.457v-26.7c0-0.221,0.18-0.4,0.4-0.4h16.562C58.502,66.499,58.682,66.679,58.682,66.899z   M60.939,93.6h1.834v-0.705h-1.834V93.6z M67.667,91.389h-4.093V93.6h4.093V91.389z M70.665,93.6l-0.022-0.705h-2.175V93.6h0.753  H70.665z M81.996,93.6l0.047-0.705h-10.6l0.022,0.705H81.996z M83.501,93.6l0.047-0.705h-0.704L82.798,93.6H83.501z M91.004,92.895  h-6.653L84.304,93.6h6.7V92.895z M91.004,92.094V76.333h-5.549l-1.051,15.761H91.004z M79.359,60.9h0.729v0.729  c0,0.221,0.18,0.4,0.4,0.4s0.4-0.18,0.4-0.4V60.9h0.729c0.221,0,0.4-0.18,0.4-0.4s-0.18-0.4-0.4-0.4h-0.729v-0.729  c0-0.221-0.18-0.4-0.4-0.4s-0.4,0.18-0.4,0.4V60.1h-0.729c-0.221,0-0.4,0.18-0.4,0.4S79.139,60.9,79.359,60.9z M72.584,60.9h0.729  v0.729c0,0.221,0.18,0.4,0.4,0.4s0.4-0.18,0.4-0.4V60.9h0.729c0.221,0,0.4-0.18,0.4-0.4s-0.18-0.4-0.4-0.4h-0.729v-0.729  c0-0.221-0.18-0.4-0.4-0.4s-0.4,0.18-0.4,0.4V60.1h-0.729c-0.221,0-0.4,0.18-0.4,0.4S72.363,60.9,72.584,60.9z M73.312,80.449  v-1.505v-7.528c0-0.221,0.18-0.4,0.4-0.4h4.141c0.221,0,0.4,0.18,0.4,0.4v7.528v1.505c0,0.221-0.18,0.4-0.4,0.4h-4.141  C73.492,80.85,73.312,80.67,73.312,80.449z M77.453,79.345h-3.34v0.704h3.34V79.345z M74.113,78.544h3.34v-6.728h-3.34V78.544z   M53.011,52.571h-6.022c-0.221,0-0.4,0.18-0.4,0.4s0.18,0.4,0.4,0.4h6.022c0.221,0,0.4-0.18,0.4-0.4S53.231,52.571,53.011,52.571z   M39.46,53.47c0.13,0,0.26-0.05,0.359-0.15c0.09-0.089,0.14-0.218,0.14-0.347c0-0.001,0-0.002,0-0.002c0-0.13-0.05-0.26-0.141-0.34  c-0.18-0.2-0.539-0.2-0.71-0.01c-0.09,0.09-0.149,0.22-0.149,0.35s0.05,0.26,0.149,0.36C39.2,53.42,39.33,53.47,39.46,53.47z   M41.72,52.47c-0.28,0-0.5,0.23-0.5,0.5c0,0.001,0,0.002,0,0.002c0.001,0.279,0.22,0.498,0.5,0.498c0.27,0,0.498-0.219,0.5-0.498  c0-0.001,0-0.002,0-0.002C42.22,52.7,41.99,52.47,41.72,52.47z M43.63,52.609c-0.1,0.101-0.15,0.23-0.15,0.36  c0,0.001,0,0.002,0,0.002c0.001,0.129,0.051,0.258,0.14,0.358c0.1,0.09,0.229,0.14,0.359,0.14c0.12,0,0.25-0.05,0.36-0.15  c0.09-0.09,0.14-0.22,0.14-0.35s-0.05-0.26-0.149-0.35C44.14,52.43,43.79,52.45,43.63,52.609z M55.67,52.62  c-0.09,0.09-0.15,0.22-0.15,0.35s0.05,0.26,0.15,0.36c0.1,0.09,0.229,0.14,0.35,0.14c0.13,0,0.261-0.05,0.36-0.15  c0.089-0.089,0.139-0.218,0.139-0.347c0-0.001,0-0.002,0-0.002c0-0.13-0.05-0.26-0.14-0.35C56.189,52.43,55.85,52.43,55.67,52.62z   M58.28,52.47c-0.271,0-0.5,0.23-0.5,0.5c0,0.001,0,0.002,0,0.002c0.001,0.279,0.23,0.498,0.5,0.498c0.278,0,0.498-0.219,0.5-0.498  c0-0.001,0-0.002,0-0.002C58.78,52.7,58.56,52.47,58.28,52.47z M60.18,52.62c-0.09,0.09-0.14,0.22-0.14,0.35  c0,0.001,0,0.002,0,0.002c0.001,0.129,0.05,0.258,0.149,0.358c0.101,0.09,0.221,0.14,0.351,0.14s0.26-0.05,0.35-0.14  c0.09-0.101,0.15-0.221,0.15-0.36c0-0.13-0.061-0.27-0.141-0.35C60.71,52.43,60.37,52.43,60.18,52.62z M39.461,50.361h21.078  c0.221,0,0.4-0.18,0.4-0.4s-0.18-0.4-0.4-0.4H39.461c-0.221,0-0.4,0.18-0.4,0.4S39.24,50.361,39.461,50.361z"/><text x="0" y="115" fill="#000000" font-size="5px" font-weight="bold" font-family="'Helvetica Neue', Helvetica, Arial-Unicode, Arial, Sans-serif">Created by NATAPON CHANTABUTR</text><text x="0" y="120" fill="#000000" font-size="5px" font-weight="bold" font-family="'Helvetica Neue', Helvetica, Arial-Unicode, Arial, Sans-serif">from the Noun Project</text></svg>