<?xml version="1.0" encoding="UTF-8" standalone="no"?>
<svg width="54px" height="61px" viewBox="0 0 54 61" version="1.1" xmlns="http://www.w3.org/2000/svg" xmlns:xlink="http://www.w3.org/1999/xlink">
    <!-- Generator: Sketch 3.6.1 (26313) - http://www.bohemiancoding.com/sketch -->
    <title>Untitled 2</title>
    <desc>Created with Sketch.</desc>
    <defs></defs>
    <g id="Page-1" stroke="none" stroke-width="1" fill="none" fill-rule="evenodd">
        <g id="rice_thai" fill="#000000">
            <path d="M2.307,24.646 L0.37,12.218 C0.37,12.218 0.549,11.272 1.02,11 L1.125,11 L21.093,1.841 L53.467,1 L21.145,1 L0.917,10.647 C0.917,10.647 0.004,10.939 0.084,11.639 C0.103,11.802 0.152,12.02 0.218,12.466 L0.084,11.609 L0.827,16.076 C0.851,16.225 0.917,16.301 0.917,16.301 L0.917,16.301 L7.435,59.092 L30.971,59.921 L8.021,58.25 L2.307,24.646 L2.307,24.646 Z M1,17.593 L1.526,20.695 L1,17.591 L1,17.593 L1,17.593 Z" id="Shape"></path>
            <path d="M30.945,59.916 L44.22,53.079 L44.709,52.826 L53.467,1.529 L43.666,51.576 L30.945,59.916 Z" id="Shape"></path>
            <path d="M52.111,1.529 C52.111,1.529 39.069,8.183 36.158,8.41 C27.869,9.058 4.567,10.287 4.567,10.287 L36.785,9.349 L52.111,1.529 L52.111,1.529 Z" id="Shape"></path>
            <path d="M36.055,12 L30.945,60.066 L36.68,12 L36.055,12 Z" id="Shape"></path>
            <path id="Shape" d="M36.422,12.876 L36.68,11.537 C36.5,12.222 36.422,12.876 36.422,12.876 L36.422,12.876 Z"></path>
            <path d="M27.4,3.406 C29.095,3.584 36.002,7.993 36.002,7.993 C36.002,7.993 31.035,3.866 28.246,3.153 L47.262,0.955 L27.201,3.005 C27.201,3.005 27.566,3.041 27.556,3.041 C27.498,3.04 27.425,3.044 27.356,3.05 L24.332,2.186 L26.664,3.151 C22.647,3.952 10.457,8.931 10.457,8.931 C10.457,8.931 25.705,3.228 27.4,3.406 L27.4,3.406 Z" id="Shape"></path>
            <path d="M16.314,18.069 C16.766,18.241 17.253,18.352 17.661,18.597 C19.205,19.524 20.003,20.928 20.084,22.718 C20.109,23.277 20.052,23.843 19.985,24.399 C19.902,25.088 19.527,25.624 18.949,25.997 C18.479,26.301 17.988,26.577 17.498,26.851 C17.108,27.069 16.856,27.373 16.857,27.83 C16.861,29.869 16.825,31.91 16.898,33.946 C16.981,36.303 17.163,38.656 17.303,41.01 C17.336,41.553 17.365,42.095 17.411,42.636 C17.438,42.955 17.343,43.147 16.993,43.142 C16.305,43.133 15.615,43.133 14.927,43.112 C14.579,43.102 14.519,42.869 14.541,42.566 C14.628,41.371 14.699,40.175 14.787,38.98 C14.919,37.188 15.083,35.397 15.193,33.604 C15.309,31.699 15.371,29.79 15.471,27.882 C15.498,27.369 15.315,27.003 14.841,26.808 C13.328,26.184 12.578,24.984 12.273,23.441 C12.252,23.334 12.195,23.233 12.154,23.13 L12.154,22.117 C12.216,21.908 12.286,21.7 12.341,21.489 C12.785,19.772 13.785,18.574 15.529,18.069 L16.314,18.069 L16.314,18.069 Z" id="Shape"></path>
            <path d="M25.199,42.925 C24.715,43.01 24.234,43.135 23.746,43.167 C23.421,43.188 23.287,42.953 23.293,42.604 C23.355,39.12 23.397,35.635 23.455,32.151 C23.522,28.123 23.598,24.095 23.669,20.068 C23.67,19.993 23.67,19.918 23.672,19.843 C23.693,18.923 23.714,18.905 24.703,19.03 C24.741,20.174 24.795,21.328 24.813,22.483 C24.909,28.291 24.993,34.098 25.088,39.904 C25.096,40.387 25.16,40.869 25.198,41.35 C25.199,41.876 25.199,42.399 25.199,42.925 L25.199,42.925 Z" id="Shape"></path>
            <path d="M21.057,19.013 L22.208,19.013 C22.222,19.178 22.243,19.323 22.246,19.468 C22.326,24.282 22.403,29.095 22.483,33.907 C22.53,36.717 22.588,39.526 22.616,42.337 C22.618,42.589 22.461,43.035 22.32,43.06 C21.867,43.14 21.381,43.099 20.924,43.013 C20.841,42.996 20.802,42.544 20.806,42.295 C20.884,37.482 20.99,32.668 21.05,27.854 C21.087,24.934 21.057,22.013 21.057,19.013 L21.057,19.013 Z" id="Shape"></path>
        </g>
    </g>
</svg>