<svg xmlns="http://www.w3.org/2000/svg" xmlns:xlink="http://www.w3.org/1999/xlink" version="1.1" x="0px" y="0px" viewBox="0 0 90 112.5" enable-background="new 0 0 90 90" xml:space="preserve"><path d="M23.307,38.646L21.37,26.218c0,0,0.179-0.946,0.65-1.218h0.105l19.968-9.159L74.467,15H42.145l-20.228,9.647  c0,0-0.913,0.292-0.833,0.992c0.019,0.163,0.068,0.381,0.134,0.827l-0.134-0.857l0.743,4.467c0.024,0.149,0.09,0.225,0.09,0.225l0,0  l6.518,42.791l23.536,0.829l-22.95-1.671L23.307,38.646z M22,31.593l0.526,3.102L22,31.591V31.593z"/><polygon points="51.945,73.916 65.22,67.079 65.709,66.826 74.467,15.529 64.666,65.576 "/><path d="M73.111,15.529c0,0-13.042,6.654-15.953,6.881c-8.289,0.648-31.591,1.877-31.591,1.877l32.218-0.938L73.111,15.529z"/><polygon points="57.055,26 51.945,74.066 57.68,26 "/><path d="M57.422,26.876l0.258-1.339C57.5,26.222,57.422,26.876,57.422,26.876z"/><path d="M48.4,17.406c1.695,0.178,8.602,4.587,8.602,4.587s-4.967-4.127-7.756-4.84l19.016-2.198l-20.061,2.05  c0,0,0.365,0.036,0.355,0.036c-0.058-0.001-0.131,0.003-0.2,0.009l-3.024-0.864l2.332,0.965c-4.017,0.801-16.207,5.78-16.207,5.78  S46.705,17.228,48.4,17.406z"/><path fill-rule="evenodd" clip-rule="evenodd" d="M37.314,32.069c0.452,0.172,0.939,0.283,1.347,0.528  c1.544,0.927,2.342,2.331,2.423,4.121c0.025,0.559-0.032,1.125-0.099,1.681c-0.083,0.689-0.458,1.225-1.036,1.598  c-0.47,0.304-0.961,0.58-1.451,0.854c-0.39,0.218-0.642,0.522-0.641,0.979c0.004,2.039-0.032,4.08,0.041,6.116  c0.083,2.357,0.265,4.71,0.405,7.064c0.033,0.543,0.062,1.085,0.108,1.626c0.027,0.319-0.068,0.511-0.418,0.506  c-0.688-0.009-1.378-0.009-2.066-0.03c-0.348-0.01-0.408-0.243-0.386-0.546c0.087-1.195,0.158-2.391,0.246-3.586  c0.132-1.792,0.296-3.583,0.406-5.376c0.116-1.905,0.178-3.814,0.278-5.722c0.027-0.513-0.156-0.879-0.63-1.074  c-1.513-0.624-2.263-1.824-2.568-3.367c-0.021-0.107-0.078-0.208-0.119-0.311c0-0.337,0-0.675,0-1.013  c0.062-0.209,0.132-0.417,0.187-0.628c0.444-1.717,1.444-2.915,3.188-3.42C36.79,32.069,37.052,32.069,37.314,32.069z"/><path fill-rule="evenodd" clip-rule="evenodd" d="M46.199,56.925c-0.484,0.085-0.965,0.21-1.453,0.242  c-0.325,0.021-0.459-0.214-0.453-0.563c0.062-3.484,0.104-6.969,0.162-10.453c0.067-4.028,0.143-8.056,0.214-12.083  c0.001-0.075,0.001-0.15,0.003-0.225c0.021-0.92,0.042-0.938,1.031-0.813c0.038,1.144,0.092,2.298,0.11,3.453  c0.096,5.808,0.18,11.615,0.275,17.421c0.008,0.483,0.072,0.965,0.11,1.446C46.199,55.876,46.199,56.399,46.199,56.925z"/><path fill-rule="evenodd" clip-rule="evenodd" d="M42.057,33.013c0.503,0,0.812,0,1.151,0c0.014,0.165,0.035,0.31,0.038,0.455  c0.08,4.814,0.157,9.627,0.237,14.439c0.047,2.81,0.105,5.619,0.133,8.43c0.002,0.252-0.155,0.698-0.296,0.723  c-0.453,0.08-0.939,0.039-1.396-0.047c-0.083-0.017-0.122-0.469-0.118-0.718c0.078-4.813,0.184-9.627,0.244-14.441  C42.087,38.934,42.057,36.013,42.057,33.013z"/><text x="0" y="105" fill="#000000" font-size="5px" font-weight="bold" font-family="'Helvetica Neue', Helvetica, Arial-Unicode, Arial, Sans-serif">Created by Paulo Sá Ferreira</text><text x="0" y="110" fill="#000000" font-size="5px" font-weight="bold" font-family="'Helvetica Neue', Helvetica, Arial-Unicode, Arial, Sans-serif">from the Noun Project</text></svg>