<svg xmlns:dc="http://purl.org/dc/elements/1.1/" xmlns:cc="http://creativecommons.org/ns#" xmlns:rdf="http://www.w3.org/1999/02/22-rdf-syntax-ns#" xmlns:svg="http://www.w3.org/2000/svg" xmlns="http://www.w3.org/2000/svg" xmlns:sodipodi="http://sodipodi.sourceforge.net/DTD/sodipodi-0.dtd" xmlns:inkscape="http://www.inkscape.org/namespaces/inkscape" version="1.1" x="0px" y="0px" viewBox="0 0 100 125"><g transform="translate(0,-952.3622)"><g transform="matrix(0.97024549,0,0,0.97024549,2237.3785,697.47575)"><g transform="translate(265.04298,190.01477)"><g transform="matrix(0.99945793,0,0,0.99945793,-704.24113,-162.80732)"><g transform="translate(319.2082,-10.606602)"><g transform="matrix(1.0005424,0,0,1.0005424,611.19968,-88.683459)"><path style="" d="M 36.28125 0 C 35.740046 0 35.3125 0.42754554 35.3125 0.96875 C 35.3125 1.5099545 35.740046 1.96875 36.28125 1.96875 C 36.822454 1.96875 37.25 1.5099545 37.25 0.96875 C 37.25 0.42754554 36.822454 -3.4096398e-016 36.28125 0 z M 40.1875 0 C 39.646296 0 39.21875 0.42754554 39.21875 0.96875 C 39.21875 1.5099545 39.646296 1.96875 40.1875 1.96875 C 40.728704 1.96875 41.1875 1.5099545 41.1875 0.96875 C 41.1875 0.42754554 40.728704 5.5311512e-016 40.1875 0 z M 28.4375 3.9375 C 27.896296 3.9375 27.46875 4.3962955 27.46875 4.9375 C 27.46875 5.4787045 27.896296 5.90625 28.4375 5.90625 C 28.978704 5.90625 29.4375 5.4787045 29.4375 4.9375 C 29.4375 4.3962955 28.978704 3.9375 28.4375 3.9375 z M 32.375 3.9375 C 31.833796 3.9375 31.375 4.3962955 31.375 4.9375 C 31.375 5.4787045 31.833796 5.90625 32.375 5.90625 C 32.916204 5.90625 33.34375 5.4787045 33.34375 4.9375 C 33.34375 4.3962955 32.916204 3.9375 32.375 3.9375 z M 36.28125 3.9375 C 35.740046 3.9375 35.3125 4.3962955 35.3125 4.9375 C 35.3125 5.4787045 35.740046 5.90625 36.28125 5.90625 C 36.822454 5.90625 37.25 5.4787045 37.25 4.9375 C 37.25 4.3962955 36.822454 3.9375 36.28125 3.9375 z M 40.1875 3.9375 C 39.646296 3.9375 39.21875 4.3962955 39.21875 4.9375 C 39.21875 5.4787045 39.646296 5.90625 40.1875 5.90625 C 40.728704 5.90625 41.1875 5.4787045 41.1875 4.9375 C 41.1875 4.3962955 40.728704 3.9375 40.1875 3.9375 z M 44.125 3.9375 C 43.583796 3.9375 43.125 4.3962955 43.125 4.9375 C 43.125 5.4787045 43.583796 5.90625 44.125 5.90625 C 44.666204 5.90625 45.09375 5.4787045 45.09375 4.9375 C 45.09375 4.3962955 44.666204 3.9375 44.125 3.9375 z M 28.4375 7.84375 C 27.896296 7.84375 27.46875 8.3025455 27.46875 8.84375 C 27.46875 9.3849545 27.896296 9.8125 28.4375 9.8125 C 28.978704 9.8125 29.4375 9.3849545 29.4375 8.84375 C 29.4375 8.3025455 28.978704 7.84375 28.4375 7.84375 z M 32.375 7.84375 C 31.833796 7.84375 31.375 8.3025455 31.375 8.84375 C 31.375 9.3849545 31.833796 9.8125 32.375 9.8125 C 32.916204 9.8125 33.34375 9.3849545 33.34375 8.84375 C 33.34375 8.3025455 32.916204 7.84375 32.375 7.84375 z M 36.28125 7.84375 C 35.740046 7.84375 35.3125 8.3025455 35.3125 8.84375 C 35.3125 9.3849545 35.740046 9.8125 36.28125 9.8125 C 36.822454 9.8125 37.25 9.3849545 37.25 8.84375 C 37.25 8.3025455 36.822454 7.84375 36.28125 7.84375 z M 40.1875 7.84375 C 39.646296 7.84375 39.21875 8.3025455 39.21875 8.84375 C 39.21875 9.3849545 39.646296 9.8125 40.1875 9.8125 C 40.728704 9.8125 41.1875 9.3849545 41.1875 8.84375 C 41.1875 8.3025455 40.728704 7.84375 40.1875 7.84375 z M 44.125 7.84375 C 43.583796 7.84375 43.125 8.3025455 43.125 8.84375 C 43.125 9.3849545 43.583796 9.8125 44.125 9.8125 C 44.666204 9.8125 45.09375 9.3849545 45.09375 8.84375 C 45.09375 8.3025455 44.666204 7.84375 44.125 7.84375 z M 48.03125 7.84375 C 47.490046 7.84375 47.0625 8.3025455 47.0625 8.84375 C 47.0625 9.3849545 47.490046 9.8125 48.03125 9.8125 C 48.572454 9.8125 49 9.3849545 49 8.84375 C 49 8.3025455 48.572454 7.84375 48.03125 7.84375 z M 28.4375 11.8125 C 27.896296 11.8125 27.46875 12.240046 27.46875 12.78125 C 27.46875 13.322454 27.896296 13.75 28.4375 13.75 C 28.978704 13.75 29.4375 13.322454 29.4375 12.78125 C 29.4375 12.240046 28.978704 11.8125 28.4375 11.8125 z M 32.375 11.8125 C 31.833796 11.8125 31.375 12.240046 31.375 12.78125 C 31.375 13.322454 31.833796 13.75 32.375 13.75 C 32.916204 13.75 33.34375 13.322454 33.34375 12.78125 C 33.34375 12.240046 32.916204 11.8125 32.375 11.8125 z M 36.28125 11.8125 C 35.740046 11.8125 35.3125 12.240046 35.3125 12.78125 C 35.3125 13.322454 35.740046 13.75 36.28125 13.75 C 36.822454 13.75 37.25 13.322454 37.25 12.78125 C 37.25 12.240046 36.822454 11.8125 36.28125 11.8125 z M 40.1875 11.8125 C 39.646296 11.8125 39.21875 12.240046 39.21875 12.78125 C 39.21875 13.322454 39.646296 13.75 40.1875 13.75 C 40.728704 13.75 41.1875 13.322454 41.1875 12.78125 C 41.1875 12.240046 40.728704 11.8125 40.1875 11.8125 z M 44.125 11.8125 C 43.583796 11.8125 43.125 12.240046 43.125 12.78125 C 43.125 13.322454 43.583796 13.75 44.125 13.75 C 44.666204 13.75 45.09375 13.322454 45.09375 12.78125 C 45.09375 12.240046 44.666204 11.8125 44.125 11.8125 z M 48.03125 11.8125 C 47.490046 11.8125 47.0625 12.240046 47.0625 12.78125 C 47.0625 13.322454 47.490046 13.75 48.03125 13.75 C 48.572454 13.75 49 13.322454 49 12.78125 C 49 12.240046 48.572454 11.8125 48.03125 11.8125 z M 51.96875 15.65625 C 51.427546 15.65625 51 16.115046 51 16.65625 C 51 17.197454 51.427546 17.625 51.96875 17.625 C 52.509954 17.625 52.9375 17.197454 52.9375 16.65625 C 52.9375 16.115046 52.509954 15.65625 51.96875 15.65625 z M 24.5 15.6875 C 23.958796 15.6875 23.53125 16.146296 23.53125 16.6875 C 23.53125 17.228704 23.958796 17.65625 24.5 17.65625 C 25.041204 17.65625 25.5 17.228704 25.5 16.6875 C 25.5 16.146296 25.041204 15.6875 24.5 15.6875 z M 28.4375 15.6875 C 27.896296 15.6875 27.46875 16.146296 27.46875 16.6875 C 27.46875 17.228704 27.896296 17.65625 28.4375 17.65625 C 28.978704 17.65625 29.4375 17.228704 29.4375 16.6875 C 29.4375 16.146296 28.978704 15.6875 28.4375 15.6875 z M 32.375 15.6875 C 31.833796 15.6875 31.375 16.146296 31.375 16.6875 C 31.375 17.228704 31.833796 17.65625 32.375 17.65625 C 32.916204 17.65625 33.34375 17.228704 33.34375 16.6875 C 33.34375 16.146296 32.916204 15.6875 32.375 15.6875 z M 36.28125 15.6875 C 35.740046 15.6875 35.3125 16.146296 35.3125 16.6875 C 35.3125 17.228704 35.740046 17.65625 36.28125 17.65625 C 36.822454 17.65625 37.25 17.228704 37.25 16.6875 C 37.25 16.146296 36.822454 15.6875 36.28125 15.6875 z M 40.1875 15.6875 C 39.646296 15.6875 39.21875 16.146296 39.21875 16.6875 C 39.21875 17.228704 39.646296 17.65625 40.1875 17.65625 C 40.728704 17.65625 41.1875 17.228704 41.1875 16.6875 C 41.1875 16.146296 40.728704 15.6875 40.1875 15.6875 z M 44.125 15.6875 C 43.583796 15.6875 43.125 16.146296 43.125 16.6875 C 43.125 17.228704 43.583796 17.65625 44.125 17.65625 C 44.666204 17.65625 45.09375 17.228704 45.09375 16.6875 C 45.09375 16.146296 44.666204 15.6875 44.125 15.6875 z M 48.03125 15.6875 C 47.490046 15.6875 47.0625 16.146296 47.0625 16.6875 C 47.0625 17.228704 47.490046 17.65625 48.03125 17.65625 C 48.572454 17.65625 49 17.228704 49 16.6875 C 49 16.146296 48.572454 15.6875 48.03125 15.6875 z M 55.90625 15.6875 C 55.365046 15.6875 54.90625 16.146296 54.90625 16.6875 C 54.90625 17.228704 55.365046 17.65625 55.90625 17.65625 C 56.447454 17.65625 56.875 17.228704 56.875 16.6875 C 56.875 16.146296 56.447454 15.6875 55.90625 15.6875 z M 59.78125 15.6875 C 59.240046 15.6875 58.8125 16.146296 58.8125 16.6875 C 58.8125 17.228704 59.240046 17.65625 59.78125 17.65625 C 60.322454 17.65625 60.78125 17.228704 60.78125 16.6875 C 60.78125 16.146296 60.322454 15.6875 59.78125 15.6875 z M 63.71875 15.6875 C 63.177546 15.6875 62.75 16.146296 62.75 16.6875 C 62.75 17.228704 63.177546 17.65625 63.71875 17.65625 C 64.259954 17.65625 64.71875 17.228704 64.71875 16.6875 C 64.71875 16.146296 64.259954 15.6875 63.71875 15.6875 z M 67.65625 15.6875 C 67.115046 15.6875 66.65625 16.146296 66.65625 16.6875 C 66.65625 17.228704 67.115046 17.65625 67.65625 17.65625 C 68.197454 17.65625 68.625 17.228704 68.625 16.6875 C 68.625 16.146296 68.197454 15.6875 67.65625 15.6875 z M 51.96875 19.59375 C 51.427546 19.59375 51 20.052546 51 20.59375 C 51 21.134954 51.427546 21.5625 51.96875 21.5625 C 52.509954 21.5625 52.9375 21.134954 52.9375 20.59375 C 52.9375 20.052546 52.509954 19.59375 51.96875 19.59375 z M 28.4375 19.625 C 27.896296 19.625 27.46875 20.083796 27.46875 20.625 C 27.46875 21.166204 27.896296 21.59375 28.4375 21.59375 C 28.978704 21.59375 29.4375 21.166204 29.4375 20.625 C 29.4375 20.083796 28.978704 19.625 28.4375 19.625 z M 32.375 19.625 C 31.833796 19.625 31.375 20.083796 31.375 20.625 C 31.375 21.166204 31.833796 21.59375 32.375 21.59375 C 32.916204 21.59375 33.34375 21.166204 33.34375 20.625 C 33.34375 20.083796 32.916204 19.625 32.375 19.625 z M 36.28125 19.625 C 35.740046 19.625 35.3125 20.083796 35.3125 20.625 C 35.3125 21.166204 35.740046 21.59375 36.28125 21.59375 C 36.822454 21.59375 37.25 21.166204 37.25 20.625 C 37.25 20.083796 36.822454 19.625 36.28125 19.625 z M 40.1875 19.625 C 39.646296 19.625 39.21875 20.083796 39.21875 20.625 C 39.21875 21.166204 39.646296 21.59375 40.1875 21.59375 C 40.728704 21.59375 41.1875 21.166204 41.1875 20.625 C 41.1875 20.083796 40.728704 19.625 40.1875 19.625 z M 44.125 19.625 C 43.583796 19.625 43.125 20.083796 43.125 20.625 C 43.125 21.166204 43.583796 21.59375 44.125 21.59375 C 44.666204 21.59375 45.09375 21.166204 45.09375 20.625 C 45.09375 20.083796 44.666204 19.625 44.125 19.625 z M 48.03125 19.625 C 47.490046 19.625 47.0625 20.083796 47.0625 20.625 C 47.0625 21.166204 47.490046 21.59375 48.03125 21.59375 C 48.572454 21.59375 49 21.166204 49 20.625 C 49 20.083796 48.572454 19.625 48.03125 19.625 z M 55.90625 19.65625 C 55.365046 19.65625 54.90625 20.083796 54.90625 20.625 C 54.90625 21.166204 55.365046 21.59375 55.90625 21.59375 C 56.447454 21.59375 56.875 21.166204 56.875 20.625 C 56.875 20.083796 56.447454 19.65625 55.90625 19.65625 z M 59.78125 19.65625 C 59.240046 19.65625 58.8125 20.083796 58.8125 20.625 C 58.8125 21.166204 59.240046 21.59375 59.78125 21.59375 C 60.322454 21.59375 60.78125 21.166204 60.78125 20.625 C 60.78125 20.083796 60.322454 19.65625 59.78125 19.65625 z M 63.71875 19.65625 C 63.177546 19.65625 62.75 20.083796 62.75 20.625 C 62.75 21.166204 63.177546 21.59375 63.71875 21.59375 C 64.259954 21.59375 64.71875 21.166204 64.71875 20.625 C 64.71875 20.083796 64.259954 19.65625 63.71875 19.65625 z M 67.65625 19.65625 C 67.115046 19.65625 66.65625 20.083796 66.65625 20.625 C 66.65625 21.166204 67.115046 21.59375 67.65625 21.59375 C 68.197454 21.59375 68.625 21.166204 68.625 20.625 C 68.625 20.083796 68.197454 19.65625 67.65625 19.65625 z M 71.5625 19.65625 C 71.021296 19.65625 70.59375 20.083796 70.59375 20.625 C 70.59375 21.166204 71.021296 21.59375 71.5625 21.59375 C 72.103704 21.59375 72.53125 21.166204 72.53125 20.625 C 72.53125 20.083796 72.103704 19.65625 71.5625 19.65625 z M 51.96875 23.53125 C 51.427546 23.53125 51 23.958796 51 24.5 C 51 25.041204 51.427546 25.46875 51.96875 25.46875 C 52.509954 25.46875 52.9375 25.041204 52.9375 24.5 C 52.9375 23.958796 52.509954 23.53125 51.96875 23.53125 z M 32.375 23.5625 C 31.833796 23.5625 31.375 23.990046 31.375 24.53125 C 31.375 25.072454 31.833796 25.5 32.375 25.5 C 32.916204 25.5 33.34375 25.072454 33.34375 24.53125 C 33.34375 23.990046 32.916204 23.5625 32.375 23.5625 z M 36.28125 23.5625 C 35.740046 23.5625 35.3125 23.990046 35.3125 24.53125 C 35.3125 25.072454 35.740046 25.5 36.28125 25.5 C 36.822454 25.5 37.25 25.072454 37.25 24.53125 C 37.25 23.990046 36.822454 23.5625 36.28125 23.5625 z M 40.1875 23.5625 C 39.646296 23.5625 39.21875 23.990046 39.21875 24.53125 C 39.21875 25.072454 39.646296 25.5 40.1875 25.5 C 40.728704 25.5 41.1875 25.072454 41.1875 24.53125 C 41.1875 23.990046 40.728704 23.5625 40.1875 23.5625 z M 44.125 23.5625 C 43.583796 23.5625 43.125 23.990046 43.125 24.53125 C 43.125 25.072454 43.583796 25.5 44.125 25.5 C 44.666204 25.5 45.09375 25.072454 45.09375 24.53125 C 45.09375 23.990046 44.666204 23.5625 44.125 23.5625 z M 48.03125 23.5625 C 47.490046 23.5625 47.0625 23.990046 47.0625 24.53125 C 47.0625 25.072454 47.490046 25.5 48.03125 25.5 C 48.572454 25.5 49 25.072454 49 24.53125 C 49 23.990046 48.572454 23.5625 48.03125 23.5625 z M 55.90625 23.5625 C 55.365046 23.5625 54.90625 23.990046 54.90625 24.53125 C 54.90625 25.072454 55.365046 25.53125 55.90625 25.53125 C 56.447454 25.53125 56.875 25.072454 56.875 24.53125 C 56.875 23.990046 56.447454 23.5625 55.90625 23.5625 z M 59.78125 23.5625 C 59.240046 23.5625 58.8125 23.990046 58.8125 24.53125 C 58.8125 25.072454 59.240046 25.53125 59.78125 25.53125 C 60.322454 25.53125 60.78125 25.072454 60.78125 24.53125 C 60.78125 23.990046 60.322454 23.5625 59.78125 23.5625 z M 63.71875 23.5625 C 63.177546 23.5625 62.75 23.990046 62.75 24.53125 C 62.75 25.072454 63.177546 25.53125 63.71875 25.53125 C 64.259954 25.53125 64.71875 25.072454 64.71875 24.53125 C 64.71875 23.990046 64.259954 23.5625 63.71875 23.5625 z M 67.65625 23.5625 C 67.115046 23.5625 66.65625 23.990046 66.65625 24.53125 C 66.65625 25.072454 67.115046 25.53125 67.65625 25.53125 C 68.197454 25.53125 68.625 25.072454 68.625 24.53125 C 68.625 23.990046 68.197454 23.5625 67.65625 23.5625 z M 71.5625 23.5625 C 71.021296 23.5625 70.59375 23.990046 70.59375 24.53125 C 70.59375 25.072454 71.021296 25.53125 71.5625 25.53125 C 72.103704 25.53125 72.53125 25.072454 72.53125 24.53125 C 72.53125 23.990046 72.103704 23.5625 71.5625 23.5625 z M 51.96875 27.46875 C 51.427546 27.46875 51 27.896296 51 28.4375 C 51 28.978704 51.427546 29.4375 51.96875 29.4375 C 52.509954 29.4375 52.9375 28.978704 52.9375 28.4375 C 52.9375 27.896296 52.509954 27.46875 51.96875 27.46875 z M 32.375 27.5 C 31.833796 27.5 31.375 27.927546 31.375 28.46875 C 31.375 29.009954 31.833796 29.46875 32.375 29.46875 C 32.916204 29.46875 33.34375 29.009954 33.34375 28.46875 C 33.34375 27.927546 32.916204 27.5 32.375 27.5 z M 36.28125 27.5 C 35.740046 27.5 35.3125 27.927546 35.3125 28.46875 C 35.3125 29.009954 35.740046 29.46875 36.28125 29.46875 C 36.822454 29.46875 37.25 29.009954 37.25 28.46875 C 37.25 27.927546 36.822454 27.5 36.28125 27.5 z M 40.1875 27.5 C 39.646296 27.5 39.21875 27.927546 39.21875 28.46875 C 39.21875 29.009954 39.646296 29.46875 40.1875 29.46875 C 40.728704 29.46875 41.1875 29.009954 41.1875 28.46875 C 41.1875 27.927546 40.728704 27.5 40.1875 27.5 z M 44.125 27.5 C 43.583796 27.5 43.125 27.927546 43.125 28.46875 C 43.125 29.009954 43.583796 29.46875 44.125 29.46875 C 44.666204 29.46875 45.09375 29.009954 45.09375 28.46875 C 45.09375 27.927546 44.666204 27.5 44.125 27.5 z M 48.03125 27.5 C 47.490046 27.5 47.0625 27.927546 47.0625 28.46875 C 47.0625 29.009954 47.490046 29.46875 48.03125 29.46875 C 48.572454 29.46875 49 29.009954 49 28.46875 C 49 27.927546 48.572454 27.5 48.03125 27.5 z M 55.90625 27.5 C 55.365046 27.5 54.90625 27.927546 54.90625 28.46875 C 54.90625 29.009954 55.365046 29.46875 55.90625 29.46875 C 56.447454 29.46875 56.875 29.009954 56.875 28.46875 C 56.875 27.927546 56.447454 27.5 55.90625 27.5 z M 59.78125 27.5 C 59.240046 27.5 58.8125 27.927546 58.8125 28.46875 C 58.8125 29.009954 59.240046 29.46875 59.78125 29.46875 C 60.322454 29.46875 60.78125 29.009954 60.78125 28.46875 C 60.78125 27.927546 60.322454 27.5 59.78125 27.5 z M 63.71875 27.5 C 63.177546 27.5 62.75 27.927546 62.75 28.46875 C 62.75 29.009954 63.177546 29.46875 63.71875 29.46875 C 64.259954 29.46875 64.71875 29.009954 64.71875 28.46875 C 64.71875 27.927546 64.259954 27.5 63.71875 27.5 z M 67.65625 27.5 C 67.115046 27.5 66.65625 27.927546 66.65625 28.46875 C 66.65625 29.009954 67.115046 29.46875 67.65625 29.46875 C 68.197454 29.46875 68.625 29.009954 68.625 28.46875 C 68.625 27.927546 68.197454 27.5 67.65625 27.5 z M 71.5625 27.5 C 71.021296 27.5 70.59375 27.927546 70.59375 28.46875 C 70.59375 29.009954 71.021296 29.46875 71.5625 29.46875 C 72.103704 29.46875 72.53125 29.009954 72.53125 28.46875 C 72.53125 27.927546 72.103704 27.5 71.5625 27.5 z M 51.96875 31.34375 C 51.427546 31.34375 51 31.771296 51 32.3125 C 51 32.853704 51.427546 33.28125 51.96875 33.28125 C 52.509954 33.28125 52.9375 32.853704 52.9375 32.3125 C 52.9375 31.771296 52.509954 31.34375 51.96875 31.34375 z M 32.375 31.375 C 31.833796 31.375 31.375 31.802546 31.375 32.34375 C 31.375 32.884954 31.833796 33.3125 32.375 33.3125 C 32.916204 33.3125 33.34375 32.884954 33.34375 32.34375 C 33.34375 31.802546 32.916204 31.375 32.375 31.375 z M 36.28125 31.375 C 35.740046 31.375 35.3125 31.802546 35.3125 32.34375 C 35.3125 32.884954 35.740046 33.3125 36.28125 33.3125 C 36.822454 33.3125 37.25 32.884954 37.25 32.34375 C 37.25 31.802546 36.822454 31.375 36.28125 31.375 z M 40.1875 31.375 C 39.646296 31.375 39.21875 31.802546 39.21875 32.34375 C 39.21875 32.884954 39.646296 33.3125 40.1875 33.3125 C 40.728704 33.3125 41.1875 32.884954 41.1875 32.34375 C 41.1875 31.802546 40.728704 31.375 40.1875 31.375 z M 44.125 31.375 C 43.583796 31.375 43.125 31.802546 43.125 32.34375 C 43.125 32.884954 43.583796 33.3125 44.125 33.3125 C 44.666204 33.3125 45.09375 32.884954 45.09375 32.34375 C 45.09375 31.802546 44.666204 31.375 44.125 31.375 z M 48.03125 31.375 C 47.490046 31.375 47.0625 31.802546 47.0625 32.34375 C 47.0625 32.884954 47.490046 33.3125 48.03125 33.3125 C 48.572454 33.3125 49 32.884954 49 32.34375 C 49 31.802546 48.572454 31.375 48.03125 31.375 z M 55.90625 31.375 C 55.365046 31.375 54.90625 31.802546 54.90625 32.34375 C 54.90625 32.884954 55.365046 33.3125 55.90625 33.3125 C 56.447454 33.3125 56.875 32.884954 56.875 32.34375 C 56.875 31.802546 56.447454 31.375 55.90625 31.375 z M 59.78125 31.375 C 59.240046 31.375 58.8125 31.802546 58.8125 32.34375 C 58.8125 32.884954 59.240046 33.3125 59.78125 33.3125 C 60.322454 33.3125 60.78125 32.884954 60.78125 32.34375 C 60.78125 31.802546 60.322454 31.375 59.78125 31.375 z M 63.71875 31.375 C 63.177546 31.375 62.75 31.802546 62.75 32.34375 C 62.75 32.884954 63.177546 33.3125 63.71875 33.3125 C 64.259954 33.3125 64.71875 32.884954 64.71875 32.34375 C 64.71875 31.802546 64.259954 31.375 63.71875 31.375 z M 67.65625 31.375 C 67.115046 31.375 66.65625 31.802546 66.65625 32.34375 C 66.65625 32.884954 67.115046 33.3125 67.65625 33.3125 C 68.197454 33.3125 68.625 32.884954 68.625 32.34375 C 68.625 31.802546 68.197454 31.375 67.65625 31.375 z M 71.5625 31.375 C 71.021296 31.375 70.59375 31.802546 70.59375 32.34375 C 70.59375 32.884954 71.021296 33.3125 71.5625 33.3125 C 72.103704 33.3125 72.53125 32.884954 72.53125 32.34375 C 72.53125 31.802546 72.103704 31.375 71.5625 31.375 z M 75.5 31.375 C 74.958796 31.375 74.5 31.802546 74.5 32.34375 C 74.5 32.884954 74.958796 33.3125 75.5 33.3125 C 76.041204 33.3125 76.46875 32.884954 76.46875 32.34375 C 76.46875 31.802546 76.041204 31.375 75.5 31.375 z M 51.96875 35.28125 C 51.427546 35.28125 51 35.708796 51 36.25 C 51 36.791204 51.427546 37.21875 51.96875 37.21875 C 52.509954 37.21875 52.9375 36.791204 52.9375 36.25 C 52.9375 35.708796 52.509954 35.28125 51.96875 35.28125 z M 28.4375 35.3125 C 27.896296 35.3125 27.46875 35.740046 27.46875 36.28125 C 27.46875 36.822454 27.896296 37.28125 28.4375 37.28125 C 28.978704 37.28125 29.4375 36.822454 29.4375 36.28125 C 29.4375 35.740046 28.978704 35.3125 28.4375 35.3125 z M 32.375 35.3125 C 31.833796 35.3125 31.375 35.740046 31.375 36.28125 C 31.375 36.822454 31.833796 37.28125 32.375 37.28125 C 32.916204 37.28125 33.34375 36.822454 33.34375 36.28125 C 33.34375 35.740046 32.916204 35.3125 32.375 35.3125 z M 36.28125 35.3125 C 35.740046 35.3125 35.3125 35.740046 35.3125 36.28125 C 35.3125 36.822454 35.740046 37.28125 36.28125 37.28125 C 36.822454 37.28125 37.25 36.822454 37.25 36.28125 C 37.25 35.740046 36.822454 35.3125 36.28125 35.3125 z M 40.1875 35.3125 C 39.646296 35.3125 39.21875 35.740046 39.21875 36.28125 C 39.21875 36.822454 39.646296 37.28125 40.1875 37.28125 C 40.728704 37.28125 41.1875 36.822454 41.1875 36.28125 C 41.1875 35.740046 40.728704 35.3125 40.1875 35.3125 z M 44.125 35.3125 C 43.583796 35.3125 43.125 35.740046 43.125 36.28125 C 43.125 36.822454 43.583796 37.28125 44.125 37.28125 C 44.666204 37.28125 45.09375 36.822454 45.09375 36.28125 C 45.09375 35.740046 44.666204 35.3125 44.125 35.3125 z M 48.03125 35.3125 C 47.490046 35.3125 47.0625 35.740046 47.0625 36.28125 C 47.0625 36.822454 47.490046 37.28125 48.03125 37.28125 C 48.572454 37.28125 49 36.822454 49 36.28125 C 49 35.740046 48.572454 35.3125 48.03125 35.3125 z M 55.90625 35.3125 C 55.365046 35.3125 54.90625 35.740046 54.90625 36.28125 C 54.90625 36.822454 55.365046 37.28125 55.90625 37.28125 C 56.447454 37.28125 56.875 36.822454 56.875 36.28125 C 56.875 35.740046 56.447454 35.3125 55.90625 35.3125 z M 59.78125 35.3125 C 59.240046 35.3125 58.8125 35.740046 58.8125 36.28125 C 58.8125 36.822454 59.240046 37.28125 59.78125 37.28125 C 60.322454 37.28125 60.78125 36.822454 60.78125 36.28125 C 60.78125 35.740046 60.322454 35.3125 59.78125 35.3125 z M 63.71875 35.3125 C 63.177546 35.3125 62.75 35.740046 62.75 36.28125 C 62.75 36.822454 63.177546 37.28125 63.71875 37.28125 C 64.259954 37.28125 64.71875 36.822454 64.71875 36.28125 C 64.71875 35.740046 64.259954 35.3125 63.71875 35.3125 z M 67.65625 35.3125 C 67.115046 35.3125 66.65625 35.740046 66.65625 36.28125 C 66.65625 36.822454 67.115046 37.28125 67.65625 37.28125 C 68.197454 37.28125 68.625 36.822454 68.625 36.28125 C 68.625 35.740046 68.197454 35.3125 67.65625 35.3125 z M 71.5625 35.3125 C 71.021296 35.3125 70.59375 35.740046 70.59375 36.28125 C 70.59375 36.822454 71.021296 37.28125 71.5625 37.28125 C 72.103704 37.28125 72.53125 36.822454 72.53125 36.28125 C 72.53125 35.740046 72.103704 35.3125 71.5625 35.3125 z M 75.5 35.3125 C 74.958796 35.3125 74.5 35.740046 74.5 36.28125 C 74.5 36.822454 74.958796 37.28125 75.5 37.28125 C 76.041204 37.28125 76.46875 36.822454 76.46875 36.28125 C 76.46875 35.740046 76.041204 35.3125 75.5 35.3125 z M 51.96875 39.1875 C 51.427546 39.1875 51 39.615046 51 40.15625 C 51 40.697454 51.427546 41.15625 51.96875 41.15625 C 52.509954 41.15625 52.9375 40.697454 52.9375 40.15625 C 52.9375 39.615046 52.509954 39.1875 51.96875 39.1875 z M 32.375 39.21875 C 31.833796 39.21875 31.375 39.646296 31.375 40.1875 C 31.375 40.728704 31.833796 41.1875 32.375 41.1875 C 32.916204 41.1875 33.34375 40.728704 33.34375 40.1875 C 33.34375 39.646296 32.916204 39.21875 32.375 39.21875 z M 36.28125 39.21875 C 35.740046 39.21875 35.3125 39.646296 35.3125 40.1875 C 35.3125 40.728704 35.740046 41.1875 36.28125 41.1875 C 36.822454 41.1875 37.25 40.728704 37.25 40.1875 C 37.25 39.646296 36.822454 39.21875 36.28125 39.21875 z M 40.1875 39.21875 C 39.646296 39.21875 39.21875 39.646296 39.21875 40.1875 C 39.21875 40.728704 39.646296 41.1875 40.1875 41.1875 C 40.728704 41.1875 41.1875 40.728704 41.1875 40.1875 C 41.1875 39.646296 40.728704 39.21875 40.1875 39.21875 z M 44.125 39.21875 C 43.583796 39.21875 43.125 39.646296 43.125 40.1875 C 43.125 40.728704 43.583796 41.1875 44.125 41.1875 C 44.666204 41.1875 45.09375 40.728704 45.09375 40.1875 C 45.09375 39.646296 44.666204 39.21875 44.125 39.21875 z M 48.03125 39.21875 C 47.490046 39.21875 47.0625 39.646296 47.0625 40.1875 C 47.0625 40.728704 47.490046 41.1875 48.03125 41.1875 C 48.572454 41.1875 49 40.728704 49 40.1875 C 49 39.646296 48.572454 39.21875 48.03125 39.21875 z M 55.90625 39.21875 C 55.365046 39.21875 54.90625 39.677546 54.90625 40.21875 C 54.90625 40.759954 55.365046 41.1875 55.90625 41.1875 C 56.447454 41.1875 56.875 40.759954 56.875 40.21875 C 56.875 39.677546 56.447454 39.21875 55.90625 39.21875 z M 59.78125 39.21875 C 59.240046 39.21875 58.8125 39.677546 58.8125 40.21875 C 58.8125 40.759954 59.240046 41.1875 59.78125 41.1875 C 60.322454 41.1875 60.78125 40.759954 60.78125 40.21875 C 60.78125 39.677546 60.322454 39.21875 59.78125 39.21875 z M 63.71875 39.21875 C 63.177546 39.21875 62.75 39.677546 62.75 40.21875 C 62.75 40.759954 63.177546 41.1875 63.71875 41.1875 C 64.259954 41.1875 64.71875 40.759954 64.71875 40.21875 C 64.71875 39.677546 64.259954 39.21875 63.71875 39.21875 z M 67.65625 39.21875 C 67.115046 39.21875 66.65625 39.677546 66.65625 40.21875 C 66.65625 40.759954 67.115046 41.1875 67.65625 41.1875 C 68.197454 41.1875 68.625 40.759954 68.625 40.21875 C 68.625 39.677546 68.197454 39.21875 67.65625 39.21875 z M 71.5625 39.21875 C 71.021296 39.21875 70.59375 39.677546 70.59375 40.21875 C 70.59375 40.759954 71.021296 41.1875 71.5625 41.1875 C 72.103704 41.1875 72.53125 40.759954 72.53125 40.21875 C 72.53125 39.677546 72.103704 39.21875 71.5625 39.21875 z M 75.5 39.21875 C 74.958796 39.21875 74.5 39.677546 74.5 40.21875 C 74.5 40.759954 74.958796 41.1875 75.5 41.1875 C 76.041204 41.1875 76.46875 40.759954 76.46875 40.21875 C 76.46875 39.677546 76.041204 39.21875 75.5 39.21875 z M 51.96875 43.125 C 51.427546 43.125 51 43.583796 51 44.125 C 51 44.666204 51.427546 45.09375 51.96875 45.09375 C 52.509954 45.09375 52.9375 44.666204 52.9375 44.125 C 52.9375 43.583796 52.509954 43.125 51.96875 43.125 z M 32.375 43.15625 C 31.833796 43.15625 31.375 43.615046 31.375 44.15625 C 31.375 44.697454 31.833796 45.125 32.375 45.125 C 32.916204 45.125 33.34375 44.697454 33.34375 44.15625 C 33.34375 43.615046 32.916204 43.15625 32.375 43.15625 z M 36.28125 43.15625 C 35.740046 43.15625 35.3125 43.615046 35.3125 44.15625 C 35.3125 44.697454 35.740046 45.125 36.28125 45.125 C 36.822454 45.125 37.25 44.697454 37.25 44.15625 C 37.25 43.615046 36.822454 43.15625 36.28125 43.15625 z M 40.1875 43.15625 C 39.646296 43.15625 39.21875 43.615046 39.21875 44.15625 C 39.21875 44.697454 39.646296 45.125 40.1875 45.125 C 40.728704 45.125 41.1875 44.697454 41.1875 44.15625 C 41.1875 43.615046 40.728704 43.15625 40.1875 43.15625 z M 44.125 43.15625 C 43.583796 43.15625 43.125 43.615046 43.125 44.15625 C 43.125 44.697454 43.583796 45.125 44.125 45.125 C 44.666204 45.125 45.09375 44.697454 45.09375 44.15625 C 45.09375 43.615046 44.666204 43.15625 44.125 43.15625 z M 48.03125 43.15625 C 47.490046 43.15625 47.0625 43.615046 47.0625 44.15625 C 47.0625 44.697454 47.490046 45.125 48.03125 45.125 C 48.572454 45.125 49 44.697454 49 44.15625 C 49 43.615046 48.572454 43.15625 48.03125 43.15625 z M 55.90625 43.15625 C 55.365046 43.15625 54.90625 43.615046 54.90625 44.15625 C 54.90625 44.697454 55.365046 45.125 55.90625 45.125 C 56.447454 45.125 56.875 44.697454 56.875 44.15625 C 56.875 43.615046 56.447454 43.15625 55.90625 43.15625 z M 59.78125 43.15625 C 59.240046 43.15625 58.8125 43.615046 58.8125 44.15625 C 58.8125 44.697454 59.240046 45.125 59.78125 45.125 C 60.322454 45.125 60.78125 44.697454 60.78125 44.15625 C 60.78125 43.615046 60.322454 43.15625 59.78125 43.15625 z M 51.96875 47.03125 C 51.427546 47.03125 51 47.458796 51 48 C 51 48.541204 51.427546 48.96875 51.96875 48.96875 C 52.509954 48.96875 52.9375 48.541204 52.9375 48 C 52.9375 47.458796 52.509954 47.03125 51.96875 47.03125 z M 36.28125 47.0625 C 35.740046 47.0625 35.3125 47.490046 35.3125 48.03125 C 35.3125 48.572454 35.740046 49 36.28125 49 C 36.822454 49 37.25 48.572454 37.25 48.03125 C 37.25 47.490046 36.822454 47.0625 36.28125 47.0625 z M 40.1875 47.0625 C 39.646296 47.0625 39.21875 47.490046 39.21875 48.03125 C 39.21875 48.572454 39.646296 49 40.1875 49 C 40.728704 49 41.1875 48.572454 41.1875 48.03125 C 41.1875 47.490046 40.728704 47.0625 40.1875 47.0625 z M 44.125 47.0625 C 43.583796 47.0625 43.125 47.490046 43.125 48.03125 C 43.125 48.572454 43.583796 49 44.125 49 C 44.666204 49 45.09375 48.572454 45.09375 48.03125 C 45.09375 47.490046 44.666204 47.0625 44.125 47.0625 z M 48.03125 47.0625 C 47.490046 47.0625 47.0625 47.490046 47.0625 48.03125 C 47.0625 48.572454 47.490046 49 48.03125 49 C 48.572454 49 49 48.572454 49 48.03125 C 49 47.490046 48.572454 47.0625 48.03125 47.0625 z M 55.90625 47.0625 C 55.365046 47.0625 54.90625 47.490046 54.90625 48.03125 C 54.90625 48.572454 55.365046 49.03125 55.90625 49.03125 C 56.447454 49.03125 56.875 48.572454 56.875 48.03125 C 56.875 47.490046 56.447454 47.0625 55.90625 47.0625 z M 51.96875 50.96875 C 51.427546 50.96875 51 51.396296 51 51.9375 C 51 52.478704 51.427546 52.9375 51.96875 52.9375 C 52.509954 52.9375 52.9375 52.478704 52.9375 51.9375 C 52.9375 51.396296 52.509954 50.96875 51.96875 50.96875 z M 36.28125 51 C 35.740046 51 35.3125 51.427546 35.3125 51.96875 C 35.3125 52.509954 35.740046 52.96875 36.28125 52.96875 C 36.822454 52.96875 37.25 52.509954 37.25 51.96875 C 37.25 51.427546 36.822454 51 36.28125 51 z M 40.1875 51 C 39.646296 51 39.21875 51.427546 39.21875 51.96875 C 39.21875 52.509954 39.646296 52.96875 40.1875 52.96875 C 40.728704 52.96875 41.1875 52.509954 41.1875 51.96875 C 41.1875 51.427546 40.728704 51 40.1875 51 z M 48.03125 51 C 47.490046 51 47.0625 51.427546 47.0625 51.96875 C 47.0625 52.509954 47.490046 52.96875 48.03125 52.96875 C 48.572454 52.96875 49 52.509954 49 51.96875 C 49 51.427546 48.572454 51 48.03125 51 z M 55.90625 51 C 55.365046 51 54.90625 51.427546 54.90625 51.96875 C 54.90625 52.509954 55.365046 52.96875 55.90625 52.96875 C 56.447454 52.96875 56.875 52.509954 56.875 51.96875 C 56.875 51.427546 56.447454 51 55.90625 51 z M 36.28125 54.90625 C 35.740046 54.90625 35.3125 55.365046 35.3125 55.90625 C 35.3125 56.447454 35.740046 56.875 36.28125 56.875 C 36.822454 56.875 37.25 56.447454 37.25 55.90625 C 37.25 55.365046 36.822454 54.90625 36.28125 54.90625 z M 40.1875 54.90625 C 39.646296 54.90625 39.21875 55.365046 39.21875 55.90625 C 39.21875 56.447454 39.646296 56.875 40.1875 56.875 C 40.728704 56.875 41.1875 56.447454 41.1875 55.90625 C 41.1875 55.365046 40.728704 54.90625 40.1875 54.90625 z M 55.90625 54.90625 C 55.365046 54.90625 54.90625 55.365046 54.90625 55.90625 C 54.90625 56.447454 55.365046 56.875 55.90625 56.875 C 56.447454 56.875 56.875 56.447454 56.875 55.90625 C 56.875 55.365046 56.447454 54.90625 55.90625 54.90625 z M 40.1875 58.84375 C 39.646296 58.84375 39.21875 59.302546 39.21875 59.84375 C 39.21875 60.384954 39.646296 60.8125 40.1875 60.8125 C 40.728704 60.8125 41.1875 60.384954 41.1875 59.84375 C 41.1875 59.302546 40.728704 58.84375 40.1875 58.84375 z M 55.90625 58.875 C 55.365046 58.875 54.90625 59.302546 54.90625 59.84375 C 54.90625 60.384954 55.365046 60.8125 55.90625 60.8125 C 56.447454 60.8125 56.875 60.384954 56.875 59.84375 C 56.875 59.302546 56.447454 58.875 55.90625 58.875 z M 59.78125 58.875 C 59.240046 58.875 58.8125 59.302546 58.8125 59.84375 C 58.8125 60.384954 59.240046 60.8125 59.78125 60.8125 C 60.322454 60.8125 60.78125 60.384954 60.78125 59.84375 C 60.78125 59.302546 60.322454 58.875 59.78125 58.875 z M 36.28125 62.75 C 35.740046 62.75 35.3125 63.177546 35.3125 63.71875 C 35.3125 64.259954 35.740046 64.6875 36.28125 64.6875 C 36.822454 64.6875 37.25 64.259954 37.25 63.71875 C 37.25 63.177546 36.822454 62.75 36.28125 62.75 z M 32.375 66.6875 C 31.833796 66.6875 31.375 67.115046 31.375 67.65625 C 31.375 68.197454 31.833796 68.65625 32.375 68.65625 C 32.916204 68.65625 33.34375 68.197454 33.34375 67.65625 C 33.34375 67.115046 32.916204 66.6875 32.375 66.6875 z M 36.28125 66.6875 C 35.740046 66.6875 35.3125 67.115046 35.3125 67.65625 C 35.3125 68.197454 35.740046 68.65625 36.28125 68.65625 C 36.822454 68.65625 37.25 68.197454 37.25 67.65625 C 37.25 67.115046 36.822454 66.6875 36.28125 66.6875 z M 32.375 70.59375 C 31.833796 70.59375 31.375 71.021296 31.375 71.5625 C 31.375 72.103704 31.833796 72.5625 32.375 72.5625 C 32.916204 72.5625 33.34375 72.103704 33.34375 71.5625 C 33.34375 71.021296 32.916204 70.59375 32.375 70.59375 z M 36.28125 70.59375 C 35.740046 70.59375 35.3125 71.021296 35.3125 71.5625 C 35.3125 72.103704 35.740046 72.5625 36.28125 72.5625 C 36.822454 72.5625 37.25 72.103704 37.25 71.5625 C 37.25 71.021296 36.822454 70.59375 36.28125 70.59375 z M 28.4375 74.53125 C 27.896296 74.53125 27.46875 74.990046 27.46875 75.53125 C 27.46875 76.072454 27.896296 76.5 28.4375 76.5 C 28.978704 76.5 29.4375 76.072454 29.4375 75.53125 C 29.4375 74.990046 28.978704 74.53125 28.4375 74.53125 z M 32.375 74.53125 C 31.833796 74.53125 31.375 74.990046 31.375 75.53125 C 31.375 76.072454 31.833796 76.5 32.375 76.5 C 32.916204 76.5 33.34375 76.072454 33.34375 75.53125 C 33.34375 74.990046 32.916204 74.53125 32.375 74.53125 z M 36.28125 74.53125 C 35.740046 74.53125 35.3125 74.990046 35.3125 75.53125 C 35.3125 76.072454 35.740046 76.5 36.28125 76.5 C 36.822454 76.5 37.25 76.072454 37.25 75.53125 C 37.25 74.990046 36.822454 74.53125 36.28125 74.53125 z M 40.1875 74.53125 C 39.646296 74.53125 39.21875 74.990046 39.21875 75.53125 C 39.21875 76.072454 39.646296 76.5 40.1875 76.5 C 40.728704 76.5 41.1875 76.072454 41.1875 75.53125 C 41.1875 74.990046 40.728704 74.53125 40.1875 74.53125 z M 28.4375 78.40625 C 27.896296 78.40625 27.46875 78.833796 27.46875 79.375 C 27.46875 79.916204 27.896296 80.375 28.4375 80.375 C 28.978704 80.375 29.4375 79.916204 29.4375 79.375 C 29.4375 78.833796 28.978704 78.40625 28.4375 78.40625 z M 32.375 78.40625 C 31.833796 78.40625 31.375 78.833796 31.375 79.375 C 31.375 79.916204 31.833796 80.375 32.375 80.375 C 32.916204 80.375 33.34375 79.916204 33.34375 79.375 C 33.34375 78.833796 32.916204 78.40625 32.375 78.40625 z M 36.28125 78.40625 C 35.740046 78.40625 35.3125 78.833796 35.3125 79.375 C 35.3125 79.916204 35.740046 80.375 36.28125 80.375 C 36.822454 80.375 37.25 79.916204 37.25 79.375 C 37.25 78.833796 36.822454 78.40625 36.28125 78.40625 z M 40.1875 78.40625 C 39.646296 78.40625 39.21875 78.833796 39.21875 79.375 C 39.21875 79.916204 39.646296 80.375 40.1875 80.375 C 40.728704 80.375 41.1875 79.916204 41.1875 79.375 C 41.1875 78.833796 40.728704 78.40625 40.1875 78.40625 z M 28.4375 82.34375 C 27.896296 82.34375 27.46875 82.771296 27.46875 83.3125 C 27.46875 83.853704 27.896296 84.3125 28.4375 84.3125 C 28.978704 84.3125 29.4375 83.853704 29.4375 83.3125 C 29.4375 82.771296 28.978704 82.34375 28.4375 82.34375 z M 32.375 82.34375 C 31.833796 82.34375 31.375 82.771296 31.375 83.3125 C 31.375 83.853704 31.833796 84.3125 32.375 84.3125 C 32.916204 84.3125 33.34375 83.853704 33.34375 83.3125 C 33.34375 82.771296 32.916204 82.34375 32.375 82.34375 z M 36.28125 82.34375 C 35.740046 82.34375 35.3125 82.771296 35.3125 83.3125 C 35.3125 83.853704 35.740046 84.3125 36.28125 84.3125 C 36.822454 84.3125 37.25 83.853704 37.25 83.3125 C 37.25 82.771296 36.822454 82.34375 36.28125 82.34375 z M 40.1875 82.34375 C 39.646296 82.34375 39.21875 82.771296 39.21875 83.3125 C 39.21875 83.853704 39.646296 84.3125 40.1875 84.3125 C 40.728704 84.3125 41.1875 83.853704 41.1875 83.3125 C 41.1875 82.771296 40.728704 82.34375 40.1875 82.34375 z M 32.375 86.25 C 31.833796 86.25 31.375 86.708796 31.375 87.25 C 31.375 87.791204 31.833796 88.21875 32.375 88.21875 C 32.916204 88.21875 33.34375 87.791204 33.34375 87.25 C 33.34375 86.708796 32.916204 86.25 32.375 86.25 z M 36.28125 86.25 C 35.740046 86.25 35.3125 86.708796 35.3125 87.25 C 35.3125 87.791204 35.740046 88.21875 36.28125 88.21875 C 36.822454 88.21875 37.25 87.791204 37.25 87.25 C 37.25 86.708796 36.822454 86.25 36.28125 86.25 z M 40.1875 86.25 C 39.646296 86.25 39.21875 86.708796 39.21875 87.25 C 39.21875 87.791204 39.646296 88.21875 40.1875 88.21875 C 40.728704 88.21875 41.1875 87.791204 41.1875 87.25 C 41.1875 86.708796 40.728704 86.25 40.1875 86.25 z M 44.125 86.25 C 43.583796 86.25 43.125 86.708796 43.125 87.25 C 43.125 87.791204 43.583796 88.21875 44.125 88.21875 C 44.666204 88.21875 45.09375 87.791204 45.09375 87.25 C 45.09375 86.708796 44.666204 86.25 44.125 86.25 z M 40.1875 90.1875 C 39.646296 90.1875 39.21875 90.646296 39.21875 91.1875 C 39.21875 91.728704 39.646296 92.15625 40.1875 92.15625 C 40.728704 92.15625 41.1875 91.728704 41.1875 91.1875 C 41.1875 90.646296 40.728704 90.1875 40.1875 90.1875 z M 44.125 90.1875 C 43.583796 90.1875 43.125 90.646296 43.125 91.1875 C 43.125 91.728704 43.583796 92.15625 44.125 92.15625 C 44.666204 92.15625 45.09375 91.728704 45.09375 91.1875 C 45.09375 90.646296 44.666204 90.1875 44.125 90.1875 z M 48.03125 90.1875 C 47.490046 90.1875 47.0625 90.646296 47.0625 91.1875 C 47.0625 91.728704 47.490046 92.15625 48.03125 92.15625 C 48.572454 92.15625 49 91.728704 49 91.1875 C 49 90.646296 48.572454 90.1875 48.03125 90.1875 z M 51.96875 94.0625 C 51.427546 94.0625 51 94.490046 51 95.03125 C 51 95.572454 51.427546 96.03125 51.96875 96.03125 C 52.509954 96.03125 52.9375 95.572454 52.9375 95.03125 C 52.9375 94.490046 52.509954 94.0625 51.96875 94.0625 z M 36.28125 94.09375 C 35.740046 94.09375 35.3125 94.521296 35.3125 95.0625 C 35.3125 95.603704 35.740046 96.0625 36.28125 96.0625 C 36.822454 96.0625 37.25 95.603704 37.25 95.0625 C 37.25 94.521296 36.822454 94.09375 36.28125 94.09375 z M 44.125 94.09375 C 43.583796 94.09375 43.125 94.521296 43.125 95.0625 C 43.125 95.603704 43.583796 96.0625 44.125 96.0625 C 44.666204 96.0625 45.09375 95.603704 45.09375 95.0625 C 45.09375 94.521296 44.666204 94.09375 44.125 94.09375 z M 48.03125 94.09375 C 47.490046 94.09375 47.0625 94.521296 47.0625 95.0625 C 47.0625 95.603704 47.490046 96.0625 48.03125 96.0625 C 48.572454 96.0625 49 95.603704 49 95.0625 C 49 94.521296 48.572454 94.09375 48.03125 94.09375 z M 51.96875 98 C 51.427546 98 51 98.458796 51 99 C 51 99.541204 51.427546 99.96875 51.96875 99.96875 C 52.509954 99.96875 52.9375 99.541204 52.9375 99 C 52.9375 98.458796 52.509954 98 51.96875 98 z M 48.03125 98.03125 C 47.490046 98.03125 47.0625 98.490046 47.0625 99.03125 C 47.0625 99.572454 47.490046 100 48.03125 100 C 48.572454 100 49 99.572454 49 99.03125 C 49 98.490046 48.572454 98.03125 48.03125 98.03125 z " transform="matrix(1.030667,0,0,1.030667,-2796.6975,334.73183)" fill="#000000" fill-rule="evenodd" stroke="none"/></g></g></g></g></g></g><text x="0" y="115" fill="#000000" font-size="5px" font-weight="bold" font-family="'Helvetica Neue', Helvetica, Arial-Unicode, Arial, Sans-serif">Created by Chameleon Design</text><text x="0" y="120" fill="#000000" font-size="5px" font-weight="bold" font-family="'Helvetica Neue', Helvetica, Arial-Unicode, Arial, Sans-serif">from the Noun Project</text></svg>