<?xml version="1.0" encoding="UTF-8" standalone="no"?>
<svg width="60px" height="107px" viewBox="0 0 60 107" version="1.1" xmlns="http://www.w3.org/2000/svg" xmlns:xlink="http://www.w3.org/1999/xlink">
    <!-- Generator: Sketch 3.6.1 (26313) - http://www.bohemiancoding.com/sketch -->
    <title>Untitled 5</title>
    <desc>Created with Sketch.</desc>
    <defs></defs>
    <g id="Page-1" stroke="none" stroke-width="1" fill="none" fill-rule="evenodd">
        <g id="thailand_thai" fill="#000000">
            <g id="Group" transform="translate(0.000000, 0.637800)">
                <g transform="translate(0.337801, 0.709823)" id="Shape">
                    <g transform="translate(0.041701, 0.014331)">
                        <g transform="translate(0.736406, 0.063877)">
                            <g transform="translate(0.201896, 0.381486)">
                                <g transform="translate(0.674542, 0.482632)">
                                    <path d="M13.2888583,0.710054782 C12.7476543,0.710054782 12.3201082,1.13760034 12.3201082,1.67880483 C12.3201082,2.22000935 12.7476543,2.67880487 13.2888583,2.67880487 C13.8300623,2.67880487 14.2576083,2.22000935 14.2576083,1.67880483 C14.2576083,1.13760034 13.8300623,0.710054782 13.2888583,0.710054782 L13.2888583,0.710054782 Z M17.1951085,0.710054782 C16.6539044,0.710054782 16.2263584,1.13760034 16.2263584,1.67880483 C16.2263584,2.22000935 16.6539044,2.67880487 17.1951085,2.67880487 C17.7363125,2.67880487 18.1951085,2.22000935 18.1951085,1.67880483 C18.1951085,1.13760034 17.7363125,0.710054782 17.1951085,0.710054782 L17.1951085,0.710054782 Z M5.44510794,4.64755496 C4.90390391,4.64755496 4.47635789,5.10635048 4.47635789,5.647555 C4.47635789,6.18875953 4.90390391,6.61630504 5.44510794,6.61630504 C5.98631196,6.61630504 6.44510798,6.18875953 6.44510798,5.647555 C6.44510798,5.10635048 5.98631196,4.64755496 5.44510794,4.64755496 L5.44510794,4.64755496 Z M9.38260811,4.64755496 C8.84140409,4.64755496 8.38260807,5.10635048 8.38260807,5.647555 C8.38260807,6.18875953 8.84140409,6.61630504 9.38260811,6.61630504 C9.92381214,6.61630504 10.3513582,6.18875953 10.3513582,5.647555 C10.3513582,5.10635048 9.92381214,4.64755496 9.38260811,4.64755496 L9.38260811,4.64755496 Z M13.2888583,4.64755496 C12.7476543,4.64755496 12.3201082,5.10635048 12.3201082,5.647555 C12.3201082,6.18875953 12.7476543,6.61630504 13.2888583,6.61630504 C13.8300623,6.61630504 14.2576083,6.18875953 14.2576083,5.647555 C14.2576083,5.10635048 13.8300623,4.64755496 13.2888583,4.64755496 L13.2888583,4.64755496 Z M17.1951085,4.64755496 C16.6539044,4.64755496 16.2263584,5.10635048 16.2263584,5.647555 C16.2263584,6.18875953 16.6539044,6.61630504 17.1951085,6.61630504 C17.7363125,6.61630504 18.1951085,6.18875953 18.1951085,5.647555 C18.1951085,5.10635048 17.7363125,4.64755496 17.1951085,4.64755496 L17.1951085,4.64755496 Z M21.1326086,4.64755496 C20.5914046,4.64755496 20.1326086,5.10635048 20.1326086,5.647555 C20.1326086,6.18875953 20.5914046,6.61630504 21.1326086,6.61630504 C21.6738127,6.61630504 22.1013587,6.18875953 22.1013587,5.647555 C22.1013587,5.10635048 21.6738127,4.64755496 21.1326086,4.64755496 L21.1326086,4.64755496 Z M5.44510794,8.55380513 C4.90390391,8.55380513 4.47635789,9.01260065 4.47635789,9.55380518 C4.47635789,10.0950097 4.90390391,10.5225552 5.44510794,10.5225552 C5.98631196,10.5225552 6.44510798,10.0950097 6.44510798,9.55380518 C6.44510798,9.01260065 5.98631196,8.55380513 5.44510794,8.55380513 L5.44510794,8.55380513 Z M9.38260811,8.55380513 C8.84140409,8.55380513 8.38260807,9.01260065 8.38260807,9.55380518 C8.38260807,10.0950097 8.84140409,10.5225552 9.38260811,10.5225552 C9.92381214,10.5225552 10.3513582,10.0950097 10.3513582,9.55380518 C10.3513582,9.01260065 9.92381214,8.55380513 9.38260811,8.55380513 L9.38260811,8.55380513 Z M13.2888583,8.55380513 C12.7476543,8.55380513 12.3201082,9.01260065 12.3201082,9.55380518 C12.3201082,10.0950097 12.7476543,10.5225552 13.2888583,10.5225552 C13.8300623,10.5225552 14.2576083,10.0950097 14.2576083,9.55380518 C14.2576083,9.01260065 13.8300623,8.55380513 13.2888583,8.55380513 L13.2888583,8.55380513 Z M17.1951085,8.55380513 C16.6539044,8.55380513 16.2263584,9.01260065 16.2263584,9.55380518 C16.2263584,10.0950097 16.6539044,10.5225552 17.1951085,10.5225552 C17.7363125,10.5225552 18.1951085,10.0950097 18.1951085,9.55380518 C18.1951085,9.01260065 17.7363125,8.55380513 17.1951085,8.55380513 L17.1951085,8.55380513 Z M21.1326086,8.55380513 C20.5914046,8.55380513 20.1326086,9.01260065 20.1326086,9.55380518 C20.1326086,10.0950097 20.5914046,10.5225552 21.1326086,10.5225552 C21.6738127,10.5225552 22.1013587,10.0950097 22.1013587,9.55380518 C22.1013587,9.01260065 21.6738127,8.55380513 21.1326086,8.55380513 L21.1326086,8.55380513 Z M25.0388588,8.55380513 C24.4976548,8.55380513 24.0701088,9.01260065 24.0701088,9.55380518 C24.0701088,10.0950097 24.4976548,10.5225552 25.0388588,10.5225552 C25.5800628,10.5225552 26.0076089,10.0950097 26.0076089,9.55380518 C26.0076089,9.01260065 25.5800628,8.55380513 25.0388588,8.55380513 L25.0388588,8.55380513 Z M5.44510794,12.5225553 C4.90390391,12.5225553 4.47635789,12.9501013 4.47635789,13.4913054 C4.47635789,14.0325094 4.90390391,14.4600554 5.44510794,14.4600554 C5.98631196,14.4600554 6.44510798,14.0325094 6.44510798,13.4913054 C6.44510798,12.9501013 5.98631196,12.5225553 5.44510794,12.5225553 L5.44510794,12.5225553 Z M9.38260811,12.5225553 C8.84140409,12.5225553 8.38260807,12.9501013 8.38260807,13.4913054 C8.38260807,14.0325094 8.84140409,14.4600554 9.38260811,14.4600554 C9.92381214,14.4600554 10.3513582,14.0325094 10.3513582,13.4913054 C10.3513582,12.9501013 9.92381214,12.5225553 9.38260811,12.5225553 L9.38260811,12.5225553 Z M13.2888583,12.5225553 C12.7476543,12.5225553 12.3201082,12.9501013 12.3201082,13.4913054 C12.3201082,14.0325094 12.7476543,14.4600554 13.2888583,14.4600554 C13.8300623,14.4600554 14.2576083,14.0325094 14.2576083,13.4913054 C14.2576083,12.9501013 13.8300623,12.5225553 13.2888583,12.5225553 L13.2888583,12.5225553 Z M17.1951085,12.5225553 C16.6539044,12.5225553 16.2263584,12.9501013 16.2263584,13.4913054 C16.2263584,14.0325094 16.6539044,14.4600554 17.1951085,14.4600554 C17.7363125,14.4600554 18.1951085,14.0325094 18.1951085,13.4913054 C18.1951085,12.9501013 17.7363125,12.5225553 17.1951085,12.5225553 L17.1951085,12.5225553 Z M21.1326086,12.5225553 C20.5914046,12.5225553 20.1326086,12.9501013 20.1326086,13.4913054 C20.1326086,14.0325094 20.5914046,14.4600554 21.1326086,14.4600554 C21.6738127,14.4600554 22.1013587,14.0325094 22.1013587,13.4913054 C22.1013587,12.9501013 21.6738127,12.5225553 21.1326086,12.5225553 L21.1326086,12.5225553 Z M25.0388588,12.5225553 C24.4976548,12.5225553 24.0701088,12.9501013 24.0701088,13.4913054 C24.0701088,14.0325094 24.4976548,14.4600554 25.0388588,14.4600554 C25.5800628,14.4600554 26.0076089,14.0325094 26.0076089,13.4913054 C26.0076089,12.9501013 25.5800628,12.5225553 25.0388588,12.5225553 L25.0388588,12.5225553 Z M28.976359,16.3663055 C28.435155,16.3663055 28.0076089,16.8251015 28.0076089,17.3663055 C28.0076089,17.9075095 28.435155,18.3350556 28.976359,18.3350556 C29.517563,18.3350556 29.945109,17.9075095 29.945109,17.3663055 C29.945109,16.8251015 29.517563,16.3663055 28.976359,16.3663055 L28.976359,16.3663055 Z M1.50760776,16.3975555 C0.966403738,16.3975555 0.538857719,16.8563515 0.538857719,17.3975555 C0.538857719,17.9387595 0.966403738,18.3663056 1.50760776,18.3663056 C2.04881179,18.3663056 2.50760781,17.9387595 2.50760781,17.3975555 C2.50760781,16.8563515 2.04881179,16.3975555 1.50760776,16.3975555 L1.50760776,16.3975555 Z M5.44510794,16.3975555 C4.90390391,16.3975555 4.47635789,16.8563515 4.47635789,17.3975555 C4.47635789,17.9387595 4.90390391,18.3663056 5.44510794,18.3663056 C5.98631196,18.3663056 6.44510798,17.9387595 6.44510798,17.3975555 C6.44510798,16.8563515 5.98631196,16.3975555 5.44510794,16.3975555 L5.44510794,16.3975555 Z M9.38260811,16.3975555 C8.84140409,16.3975555 8.38260807,16.8563515 8.38260807,17.3975555 C8.38260807,17.9387595 8.84140409,18.3663056 9.38260811,18.3663056 C9.92381214,18.3663056 10.3513582,17.9387595 10.3513582,17.3975555 C10.3513582,16.8563515 9.92381214,16.3975555 9.38260811,16.3975555 L9.38260811,16.3975555 Z M13.2888583,16.3975555 C12.7476543,16.3975555 12.3201082,16.8563515 12.3201082,17.3975555 C12.3201082,17.9387595 12.7476543,18.3663056 13.2888583,18.3663056 C13.8300623,18.3663056 14.2576083,17.9387595 14.2576083,17.3975555 C14.2576083,16.8563515 13.8300623,16.3975555 13.2888583,16.3975555 L13.2888583,16.3975555 Z M17.1951085,16.3975555 C16.6539044,16.3975555 16.2263584,16.8563515 16.2263584,17.3975555 C16.2263584,17.9387595 16.6539044,18.3663056 17.1951085,18.3663056 C17.7363125,18.3663056 18.1951085,17.9387595 18.1951085,17.3975555 C18.1951085,16.8563515 17.7363125,16.3975555 17.1951085,16.3975555 L17.1951085,16.3975555 Z M21.1326086,16.3975555 C20.5914046,16.3975555 20.1326086,16.8563515 20.1326086,17.3975555 C20.1326086,17.9387595 20.5914046,18.3663056 21.1326086,18.3663056 C21.6738127,18.3663056 22.1013587,17.9387595 22.1013587,17.3975555 C22.1013587,16.8563515 21.6738127,16.3975555 21.1326086,16.3975555 L21.1326086,16.3975555 Z M25.0388588,16.3975555 C24.4976548,16.3975555 24.0701088,16.8563515 24.0701088,17.3975555 C24.0701088,17.9387595 24.4976548,18.3663056 25.0388588,18.3663056 C25.5800628,18.3663056 26.0076089,17.9387595 26.0076089,17.3975555 C26.0076089,16.8563515 25.5800628,16.3975555 25.0388588,16.3975555 L25.0388588,16.3975555 Z M32.9138592,16.3975555 C32.3726551,16.3975555 31.9138591,16.8563515 31.9138591,17.3975555 C31.9138591,17.9387595 32.3726551,18.3663056 32.9138592,18.3663056 C33.4550632,18.3663056 33.8826092,17.9387595 33.8826092,17.3975555 C33.8826092,16.8563515 33.4550632,16.3975555 32.9138592,16.3975555 L32.9138592,16.3975555 Z M36.7888593,16.3975555 C36.2476553,16.3975555 35.8201093,16.8563515 35.8201093,17.3975555 C35.8201093,17.9387595 36.2476553,18.3663056 36.7888593,18.3663056 C37.3300634,18.3663056 37.7888594,17.9387595 37.7888594,17.3975555 C37.7888594,16.8563515 37.3300634,16.3975555 36.7888593,16.3975555 L36.7888593,16.3975555 Z M40.7263595,16.3975555 C40.1851555,16.3975555 39.7576095,16.8563515 39.7576095,17.3975555 C39.7576095,17.9387595 40.1851555,18.3663056 40.7263595,18.3663056 C41.2675635,18.3663056 41.7263595,17.9387595 41.7263595,17.3975555 C41.7263595,16.8563515 41.2675635,16.3975555 40.7263595,16.3975555 L40.7263595,16.3975555 Z M44.6638597,16.3975555 C44.1226557,16.3975555 43.6638596,16.8563515 43.6638596,17.3975555 C43.6638596,17.9387595 44.1226557,18.3663056 44.6638597,18.3663056 C45.2050637,18.3663056 45.6326097,17.9387595 45.6326097,17.3975555 C45.6326097,16.8563515 45.2050637,16.3975555 44.6638597,16.3975555 L44.6638597,16.3975555 Z M28.976359,20.3038057 C28.435155,20.3038057 28.0076089,20.7626017 28.0076089,21.3038057 C28.0076089,21.8450097 28.435155,22.2725557 28.976359,22.2725557 C29.517563,22.2725557 29.945109,21.8450097 29.945109,21.3038057 C29.945109,20.7626017 29.517563,20.3038057 28.976359,20.3038057 L28.976359,20.3038057 Z M5.44510794,20.3350557 C4.90390391,20.3350557 4.47635789,20.7938517 4.47635789,21.3350557 C4.47635789,21.8762597 4.90390391,22.3038057 5.44510794,22.3038057 C5.98631196,22.3038057 6.44510798,21.8762597 6.44510798,21.3350557 C6.44510798,20.7938517 5.98631196,20.3350557 5.44510794,20.3350557 L5.44510794,20.3350557 Z M9.38260811,20.3350557 C8.84140409,20.3350557 8.38260807,20.7938517 8.38260807,21.3350557 C8.38260807,21.8762597 8.84140409,22.3038057 9.38260811,22.3038057 C9.92381214,22.3038057 10.3513582,21.8762597 10.3513582,21.3350557 C10.3513582,20.7938517 9.92381214,20.3350557 9.38260811,20.3350557 L9.38260811,20.3350557 Z M13.2888583,20.3350557 C12.7476543,20.3350557 12.3201082,20.7938517 12.3201082,21.3350557 C12.3201082,21.8762597 12.7476543,22.3038057 13.2888583,22.3038057 C13.8300623,22.3038057 14.2576083,21.8762597 14.2576083,21.3350557 C14.2576083,20.7938517 13.8300623,20.3350557 13.2888583,20.3350557 L13.2888583,20.3350557 Z M17.1951085,20.3350557 C16.6539044,20.3350557 16.2263584,20.7938517 16.2263584,21.3350557 C16.2263584,21.8762597 16.6539044,22.3038057 17.1951085,22.3038057 C17.7363125,22.3038057 18.1951085,21.8762597 18.1951085,21.3350557 C18.1951085,20.7938517 17.7363125,20.3350557 17.1951085,20.3350557 L17.1951085,20.3350557 Z M21.1326086,20.3350557 C20.5914046,20.3350557 20.1326086,20.7938517 20.1326086,21.3350557 C20.1326086,21.8762597 20.5914046,22.3038057 21.1326086,22.3038057 C21.6738127,22.3038057 22.1013587,21.8762597 22.1013587,21.3350557 C22.1013587,20.7938517 21.6738127,20.3350557 21.1326086,20.3350557 L21.1326086,20.3350557 Z M25.0388588,20.3350557 C24.4976548,20.3350557 24.0701088,20.7938517 24.0701088,21.3350557 C24.0701088,21.8762597 24.4976548,22.3038057 25.0388588,22.3038057 C25.5800628,22.3038057 26.0076089,21.8762597 26.0076089,21.3350557 C26.0076089,20.7938517 25.5800628,20.3350557 25.0388588,20.3350557 L25.0388588,20.3350557 Z M32.9138592,20.3663057 C32.3726551,20.3663057 31.9138591,20.7938517 31.9138591,21.3350557 C31.9138591,21.8762597 32.3726551,22.3038057 32.9138592,22.3038057 C33.4550632,22.3038057 33.8826092,21.8762597 33.8826092,21.3350557 C33.8826092,20.7938517 33.4550632,20.3663057 32.9138592,20.3663057 L32.9138592,20.3663057 Z M36.7888593,20.3663057 C36.2476553,20.3663057 35.8201093,20.7938517 35.8201093,21.3350557 C35.8201093,21.8762597 36.2476553,22.3038057 36.7888593,22.3038057 C37.3300634,22.3038057 37.7888594,21.8762597 37.7888594,21.3350557 C37.7888594,20.7938517 37.3300634,20.3663057 36.7888593,20.3663057 L36.7888593,20.3663057 Z M40.7263595,20.3663057 C40.1851555,20.3663057 39.7576095,20.7938517 39.7576095,21.3350557 C39.7576095,21.8762597 40.1851555,22.3038057 40.7263595,22.3038057 C41.2675635,22.3038057 41.7263595,21.8762597 41.7263595,21.3350557 C41.7263595,20.7938517 41.2675635,20.3663057 40.7263595,20.3663057 L40.7263595,20.3663057 Z M44.6638597,20.3663057 C44.1226557,20.3663057 43.6638596,20.7938517 43.6638596,21.3350557 C43.6638596,21.8762597 44.1226557,22.3038057 44.6638597,22.3038057 C45.2050637,22.3038057 45.6326097,21.8762597 45.6326097,21.3350557 C45.6326097,20.7938517 45.2050637,20.3663057 44.6638597,20.3663057 L44.6638597,20.3663057 Z M48.5701099,20.3663057 C48.0289058,20.3663057 47.6013598,20.7938517 47.6013598,21.3350557 C47.6013598,21.8762597 48.0289058,22.3038057 48.5701099,22.3038057 C49.1113139,22.3038057 49.5388599,21.8762597 49.5388599,21.3350557 C49.5388599,20.7938517 49.1113139,20.3663057 48.5701099,20.3663057 L48.5701099,20.3663057 Z M28.976359,24.2413058 C28.435155,24.2413058 28.0076089,24.6688518 28.0076089,25.2100559 C28.0076089,25.7512599 28.435155,26.1788059 28.976359,26.1788059 C29.517563,26.1788059 29.945109,25.7512599 29.945109,25.2100559 C29.945109,24.6688518 29.517563,24.2413058 28.976359,24.2413058 L28.976359,24.2413058 Z M9.38260811,24.2725558 C8.84140409,24.2725558 8.38260807,24.7001018 8.38260807,25.2413059 C8.38260807,25.7825099 8.84140409,26.2100559 9.38260811,26.2100559 C9.92381214,26.2100559 10.3513582,25.7825099 10.3513582,25.2413059 C10.3513582,24.7001018 9.92381214,24.2725558 9.38260811,24.2725558 L9.38260811,24.2725558 Z M13.2888583,24.2725558 C12.7476543,24.2725558 12.3201082,24.7001018 12.3201082,25.2413059 C12.3201082,25.7825099 12.7476543,26.2100559 13.2888583,26.2100559 C13.8300623,26.2100559 14.2576083,25.7825099 14.2576083,25.2413059 C14.2576083,24.7001018 13.8300623,24.2725558 13.2888583,24.2725558 L13.2888583,24.2725558 Z M17.1951085,24.2725558 C16.6539044,24.2725558 16.2263584,24.7001018 16.2263584,25.2413059 C16.2263584,25.7825099 16.6539044,26.2100559 17.1951085,26.2100559 C17.7363125,26.2100559 18.1951085,25.7825099 18.1951085,25.2413059 C18.1951085,24.7001018 17.7363125,24.2725558 17.1951085,24.2725558 L17.1951085,24.2725558 Z M21.1326086,24.2725558 C20.5914046,24.2725558 20.1326086,24.7001018 20.1326086,25.2413059 C20.1326086,25.7825099 20.5914046,26.2100559 21.1326086,26.2100559 C21.6738127,26.2100559 22.1013587,25.7825099 22.1013587,25.2413059 C22.1013587,24.7001018 21.6738127,24.2725558 21.1326086,24.2725558 L21.1326086,24.2725558 Z M25.0388588,24.2725558 C24.4976548,24.2725558 24.0701088,24.7001018 24.0701088,25.2413059 C24.0701088,25.7825099 24.4976548,26.2100559 25.0388588,26.2100559 C25.5800628,26.2100559 26.0076089,25.7825099 26.0076089,25.2413059 C26.0076089,24.7001018 25.5800628,24.2725558 25.0388588,24.2725558 L25.0388588,24.2725558 Z M32.9138592,24.2725558 C32.3726551,24.2725558 31.9138591,24.7001018 31.9138591,25.2413059 C31.9138591,25.7825099 32.3726551,26.2413059 32.9138592,26.2413059 C33.4550632,26.2413059 33.8826092,25.7825099 33.8826092,25.2413059 C33.8826092,24.7001018 33.4550632,24.2725558 32.9138592,24.2725558 L32.9138592,24.2725558 Z M36.7888593,24.2725558 C36.2476553,24.2725558 35.8201093,24.7001018 35.8201093,25.2413059 C35.8201093,25.7825099 36.2476553,26.2413059 36.7888593,26.2413059 C37.3300634,26.2413059 37.7888594,25.7825099 37.7888594,25.2413059 C37.7888594,24.7001018 37.3300634,24.2725558 36.7888593,24.2725558 L36.7888593,24.2725558 Z M40.7263595,24.2725558 C40.1851555,24.2725558 39.7576095,24.7001018 39.7576095,25.2413059 C39.7576095,25.7825099 40.1851555,26.2413059 40.7263595,26.2413059 C41.2675635,26.2413059 41.7263595,25.7825099 41.7263595,25.2413059 C41.7263595,24.7001018 41.2675635,24.2725558 40.7263595,24.2725558 L40.7263595,24.2725558 Z M44.6638597,24.2725558 C44.1226557,24.2725558 43.6638596,24.7001018 43.6638596,25.2413059 C43.6638596,25.7825099 44.1226557,26.2413059 44.6638597,26.2413059 C45.2050637,26.2413059 45.6326097,25.7825099 45.6326097,25.2413059 C45.6326097,24.7001018 45.2050637,24.2725558 44.6638597,24.2725558 L44.6638597,24.2725558 Z M48.5701099,24.2725558 C48.0289058,24.2725558 47.6013598,24.7001018 47.6013598,25.2413059 C47.6013598,25.7825099 48.0289058,26.2413059 48.5701099,26.2413059 C49.1113139,26.2413059 49.5388599,25.7825099 49.5388599,25.2413059 C49.5388599,24.7001018 49.1113139,24.2725558 48.5701099,24.2725558 L48.5701099,24.2725558 Z M28.976359,28.178806 C28.435155,28.178806 28.0076089,28.606352 28.0076089,29.147556 C28.0076089,29.6887601 28.435155,30.1475561 28.976359,30.1475561 C29.517563,30.1475561 29.945109,29.6887601 29.945109,29.147556 C29.945109,28.606352 29.517563,28.178806 28.976359,28.178806 L28.976359,28.178806 Z M9.38260811,28.210056 C8.84140409,28.210056 8.38260807,28.637602 8.38260807,29.178806 C8.38260807,29.7200101 8.84140409,30.1788061 9.38260811,30.1788061 C9.92381214,30.1788061 10.3513582,29.7200101 10.3513582,29.178806 C10.3513582,28.637602 9.92381214,28.210056 9.38260811,28.210056 L9.38260811,28.210056 Z M13.2888583,28.210056 C12.7476543,28.210056 12.3201082,28.637602 12.3201082,29.178806 C12.3201082,29.7200101 12.7476543,30.1788061 13.2888583,30.1788061 C13.8300623,30.1788061 14.2576083,29.7200101 14.2576083,29.178806 C14.2576083,28.637602 13.8300623,28.210056 13.2888583,28.210056 L13.2888583,28.210056 Z M17.1951085,28.210056 C16.6539044,28.210056 16.2263584,28.637602 16.2263584,29.178806 C16.2263584,29.7200101 16.6539044,30.1788061 17.1951085,30.1788061 C17.7363125,30.1788061 18.1951085,29.7200101 18.1951085,29.178806 C18.1951085,28.637602 17.7363125,28.210056 17.1951085,28.210056 L17.1951085,28.210056 Z M21.1326086,28.210056 C20.5914046,28.210056 20.1326086,28.637602 20.1326086,29.178806 C20.1326086,29.7200101 20.5914046,30.1788061 21.1326086,30.1788061 C21.6738127,30.1788061 22.1013587,29.7200101 22.1013587,29.178806 C22.1013587,28.637602 21.6738127,28.210056 21.1326086,28.210056 L21.1326086,28.210056 Z M25.0388588,28.210056 C24.4976548,28.210056 24.0701088,28.637602 24.0701088,29.178806 C24.0701088,29.7200101 24.4976548,30.1788061 25.0388588,30.1788061 C25.5800628,30.1788061 26.0076089,29.7200101 26.0076089,29.178806 C26.0076089,28.637602 25.5800628,28.210056 25.0388588,28.210056 L25.0388588,28.210056 Z M32.9138592,28.210056 C32.3726551,28.210056 31.9138591,28.637602 31.9138591,29.178806 C31.9138591,29.7200101 32.3726551,30.1788061 32.9138592,30.1788061 C33.4550632,30.1788061 33.8826092,29.7200101 33.8826092,29.178806 C33.8826092,28.637602 33.4550632,28.210056 32.9138592,28.210056 L32.9138592,28.210056 Z M36.7888593,28.210056 C36.2476553,28.210056 35.8201093,28.637602 35.8201093,29.178806 C35.8201093,29.7200101 36.2476553,30.1788061 36.7888593,30.1788061 C37.3300634,30.1788061 37.7888594,29.7200101 37.7888594,29.178806 C37.7888594,28.637602 37.3300634,28.210056 36.7888593,28.210056 L36.7888593,28.210056 Z M40.7263595,28.210056 C40.1851555,28.210056 39.7576095,28.637602 39.7576095,29.178806 C39.7576095,29.7200101 40.1851555,30.1788061 40.7263595,30.1788061 C41.2675635,30.1788061 41.7263595,29.7200101 41.7263595,29.178806 C41.7263595,28.637602 41.2675635,28.210056 40.7263595,28.210056 L40.7263595,28.210056 Z M44.6638597,28.210056 C44.1226557,28.210056 43.6638596,28.637602 43.6638596,29.178806 C43.6638596,29.7200101 44.1226557,30.1788061 44.6638597,30.1788061 C45.2050637,30.1788061 45.6326097,29.7200101 45.6326097,29.178806 C45.6326097,28.637602 45.2050637,28.210056 44.6638597,28.210056 L44.6638597,28.210056 Z M48.5701099,28.210056 C48.0289058,28.210056 47.6013598,28.637602 47.6013598,29.178806 C47.6013598,29.7200101 48.0289058,30.1788061 48.5701099,30.1788061 C49.1113139,30.1788061 49.5388599,29.7200101 49.5388599,29.178806 C49.5388599,28.637602 49.1113139,28.210056 48.5701099,28.210056 L48.5701099,28.210056 Z M28.976359,32.0538062 C28.435155,32.0538062 28.0076089,32.4813522 28.0076089,33.0225562 C28.0076089,33.5637602 28.435155,33.9913063 28.976359,33.9913063 C29.517563,33.9913063 29.945109,33.5637602 29.945109,33.0225562 C29.945109,32.4813522 29.517563,32.0538062 28.976359,32.0538062 L28.976359,32.0538062 Z M9.38260811,32.0850562 C8.84140409,32.0850562 8.38260807,32.5126022 8.38260807,33.0538062 C8.38260807,33.5950102 8.84140409,34.0225563 9.38260811,34.0225563 C9.92381214,34.0225563 10.3513582,33.5950102 10.3513582,33.0538062 C10.3513582,32.5126022 9.92381214,32.0850562 9.38260811,32.0850562 L9.38260811,32.0850562 Z M13.2888583,32.0850562 C12.7476543,32.0850562 12.3201082,32.5126022 12.3201082,33.0538062 C12.3201082,33.5950102 12.7476543,34.0225563 13.2888583,34.0225563 C13.8300623,34.0225563 14.2576083,33.5950102 14.2576083,33.0538062 C14.2576083,32.5126022 13.8300623,32.0850562 13.2888583,32.0850562 L13.2888583,32.0850562 Z M17.1951085,32.0850562 C16.6539044,32.0850562 16.2263584,32.5126022 16.2263584,33.0538062 C16.2263584,33.5950102 16.6539044,34.0225563 17.1951085,34.0225563 C17.7363125,34.0225563 18.1951085,33.5950102 18.1951085,33.0538062 C18.1951085,32.5126022 17.7363125,32.0850562 17.1951085,32.0850562 L17.1951085,32.0850562 Z M21.1326086,32.0850562 C20.5914046,32.0850562 20.1326086,32.5126022 20.1326086,33.0538062 C20.1326086,33.5950102 20.5914046,34.0225563 21.1326086,34.0225563 C21.6738127,34.0225563 22.1013587,33.5950102 22.1013587,33.0538062 C22.1013587,32.5126022 21.6738127,32.0850562 21.1326086,32.0850562 L21.1326086,32.0850562 Z M25.0388588,32.0850562 C24.4976548,32.0850562 24.0701088,32.5126022 24.0701088,33.0538062 C24.0701088,33.5950102 24.4976548,34.0225563 25.0388588,34.0225563 C25.5800628,34.0225563 26.0076089,33.5950102 26.0076089,33.0538062 C26.0076089,32.5126022 25.5800628,32.0850562 25.0388588,32.0850562 L25.0388588,32.0850562 Z M32.9138592,32.0850562 C32.3726551,32.0850562 31.9138591,32.5126022 31.9138591,33.0538062 C31.9138591,33.5950102 32.3726551,34.0225563 32.9138592,34.0225563 C33.4550632,34.0225563 33.8826092,33.5950102 33.8826092,33.0538062 C33.8826092,32.5126022 33.4550632,32.0850562 32.9138592,32.0850562 L32.9138592,32.0850562 Z M36.7888593,32.0850562 C36.2476553,32.0850562 35.8201093,32.5126022 35.8201093,33.0538062 C35.8201093,33.5950102 36.2476553,34.0225563 36.7888593,34.0225563 C37.3300634,34.0225563 37.7888594,33.5950102 37.7888594,33.0538062 C37.7888594,32.5126022 37.3300634,32.0850562 36.7888593,32.0850562 L36.7888593,32.0850562 Z M40.7263595,32.0850562 C40.1851555,32.0850562 39.7576095,32.5126022 39.7576095,33.0538062 C39.7576095,33.5950102 40.1851555,34.0225563 40.7263595,34.0225563 C41.2675635,34.0225563 41.7263595,33.5950102 41.7263595,33.0538062 C41.7263595,32.5126022 41.2675635,32.0850562 40.7263595,32.0850562 L40.7263595,32.0850562 Z M44.6638597,32.0850562 C44.1226557,32.0850562 43.6638596,32.5126022 43.6638596,33.0538062 C43.6638596,33.5950102 44.1226557,34.0225563 44.6638597,34.0225563 C45.2050637,34.0225563 45.6326097,33.5950102 45.6326097,33.0538062 C45.6326097,32.5126022 45.2050637,32.0850562 44.6638597,32.0850562 L44.6638597,32.0850562 Z M48.5701099,32.0850562 C48.0289058,32.0850562 47.6013598,32.5126022 47.6013598,33.0538062 C47.6013598,33.5950102 48.0289058,34.0225563 48.5701099,34.0225563 C49.1113139,34.0225563 49.5388599,33.5950102 49.5388599,33.0538062 C49.5388599,32.5126022 49.1113139,32.0850562 48.5701099,32.0850562 L48.5701099,32.0850562 Z M52.50761,32.0850562 C51.966406,32.0850562 51.50761,32.5126022 51.50761,33.0538062 C51.50761,33.5950102 51.966406,34.0225563 52.50761,34.0225563 C53.0488141,34.0225563 53.4763601,33.5950102 53.4763601,33.0538062 C53.4763601,32.5126022 53.0488141,32.0850562 52.50761,32.0850562 L52.50761,32.0850562 Z M28.976359,35.9913063 C28.435155,35.9913063 28.0076089,36.4188524 28.0076089,36.9600564 C28.0076089,37.5012604 28.435155,37.9288064 28.976359,37.9288064 C29.517563,37.9288064 29.945109,37.5012604 29.945109,36.9600564 C29.945109,36.4188524 29.517563,35.9913063 28.976359,35.9913063 L28.976359,35.9913063 Z M5.44510794,36.0225564 C4.90390391,36.0225564 4.47635789,36.4501024 4.47635789,36.9913064 C4.47635789,37.5325104 4.90390391,37.9913064 5.44510794,37.9913064 C5.98631196,37.9913064 6.44510798,37.5325104 6.44510798,36.9913064 C6.44510798,36.4501024 5.98631196,36.0225564 5.44510794,36.0225564 L5.44510794,36.0225564 Z M9.38260811,36.0225564 C8.84140409,36.0225564 8.38260807,36.4501024 8.38260807,36.9913064 C8.38260807,37.5325104 8.84140409,37.9913064 9.38260811,37.9913064 C9.92381214,37.9913064 10.3513582,37.5325104 10.3513582,36.9913064 C10.3513582,36.4501024 9.92381214,36.0225564 9.38260811,36.0225564 L9.38260811,36.0225564 Z M13.2888583,36.0225564 C12.7476543,36.0225564 12.3201082,36.4501024 12.3201082,36.9913064 C12.3201082,37.5325104 12.7476543,37.9913064 13.2888583,37.9913064 C13.8300623,37.9913064 14.2576083,37.5325104 14.2576083,36.9913064 C14.2576083,36.4501024 13.8300623,36.0225564 13.2888583,36.0225564 L13.2888583,36.0225564 Z M17.1951085,36.0225564 C16.6539044,36.0225564 16.2263584,36.4501024 16.2263584,36.9913064 C16.2263584,37.5325104 16.6539044,37.9913064 17.1951085,37.9913064 C17.7363125,37.9913064 18.1951085,37.5325104 18.1951085,36.9913064 C18.1951085,36.4501024 17.7363125,36.0225564 17.1951085,36.0225564 L17.1951085,36.0225564 Z M21.1326086,36.0225564 C20.5914046,36.0225564 20.1326086,36.4501024 20.1326086,36.9913064 C20.1326086,37.5325104 20.5914046,37.9913064 21.1326086,37.9913064 C21.6738127,37.9913064 22.1013587,37.5325104 22.1013587,36.9913064 C22.1013587,36.4501024 21.6738127,36.0225564 21.1326086,36.0225564 L21.1326086,36.0225564 Z M25.0388588,36.0225564 C24.4976548,36.0225564 24.0701088,36.4501024 24.0701088,36.9913064 C24.0701088,37.5325104 24.4976548,37.9913064 25.0388588,37.9913064 C25.5800628,37.9913064 26.0076089,37.5325104 26.0076089,36.9913064 C26.0076089,36.4501024 25.5800628,36.0225564 25.0388588,36.0225564 L25.0388588,36.0225564 Z M32.9138592,36.0225564 C32.3726551,36.0225564 31.9138591,36.4501024 31.9138591,36.9913064 C31.9138591,37.5325104 32.3726551,37.9913064 32.9138592,37.9913064 C33.4550632,37.9913064 33.8826092,37.5325104 33.8826092,36.9913064 C33.8826092,36.4501024 33.4550632,36.0225564 32.9138592,36.0225564 L32.9138592,36.0225564 Z M36.7888593,36.0225564 C36.2476553,36.0225564 35.8201093,36.4501024 35.8201093,36.9913064 C35.8201093,37.5325104 36.2476553,37.9913064 36.7888593,37.9913064 C37.3300634,37.9913064 37.7888594,37.5325104 37.7888594,36.9913064 C37.7888594,36.4501024 37.3300634,36.0225564 36.7888593,36.0225564 L36.7888593,36.0225564 Z M40.7263595,36.0225564 C40.1851555,36.0225564 39.7576095,36.4501024 39.7576095,36.9913064 C39.7576095,37.5325104 40.1851555,37.9913064 40.7263595,37.9913064 C41.2675635,37.9913064 41.7263595,37.5325104 41.7263595,36.9913064 C41.7263595,36.4501024 41.2675635,36.0225564 40.7263595,36.0225564 L40.7263595,36.0225564 Z M44.6638597,36.0225564 C44.1226557,36.0225564 43.6638596,36.4501024 43.6638596,36.9913064 C43.6638596,37.5325104 44.1226557,37.9913064 44.6638597,37.9913064 C45.2050637,37.9913064 45.6326097,37.5325104 45.6326097,36.9913064 C45.6326097,36.4501024 45.2050637,36.0225564 44.6638597,36.0225564 L44.6638597,36.0225564 Z M48.5701099,36.0225564 C48.0289058,36.0225564 47.6013598,36.4501024 47.6013598,36.9913064 C47.6013598,37.5325104 48.0289058,37.9913064 48.5701099,37.9913064 C49.1113139,37.9913064 49.5388599,37.5325104 49.5388599,36.9913064 C49.5388599,36.4501024 49.1113139,36.0225564 48.5701099,36.0225564 L48.5701099,36.0225564 Z M52.50761,36.0225564 C51.966406,36.0225564 51.50761,36.4501024 51.50761,36.9913064 C51.50761,37.5325104 51.966406,37.9913064 52.50761,37.9913064 C53.0488141,37.9913064 53.4763601,37.5325104 53.4763601,36.9913064 C53.4763601,36.4501024 53.0488141,36.0225564 52.50761,36.0225564 L52.50761,36.0225564 Z M28.976359,39.8975565 C28.435155,39.8975565 28.0076089,40.3251025 28.0076089,40.8663066 C28.0076089,41.4075106 28.435155,41.8663066 28.976359,41.8663066 C29.517563,41.8663066 29.945109,41.4075106 29.945109,40.8663066 C29.945109,40.3251025 29.517563,39.8975565 28.976359,39.8975565 L28.976359,39.8975565 Z M9.38260811,39.9288065 C8.84140409,39.9288065 8.38260807,40.3563525 8.38260807,40.8975566 C8.38260807,41.4387606 8.84140409,41.8975566 9.38260811,41.8975566 C9.92381214,41.8975566 10.3513582,41.4387606 10.3513582,40.8975566 C10.3513582,40.3563525 9.92381214,39.9288065 9.38260811,39.9288065 L9.38260811,39.9288065 Z M13.2888583,39.9288065 C12.7476543,39.9288065 12.3201082,40.3563525 12.3201082,40.8975566 C12.3201082,41.4387606 12.7476543,41.8975566 13.2888583,41.8975566 C13.8300623,41.8975566 14.2576083,41.4387606 14.2576083,40.8975566 C14.2576083,40.3563525 13.8300623,39.9288065 13.2888583,39.9288065 L13.2888583,39.9288065 Z M17.1951085,39.9288065 C16.6539044,39.9288065 16.2263584,40.3563525 16.2263584,40.8975566 C16.2263584,41.4387606 16.6539044,41.8975566 17.1951085,41.8975566 C17.7363125,41.8975566 18.1951085,41.4387606 18.1951085,40.8975566 C18.1951085,40.3563525 17.7363125,39.9288065 17.1951085,39.9288065 L17.1951085,39.9288065 Z M21.1326086,39.9288065 C20.5914046,39.9288065 20.1326086,40.3563525 20.1326086,40.8975566 C20.1326086,41.4387606 20.5914046,41.8975566 21.1326086,41.8975566 C21.6738127,41.8975566 22.1013587,41.4387606 22.1013587,40.8975566 C22.1013587,40.3563525 21.6738127,39.9288065 21.1326086,39.9288065 L21.1326086,39.9288065 Z M25.0388588,39.9288065 C24.4976548,39.9288065 24.0701088,40.3563525 24.0701088,40.8975566 C24.0701088,41.4387606 24.4976548,41.8975566 25.0388588,41.8975566 C25.5800628,41.8975566 26.0076089,41.4387606 26.0076089,40.8975566 C26.0076089,40.3563525 25.5800628,39.9288065 25.0388588,39.9288065 L25.0388588,39.9288065 Z M32.9138592,39.9288065 C32.3726551,39.9288065 31.9138591,40.3876025 31.9138591,40.9288066 C31.9138591,41.4700106 32.3726551,41.8975566 32.9138592,41.8975566 C33.4550632,41.8975566 33.8826092,41.4700106 33.8826092,40.9288066 C33.8826092,40.3876025 33.4550632,39.9288065 32.9138592,39.9288065 L32.9138592,39.9288065 Z M36.7888593,39.9288065 C36.2476553,39.9288065 35.8201093,40.3876025 35.8201093,40.9288066 C35.8201093,41.4700106 36.2476553,41.8975566 36.7888593,41.8975566 C37.3300634,41.8975566 37.7888594,41.4700106 37.7888594,40.9288066 C37.7888594,40.3876025 37.3300634,39.9288065 36.7888593,39.9288065 L36.7888593,39.9288065 Z M40.7263595,39.9288065 C40.1851555,39.9288065 39.7576095,40.3876025 39.7576095,40.9288066 C39.7576095,41.4700106 40.1851555,41.8975566 40.7263595,41.8975566 C41.2675635,41.8975566 41.7263595,41.4700106 41.7263595,40.9288066 C41.7263595,40.3876025 41.2675635,39.9288065 40.7263595,39.9288065 L40.7263595,39.9288065 Z M44.6638597,39.9288065 C44.1226557,39.9288065 43.6638596,40.3876025 43.6638596,40.9288066 C43.6638596,41.4700106 44.1226557,41.8975566 44.6638597,41.8975566 C45.2050637,41.8975566 45.6326097,41.4700106 45.6326097,40.9288066 C45.6326097,40.3876025 45.2050637,39.9288065 44.6638597,39.9288065 L44.6638597,39.9288065 Z M48.5701099,39.9288065 C48.0289058,39.9288065 47.6013598,40.3876025 47.6013598,40.9288066 C47.6013598,41.4700106 48.0289058,41.8975566 48.5701099,41.8975566 C49.1113139,41.8975566 49.5388599,41.4700106 49.5388599,40.9288066 C49.5388599,40.3876025 49.1113139,39.9288065 48.5701099,39.9288065 L48.5701099,39.9288065 Z M52.50761,39.9288065 C51.966406,39.9288065 51.50761,40.3876025 51.50761,40.9288066 C51.50761,41.4700106 51.966406,41.8975566 52.50761,41.8975566 C53.0488141,41.8975566 53.4763601,41.4700106 53.4763601,40.9288066 C53.4763601,40.3876025 53.0488141,39.9288065 52.50761,39.9288065 L52.50761,39.9288065 Z M28.976359,43.8350567 C28.435155,43.8350567 28.0076089,44.2938527 28.0076089,44.8350567 C28.0076089,45.3762608 28.435155,45.8038068 28.976359,45.8038068 C29.517563,45.8038068 29.945109,45.3762608 29.945109,44.8350567 C29.945109,44.2938527 29.517563,43.8350567 28.976359,43.8350567 L28.976359,43.8350567 Z M9.38260811,43.8663067 C8.84140409,43.8663067 8.38260807,44.3251027 8.38260807,44.8663067 C8.38260807,45.4075108 8.84140409,45.8350568 9.38260811,45.8350568 C9.92381214,45.8350568 10.3513582,45.4075108 10.3513582,44.8663067 C10.3513582,44.3251027 9.92381214,43.8663067 9.38260811,43.8663067 L9.38260811,43.8663067 Z M13.2888583,43.8663067 C12.7476543,43.8663067 12.3201082,44.3251027 12.3201082,44.8663067 C12.3201082,45.4075108 12.7476543,45.8350568 13.2888583,45.8350568 C13.8300623,45.8350568 14.2576083,45.4075108 14.2576083,44.8663067 C14.2576083,44.3251027 13.8300623,43.8663067 13.2888583,43.8663067 L13.2888583,43.8663067 Z M17.1951085,43.8663067 C16.6539044,43.8663067 16.2263584,44.3251027 16.2263584,44.8663067 C16.2263584,45.4075108 16.6539044,45.8350568 17.1951085,45.8350568 C17.7363125,45.8350568 18.1951085,45.4075108 18.1951085,44.8663067 C18.1951085,44.3251027 17.7363125,43.8663067 17.1951085,43.8663067 L17.1951085,43.8663067 Z M21.1326086,43.8663067 C20.5914046,43.8663067 20.1326086,44.3251027 20.1326086,44.8663067 C20.1326086,45.4075108 20.5914046,45.8350568 21.1326086,45.8350568 C21.6738127,45.8350568 22.1013587,45.4075108 22.1013587,44.8663067 C22.1013587,44.3251027 21.6738127,43.8663067 21.1326086,43.8663067 L21.1326086,43.8663067 Z M25.0388588,43.8663067 C24.4976548,43.8663067 24.0701088,44.3251027 24.0701088,44.8663067 C24.0701088,45.4075108 24.4976548,45.8350568 25.0388588,45.8350568 C25.5800628,45.8350568 26.0076089,45.4075108 26.0076089,44.8663067 C26.0076089,44.3251027 25.5800628,43.8663067 25.0388588,43.8663067 L25.0388588,43.8663067 Z M32.9138592,43.8663067 C32.3726551,43.8663067 31.9138591,44.3251027 31.9138591,44.8663067 C31.9138591,45.4075108 32.3726551,45.8350568 32.9138592,45.8350568 C33.4550632,45.8350568 33.8826092,45.4075108 33.8826092,44.8663067 C33.8826092,44.3251027 33.4550632,43.8663067 32.9138592,43.8663067 L32.9138592,43.8663067 Z M36.7888593,43.8663067 C36.2476553,43.8663067 35.8201093,44.3251027 35.8201093,44.8663067 C35.8201093,45.4075108 36.2476553,45.8350568 36.7888593,45.8350568 C37.3300634,45.8350568 37.7888594,45.4075108 37.7888594,44.8663067 C37.7888594,44.3251027 37.3300634,43.8663067 36.7888593,43.8663067 L36.7888593,43.8663067 Z M28.976359,47.7413069 C28.435155,47.7413069 28.0076089,48.1688529 28.0076089,48.7100569 C28.0076089,49.2512609 28.435155,49.678807 28.976359,49.678807 C29.517563,49.678807 29.945109,49.2512609 29.945109,48.7100569 C29.945109,48.1688529 29.517563,47.7413069 28.976359,47.7413069 L28.976359,47.7413069 Z M13.2888583,47.7725569 C12.7476543,47.7725569 12.3201082,48.2001029 12.3201082,48.7413069 C12.3201082,49.2825109 12.7476543,49.710057 13.2888583,49.710057 C13.8300623,49.710057 14.2576083,49.2825109 14.2576083,48.7413069 C14.2576083,48.2001029 13.8300623,47.7725569 13.2888583,47.7725569 L13.2888583,47.7725569 Z M17.1951085,47.7725569 C16.6539044,47.7725569 16.2263584,48.2001029 16.2263584,48.7413069 C16.2263584,49.2825109 16.6539044,49.710057 17.1951085,49.710057 C17.7363125,49.710057 18.1951085,49.2825109 18.1951085,48.7413069 C18.1951085,48.2001029 17.7363125,47.7725569 17.1951085,47.7725569 L17.1951085,47.7725569 Z M21.1326086,47.7725569 C20.5914046,47.7725569 20.1326086,48.2001029 20.1326086,48.7413069 C20.1326086,49.2825109 20.5914046,49.710057 21.1326086,49.710057 C21.6738127,49.710057 22.1013587,49.2825109 22.1013587,48.7413069 C22.1013587,48.2001029 21.6738127,47.7725569 21.1326086,47.7725569 L21.1326086,47.7725569 Z M25.0388588,47.7725569 C24.4976548,47.7725569 24.0701088,48.2001029 24.0701088,48.7413069 C24.0701088,49.2825109 24.4976548,49.710057 25.0388588,49.710057 C25.5800628,49.710057 26.0076089,49.2825109 26.0076089,48.7413069 C26.0076089,48.2001029 25.5800628,47.7725569 25.0388588,47.7725569 L25.0388588,47.7725569 Z M32.9138592,47.7725569 C32.3726551,47.7725569 31.9138591,48.2001029 31.9138591,48.7413069 C31.9138591,49.2825109 32.3726551,49.741307 32.9138592,49.741307 C33.4550632,49.741307 33.8826092,49.2825109 33.8826092,48.7413069 C33.8826092,48.2001029 33.4550632,47.7725569 32.9138592,47.7725569 L32.9138592,47.7725569 Z M28.976359,51.678807 C28.435155,51.678807 28.0076089,52.1063531 28.0076089,52.6475571 C28.0076089,53.1887611 28.435155,53.6475571 28.976359,53.6475571 C29.517563,53.6475571 29.945109,53.1887611 29.945109,52.6475571 C29.945109,52.1063531 29.517563,51.678807 28.976359,51.678807 L28.976359,51.678807 Z M13.2888583,51.710057 C12.7476543,51.710057 12.3201082,52.1376031 12.3201082,52.6788071 C12.3201082,53.2200111 12.7476543,53.6788071 13.2888583,53.6788071 C13.8300623,53.6788071 14.2576083,53.2200111 14.2576083,52.6788071 C14.2576083,52.1376031 13.8300623,51.710057 13.2888583,51.710057 L13.2888583,51.710057 Z M17.1951085,51.710057 C16.6539044,51.710057 16.2263584,52.1376031 16.2263584,52.6788071 C16.2263584,53.2200111 16.6539044,53.6788071 17.1951085,53.6788071 C17.7363125,53.6788071 18.1951085,53.2200111 18.1951085,52.6788071 C18.1951085,52.1376031 17.7363125,51.710057 17.1951085,51.710057 L17.1951085,51.710057 Z M25.0388588,51.710057 C24.4976548,51.710057 24.0701088,52.1376031 24.0701088,52.6788071 C24.0701088,53.2200111 24.4976548,53.6788071 25.0388588,53.6788071 C25.5800628,53.6788071 26.0076089,53.2200111 26.0076089,52.6788071 C26.0076089,52.1376031 25.5800628,51.710057 25.0388588,51.710057 L25.0388588,51.710057 Z M32.9138592,51.710057 C32.3726551,51.710057 31.9138591,52.1376031 31.9138591,52.6788071 C31.9138591,53.2200111 32.3726551,53.6788071 32.9138592,53.6788071 C33.4550632,53.6788071 33.8826092,53.2200111 33.8826092,52.6788071 C33.8826092,52.1376031 33.4550632,51.710057 32.9138592,51.710057 L32.9138592,51.710057 Z M13.2888583,55.6163072 C12.7476543,55.6163072 12.3201082,56.0751032 12.3201082,56.6163073 C12.3201082,57.1575113 12.7476543,57.5850573 13.2888583,57.5850573 C13.8300623,57.5850573 14.2576083,57.1575113 14.2576083,56.6163073 C14.2576083,56.0751032 13.8300623,55.6163072 13.2888583,55.6163072 L13.2888583,55.6163072 Z M17.1951085,55.6163072 C16.6539044,55.6163072 16.2263584,56.0751032 16.2263584,56.6163073 C16.2263584,57.1575113 16.6539044,57.5850573 17.1951085,57.5850573 C17.7363125,57.5850573 18.1951085,57.1575113 18.1951085,56.6163073 C18.1951085,56.0751032 17.7363125,55.6163072 17.1951085,55.6163072 L17.1951085,55.6163072 Z M32.9138592,55.6163072 C32.3726551,55.6163072 31.9138591,56.0751032 31.9138591,56.6163073 C31.9138591,57.1575113 32.3726551,57.5850573 32.9138592,57.5850573 C33.4550632,57.5850573 33.8826092,57.1575113 33.8826092,56.6163073 C33.8826092,56.0751032 33.4550632,55.6163072 32.9138592,55.6163072 L32.9138592,55.6163072 Z M17.1951085,59.5538074 C16.6539044,59.5538074 16.2263584,60.0126034 16.2263584,60.5538074 C16.2263584,61.0950115 16.6539044,61.5225575 17.1951085,61.5225575 C17.7363125,61.5225575 18.1951085,61.0950115 18.1951085,60.5538074 C18.1951085,60.0126034 17.7363125,59.5538074 17.1951085,59.5538074 L17.1951085,59.5538074 Z M32.9138592,59.5850574 C32.3726551,59.5850574 31.9138591,60.0126034 31.9138591,60.5538074 C31.9138591,61.0950115 32.3726551,61.5225575 32.9138592,61.5225575 C33.4550632,61.5225575 33.8826092,61.0950115 33.8826092,60.5538074 C33.8826092,60.0126034 33.4550632,59.5850574 32.9138592,59.5850574 L32.9138592,59.5850574 Z M36.7888593,59.5850574 C36.2476553,59.5850574 35.8201093,60.0126034 35.8201093,60.5538074 C35.8201093,61.0950115 36.2476553,61.5225575 36.7888593,61.5225575 C37.3300634,61.5225575 37.7888594,61.0950115 37.7888594,60.5538074 C37.7888594,60.0126034 37.3300634,59.5850574 36.7888593,59.5850574 L36.7888593,59.5850574 Z M13.2888583,63.4600576 C12.7476543,63.4600576 12.3201082,63.8876036 12.3201082,64.4288076 C12.3201082,64.9700116 12.7476543,65.3975577 13.2888583,65.3975577 C13.8300623,65.3975577 14.2576083,64.9700116 14.2576083,64.4288076 C14.2576083,63.8876036 13.8300623,63.4600576 13.2888583,63.4600576 L13.2888583,63.4600576 Z M9.38260811,67.3975577 C8.84140409,67.3975577 8.38260807,67.8251038 8.38260807,68.3663078 C8.38260807,68.9075118 8.84140409,69.3663078 9.38260811,69.3663078 C9.92381214,69.3663078 10.3513582,68.9075118 10.3513582,68.3663078 C10.3513582,67.8251038 9.92381214,67.3975577 9.38260811,67.3975577 L9.38260811,67.3975577 Z M13.2888583,67.3975577 C12.7476543,67.3975577 12.3201082,67.8251038 12.3201082,68.3663078 C12.3201082,68.9075118 12.7476543,69.3663078 13.2888583,69.3663078 C13.8300623,69.3663078 14.2576083,68.9075118 14.2576083,68.3663078 C14.2576083,67.8251038 13.8300623,67.3975577 13.2888583,67.3975577 L13.2888583,67.3975577 Z M9.38260811,71.3038079 C8.84140409,71.3038079 8.38260807,71.7313539 8.38260807,72.272558 C8.38260807,72.813762 8.84140409,73.272558 9.38260811,73.272558 C9.92381214,73.272558 10.3513582,72.813762 10.3513582,72.272558 C10.3513582,71.7313539 9.92381214,71.3038079 9.38260811,71.3038079 L9.38260811,71.3038079 Z M13.2888583,71.3038079 C12.7476543,71.3038079 12.3201082,71.7313539 12.3201082,72.272558 C12.3201082,72.813762 12.7476543,73.272558 13.2888583,73.272558 C13.8300623,73.272558 14.2576083,72.813762 14.2576083,72.272558 C14.2576083,71.7313539 13.8300623,71.3038079 13.2888583,71.3038079 L13.2888583,71.3038079 Z M5.44510794,75.2413081 C4.90390391,75.2413081 4.47635789,75.7001041 4.47635789,76.2413081 C4.47635789,76.7825122 4.90390391,77.2100582 5.44510794,77.2100582 C5.98631196,77.2100582 6.44510798,76.7825122 6.44510798,76.2413081 C6.44510798,75.7001041 5.98631196,75.2413081 5.44510794,75.2413081 L5.44510794,75.2413081 Z M9.38260811,75.2413081 C8.84140409,75.2413081 8.38260807,75.7001041 8.38260807,76.2413081 C8.38260807,76.7825122 8.84140409,77.2100582 9.38260811,77.2100582 C9.92381214,77.2100582 10.3513582,76.7825122 10.3513582,76.2413081 C10.3513582,75.7001041 9.92381214,75.2413081 9.38260811,75.2413081 L9.38260811,75.2413081 Z M13.2888583,75.2413081 C12.7476543,75.2413081 12.3201082,75.7001041 12.3201082,76.2413081 C12.3201082,76.7825122 12.7476543,77.2100582 13.2888583,77.2100582 C13.8300623,77.2100582 14.2576083,76.7825122 14.2576083,76.2413081 C14.2576083,75.7001041 13.8300623,75.2413081 13.2888583,75.2413081 L13.2888583,75.2413081 Z M17.1951085,75.2413081 C16.6539044,75.2413081 16.2263584,75.7001041 16.2263584,76.2413081 C16.2263584,76.7825122 16.6539044,77.2100582 17.1951085,77.2100582 C17.7363125,77.2100582 18.1951085,76.7825122 18.1951085,76.2413081 C18.1951085,75.7001041 17.7363125,75.2413081 17.1951085,75.2413081 L17.1951085,75.2413081 Z M5.44510794,79.1163083 C4.90390391,79.1163083 4.47635789,79.5438543 4.47635789,80.0850583 C4.47635789,80.6262623 4.90390391,81.0850584 5.44510794,81.0850584 C5.98631196,81.0850584 6.44510798,80.6262623 6.44510798,80.0850583 C6.44510798,79.5438543 5.98631196,79.1163083 5.44510794,79.1163083 L5.44510794,79.1163083 Z M9.38260811,79.1163083 C8.84140409,79.1163083 8.38260807,79.5438543 8.38260807,80.0850583 C8.38260807,80.6262623 8.84140409,81.0850584 9.38260811,81.0850584 C9.92381214,81.0850584 10.3513582,80.6262623 10.3513582,80.0850583 C10.3513582,79.5438543 9.92381214,79.1163083 9.38260811,79.1163083 L9.38260811,79.1163083 Z M13.2888583,79.1163083 C12.7476543,79.1163083 12.3201082,79.5438543 12.3201082,80.0850583 C12.3201082,80.6262623 12.7476543,81.0850584 13.2888583,81.0850584 C13.8300623,81.0850584 14.2576083,80.6262623 14.2576083,80.0850583 C14.2576083,79.5438543 13.8300623,79.1163083 13.2888583,79.1163083 L13.2888583,79.1163083 Z M17.1951085,79.1163083 C16.6539044,79.1163083 16.2263584,79.5438543 16.2263584,80.0850583 C16.2263584,80.6262623 16.6539044,81.0850584 17.1951085,81.0850584 C17.7363125,81.0850584 18.1951085,80.6262623 18.1951085,80.0850583 C18.1951085,79.5438543 17.7363125,79.1163083 17.1951085,79.1163083 L17.1951085,79.1163083 Z M5.44510794,83.0538084 C4.90390391,83.0538084 4.47635789,83.4813545 4.47635789,84.0225585 C4.47635789,84.5637625 4.90390391,85.0225585 5.44510794,85.0225585 C5.98631196,85.0225585 6.44510798,84.5637625 6.44510798,84.0225585 C6.44510798,83.4813545 5.98631196,83.0538084 5.44510794,83.0538084 L5.44510794,83.0538084 Z M9.38260811,83.0538084 C8.84140409,83.0538084 8.38260807,83.4813545 8.38260807,84.0225585 C8.38260807,84.5637625 8.84140409,85.0225585 9.38260811,85.0225585 C9.92381214,85.0225585 10.3513582,84.5637625 10.3513582,84.0225585 C10.3513582,83.4813545 9.92381214,83.0538084 9.38260811,83.0538084 L9.38260811,83.0538084 Z M13.2888583,83.0538084 C12.7476543,83.0538084 12.3201082,83.4813545 12.3201082,84.0225585 C12.3201082,84.5637625 12.7476543,85.0225585 13.2888583,85.0225585 C13.8300623,85.0225585 14.2576083,84.5637625 14.2576083,84.0225585 C14.2576083,83.4813545 13.8300623,83.0538084 13.2888583,83.0538084 L13.2888583,83.0538084 Z M17.1951085,83.0538084 C16.6539044,83.0538084 16.2263584,83.4813545 16.2263584,84.0225585 C16.2263584,84.5637625 16.6539044,85.0225585 17.1951085,85.0225585 C17.7363125,85.0225585 18.1951085,84.5637625 18.1951085,84.0225585 C18.1951085,83.4813545 17.7363125,83.0538084 17.1951085,83.0538084 L17.1951085,83.0538084 Z M9.38260811,86.9600586 C8.84140409,86.9600586 8.38260807,87.4188546 8.38260807,87.9600587 C8.38260807,88.5012627 8.84140409,88.9288087 9.38260811,88.9288087 C9.92381214,88.9288087 10.3513582,88.5012627 10.3513582,87.9600587 C10.3513582,87.4188546 9.92381214,86.9600586 9.38260811,86.9600586 L9.38260811,86.9600586 Z M13.2888583,86.9600586 C12.7476543,86.9600586 12.3201082,87.4188546 12.3201082,87.9600587 C12.3201082,88.5012627 12.7476543,88.9288087 13.2888583,88.9288087 C13.8300623,88.9288087 14.2576083,88.5012627 14.2576083,87.9600587 C14.2576083,87.4188546 13.8300623,86.9600586 13.2888583,86.9600586 L13.2888583,86.9600586 Z M17.1951085,86.9600586 C16.6539044,86.9600586 16.2263584,87.4188546 16.2263584,87.9600587 C16.2263584,88.5012627 16.6539044,88.9288087 17.1951085,88.9288087 C17.7363125,88.9288087 18.1951085,88.5012627 18.1951085,87.9600587 C18.1951085,87.4188546 17.7363125,86.9600586 17.1951085,86.9600586 L17.1951085,86.9600586 Z M21.1326086,86.9600586 C20.5914046,86.9600586 20.1326086,87.4188546 20.1326086,87.9600587 C20.1326086,88.5012627 20.5914046,88.9288087 21.1326086,88.9288087 C21.6738127,88.9288087 22.1013587,88.5012627 22.1013587,87.9600587 C22.1013587,87.4188546 21.6738127,86.9600586 21.1326086,86.9600586 L21.1326086,86.9600586 Z M17.1951085,90.8975588 C16.6539044,90.8975588 16.2263584,91.3563548 16.2263584,91.8975588 C16.2263584,92.4387629 16.6539044,92.8663089 17.1951085,92.8663089 C17.7363125,92.8663089 18.1951085,92.4387629 18.1951085,91.8975588 C18.1951085,91.3563548 17.7363125,90.8975588 17.1951085,90.8975588 L17.1951085,90.8975588 Z M21.1326086,90.8975588 C20.5914046,90.8975588 20.1326086,91.3563548 20.1326086,91.8975588 C20.1326086,92.4387629 20.5914046,92.8663089 21.1326086,92.8663089 C21.6738127,92.8663089 22.1013587,92.4387629 22.1013587,91.8975588 C22.1013587,91.3563548 21.6738127,90.8975588 21.1326086,90.8975588 L21.1326086,90.8975588 Z M25.0388588,90.8975588 C24.4976548,90.8975588 24.0701088,91.3563548 24.0701088,91.8975588 C24.0701088,92.4387629 24.4976548,92.8663089 25.0388588,92.8663089 C25.5800628,92.8663089 26.0076089,92.4387629 26.0076089,91.8975588 C26.0076089,91.3563548 25.5800628,90.8975588 25.0388588,90.8975588 L25.0388588,90.8975588 Z M28.976359,94.772559 C28.435155,94.772559 28.0076089,95.200105 28.0076089,95.741309 C28.0076089,96.282513 28.435155,96.741309 28.976359,96.741309 C29.517563,96.741309 29.945109,96.282513 29.945109,95.741309 C29.945109,95.200105 29.517563,94.772559 28.976359,94.772559 L28.976359,94.772559 Z M13.2888583,94.803809 C12.7476543,94.803809 12.3201082,95.231355 12.3201082,95.772559 C12.3201082,96.313763 12.7476543,96.772559 13.2888583,96.772559 C13.8300623,96.772559 14.2576083,96.313763 14.2576083,95.772559 C14.2576083,95.231355 13.8300623,94.803809 13.2888583,94.803809 L13.2888583,94.803809 Z M21.1326086,94.803809 C20.5914046,94.803809 20.1326086,95.231355 20.1326086,95.772559 C20.1326086,96.313763 20.5914046,96.772559 21.1326086,96.772559 C21.6738127,96.772559 22.1013587,96.313763 22.1013587,95.772559 C22.1013587,95.231355 21.6738127,94.803809 21.1326086,94.803809 L21.1326086,94.803809 Z M25.0388588,94.803809 C24.4976548,94.803809 24.0701088,95.231355 24.0701088,95.772559 C24.0701088,96.313763 24.4976548,96.772559 25.0388588,96.772559 C25.5800628,96.772559 26.0076089,96.313763 26.0076089,95.772559 C26.0076089,95.231355 25.5800628,94.803809 25.0388588,94.803809 L25.0388588,94.803809 Z M28.976359,98.7100591 C28.435155,98.7100591 28.0076089,99.1688552 28.0076089,99.7100592 C28.0076089,100.251263 28.435155,100.678809 28.976359,100.678809 C29.517563,100.678809 29.945109,100.251263 29.945109,99.7100592 C29.945109,99.1688552 29.517563,98.7100591 28.976359,98.7100591 L28.976359,98.7100591 Z M25.0388588,98.7413091 C24.4976548,98.7413091 24.0701088,99.2001052 24.0701088,99.7413092 C24.0701088,100.282513 24.4976548,100.710059 25.0388588,100.710059 C25.5800628,100.710059 26.0076089,100.282513 26.0076089,99.7413092 C26.0076089,99.2001052 25.5800628,98.7413091 25.0388588,98.7413091 L25.0388588,98.7413091 Z"></path>
                                </g>
                            </g>
                        </g>
                    </g>
                </g>
            </g>
        </g>
    </g>
</svg>